<?xml version="1.0" encoding="UTF-8"?>
<svg version="1.1" xmlns="http://www.w3.org/2000/svg" width="852" height="250">
<path d="M0 0 C3.64493139 1.76597135 7.11214608 3.70362115 10.58984375 5.7734375 C11.83797146 6.49577783 13.08668285 7.21711043 14.3359375 7.9375 C17.12582277 9.55840601 19.90155378 11.20136855 22.671875 12.85546875 C28.42347751 16.28213275 34.22550738 19.62026448 40.02734375 22.9609375 C41.12280518 23.59257812 42.2182666 24.22421875 43.34692383 24.875 C48.52466798 27.85966267 53.7045617 30.84051335 58.88926697 33.81306458 C60.64092521 34.81767003 62.39196905 35.82333799 64.14282227 36.8293457 C66.32697312 38.08393657 68.51227525 39.33652628 70.69897461 40.58666992 C96.06358864 55.16649018 96.06358864 55.16649018 99.58984375 66.7734375 C100.02279107 70.35330473 100.0204556 73.90422849 100.00976562 77.50708008 C100.01823517 78.5649321 100.02670471 79.62278412 100.03543091 80.71269226 C100.0587644 84.1979079 100.0598238 87.68268102 100.05859375 91.16796875 C100.06569814 93.60023677 100.07339755 96.03250311 100.08166504 98.46476746 C100.09510198 103.55964823 100.09668235 108.65437406 100.09082031 113.74926758 C100.08492899 120.26252594 100.11549719 126.77503768 100.15593719 133.28815174 C100.18185035 138.31121288 100.1846882 143.33409521 100.18104553 148.35721397 C100.18273377 150.7576758 100.19234751 153.15814614 100.21018982 155.55854225 C100.23244701 158.92339925 100.22264134 162.28675728 100.20507812 165.65161133 C100.21834137 166.63324249 100.23160461 167.61487366 100.24526978 168.62625122 C100.15168389 176.38433619 98.03472198 182.91267733 92.79906464 188.78040791 C87.27100024 194.090336 80.37110233 197.58919623 73.71484375 201.2734375 C72.47091625 201.97150557 71.2276002 202.6706642 69.98486328 203.37084961 C67.43379845 204.80765836 64.880671 206.24069387 62.32617188 207.67138672 C56.67658806 210.84222383 51.07164953 214.0902533 45.46484375 217.3359375 C43.33726696 218.56384952 41.20966272 219.79171398 39.08203125 221.01953125 C35.15666629 223.28729391 31.2340531 225.55969121 27.31448364 227.83744812 C25.54760988 228.8638592 23.78002325 229.88903148 22.01220703 230.91381836 C19.80340562 232.19469628 17.59594732 233.47789444 15.39013672 234.76391602 C-5.3391746 246.77443984 -5.3391746 246.77443984 -17.41015625 244.7734375 C-22.41493068 242.9733239 -26.86118522 240.48084208 -31.41015625 237.7734375 C-32.65828396 237.05109717 -33.90699535 236.32976457 -35.15625 235.609375 C-37.94613527 233.98846899 -40.72186628 232.34550645 -43.4921875 230.69140625 C-49.24379001 227.26474225 -55.04581988 223.92661052 -60.84765625 220.5859375 C-61.94311768 219.95429688 -63.0385791 219.32265625 -64.16723633 218.671875 C-69.34498048 215.68721233 -74.5248742 212.70636165 -79.70957947 209.73381042 C-81.46123771 208.72920497 -83.21228155 207.72353701 -84.96313477 206.7175293 C-87.14728562 205.46293843 -89.33258775 204.21034872 -91.51928711 202.96020508 C-116.88390114 188.38038482 -116.88390114 188.38038482 -120.41015625 176.7734375 C-120.84310357 173.19357027 -120.8407681 169.64264651 -120.83007812 166.03979492 C-120.83854767 164.9819429 -120.84701721 163.92409088 -120.85574341 162.83418274 C-120.8790769 159.3489671 -120.8801363 155.86419398 -120.87890625 152.37890625 C-120.88601064 149.94663823 -120.89371005 147.51437189 -120.90197754 145.08210754 C-120.91541448 139.98722677 -120.91699485 134.89250094 -120.91113281 129.79760742 C-120.90524149 123.28434906 -120.93580969 116.77183732 -120.97624969 110.25872326 C-121.00216285 105.23566212 -121.0050007 100.21277979 -121.00135803 95.18966103 C-121.00304627 92.7891992 -121.01266001 90.38872886 -121.03050232 87.98833275 C-121.05275951 84.62347575 -121.04295384 81.26011772 -121.02539062 77.89526367 C-121.03865387 76.91363251 -121.05191711 75.93200134 -121.06558228 74.92062378 C-120.97199639 67.16253881 -118.85503448 60.63419767 -113.61937714 54.76646709 C-108.09131274 49.456539 -101.19141483 45.95767877 -94.53515625 42.2734375 C-93.29122875 41.57536943 -92.0479127 40.8762108 -90.80517578 40.17602539 C-88.25411095 38.73921664 -85.7009835 37.30618113 -83.14648438 35.87548828 C-77.49690056 32.70465117 -71.89196203 29.4566217 -66.28515625 26.2109375 C-64.15757946 24.98302548 -62.02997522 23.75516102 -59.90234375 22.52734375 C-55.97697879 20.25958109 -52.0543656 17.98718379 -48.13479614 15.70942688 C-46.36792238 14.6830158 -44.60033575 13.65784352 -42.83251953 12.63305664 C-40.62371812 11.35217872 -38.41625982 10.06898056 -36.21044922 8.78295898 C-12.98860688 -4.6717326 -12.98860688 -4.6717326 0 0 Z M-41.9609375 36.46484375 C-43.58056396 37.37762085 -43.58056396 37.37762085 -45.23291016 38.30883789 C-46.39641391 38.98409848 -47.55965661 39.65980904 -48.72265625 40.3359375 C-49.92433545 41.02121035 -51.12665555 41.70536048 -52.32958984 42.38842773 C-55.42574601 44.15186843 -58.51100235 45.93348993 -61.59320068 47.72119141 C-64.46114009 49.3820895 -67.33686921 51.02942418 -70.2109375 52.6796875 C-90.1388858 62.40722752 -90.1388858 62.40722752 -102.45654297 79.38427734 C-103.49927468 83.67276398 -103.68407898 87.70450383 -103.640625 92.1015625 C-103.64052933 92.88109787 -103.64043365 93.66063324 -103.64033508 94.46379089 C-103.63663605 96.98383373 -103.617743 99.50347638 -103.59765625 102.0234375 C-103.59079248 103.76440294 -103.58428492 105.50536982 -103.578125 107.24633789 C-103.50487822 121.76763791 -103.09252704 136.26761381 -102.41015625 150.7734375 C-101.09015625 151.4334375 -99.77015625 152.0934375 -98.41015625 152.7734375 C-92.99425544 148.14437511 -89.98646479 142.24046989 -86.53515625 136.0859375 C-85.87520643 134.92334096 -85.21438214 133.76124043 -84.55273438 132.59960938 C-83.18053239 130.18891403 -81.81209543 127.77614058 -80.44628906 125.36181641 C-77.30265761 119.81217682 -74.10349831 114.2945656 -70.91015625 108.7734375 C-69.66118054 106.60953532 -68.41248352 104.44547225 -67.1640625 102.28125 C-66.54547363 101.20907227 -65.92688477 100.13689453 -65.28955078 99.03222656 C-63.40035459 95.75644184 -61.51251516 92.47987857 -59.625 89.203125 C-53.32814549 78.27455892 -47.01489805 67.35596743 -40.66015625 56.4609375 C-40.07548584 55.45853027 -39.49081543 54.45612305 -38.88842773 53.42333984 C-34.53090296 45.96158637 -34.53090296 45.96158637 -32.74511719 43.17895508 C-31.09886013 40.21250103 -31.17710381 38.11385577 -31.41015625 34.7734375 C-35.90543717 33.37831516 -37.93579201 34.16296048 -41.9609375 36.46484375 Z M10.58984375 34.7734375 C10.32512281 39.271654 10.79024468 41.85091474 13.125 45.6953125 C13.95632446 47.08919189 13.95632446 47.08919189 14.80444336 48.51123047 C15.41425049 49.50525879 16.02405762 50.49928711 16.65234375 51.5234375 C17.94751042 53.68696397 19.24175038 55.85104542 20.53515625 58.015625 C21.20708008 59.13163086 21.87900391 60.24763672 22.57128906 61.39746094 C25.78797907 66.77728549 28.9062502 72.21278347 32.02734375 77.6484375 C33.28618218 79.83349245 34.5452983 82.01838745 35.8046875 84.203125 C36.74223877 85.83072754 36.74223877 85.83072754 37.69873047 87.49121094 C39.57932481 90.75518077 41.46124921 94.01837939 43.34375 97.28125 C44.2721167 98.89036255 44.2721167 98.89036255 45.21923828 100.53198242 C46.46077973 102.68337185 47.70263887 104.83457798 48.94482422 106.9855957 C51.84800729 112.01414659 54.74754219 117.04467804 57.63259888 122.08364868 C58.64861559 123.85776295 59.66591303 125.63113669 60.68359375 127.40429688 C61.95566667 129.62159064 63.2253666 131.84024825 64.4921875 134.06054688 C67.17837864 138.73750412 69.90023202 143.39211693 72.7734375 147.95703125 C73.22130615 148.6730249 73.6691748 149.38901855 74.13061523 150.12670898 C75.89199241 152.11441001 76.95270738 152.58877519 79.58984375 152.7734375 C82.01513811 150.34814314 81.87583932 149.66538347 82.00390625 146.33203125 C82.04290039 145.37554687 82.08189453 144.4190625 82.12207031 143.43359375 C82.15268555 142.37011719 82.18330078 141.30664062 82.21484375 140.2109375 C82.25061523 139.0971875 82.28638672 137.9834375 82.32324219 136.8359375 C82.43587688 132.81541533 82.51979319 128.79487854 82.58984375 124.7734375 C82.60422485 123.95482239 82.61860596 123.13620728 82.63342285 122.29278564 C82.72369354 116.86675443 82.78507593 111.44110424 82.82000732 106.01443481 C82.83314062 104.19967601 82.85101799 102.3849448 82.87384033 100.57028198 C83.57836873 83.80939959 83.57836873 83.80939959 76.40014648 69.24609375 C67.92237182 62.34954125 57.36626341 57.27245574 47.90234375 51.8984375 C46.67781261 51.20182844 45.45328466 50.50521379 44.22875977 49.80859375 C41.80951409 48.43330328 39.38910545 47.06009021 36.96777344 45.68847656 C33.93523417 43.9692486 30.90684761 42.24293038 27.87890625 40.515625 C26.26213013 39.60083506 24.64497602 38.68671266 23.02734375 37.7734375 C21.94030151 37.15106201 21.94030151 37.15106201 20.83129883 36.51611328 C15.90053905 33.58298128 15.90053905 33.58298128 10.58984375 34.7734375 Z M-26.28515625 63.5234375 C-27.28421138 65.27350649 -28.28327546 67.02357045 -29.28289795 68.77331543 C-30.31503746 70.58160174 -31.34469593 72.39128369 -32.37402344 74.20117188 C-35.52713139 79.74000037 -38.72092471 85.25536046 -41.91015625 90.7734375 C-43.1525033 92.9269913 -44.3946901 95.08063755 -45.63671875 97.234375 C-48.86878913 102.83696752 -52.1055798 108.43681988 -55.34375 114.03588867 C-57.23328685 117.30859882 -59.11499828 120.58571408 -60.99609375 123.86328125 C-63.08867317 127.5046026 -65.21193214 131.12207255 -67.38671875 134.71484375 C-67.82000488 135.44429199 -68.25329102 136.17374023 -68.69970703 136.92529297 C-69.47188073 138.22387795 -70.25800362 139.51433774 -71.06201172 140.79345703 C-72.93687146 143.98627845 -73.40913345 145.79941123 -73.26171875 149.54296875 C-72.63137918 152.87797386 -72.63137918 152.87797386 -70.28515625 155.2734375 C-66.0419335 157.48729285 -62.56601873 156.42349323 -58.16320801 155.09591675 C-55.59175222 154.22929802 -53.03969581 153.31845887 -50.48828125 152.39453125 C-48.55620798 151.71357275 -46.62390905 151.03325422 -44.69140625 150.35351562 C-41.67633752 149.28535205 -38.66338502 148.21210161 -35.65429688 147.12719727 C-32.72919053 146.07583732 -29.79706667 145.04638117 -26.86328125 144.01953125 C-25.5377121 143.5320768 -25.5377121 143.5320768 -24.18536377 143.03477478 C-14.72276311 139.75638251 -6.26713965 139.87344638 3.1171875 143.2578125 C3.87222061 143.51467834 4.62725372 143.77154419 5.40516663 144.03619385 C7.78494403 144.84968628 10.15596377 145.68582329 12.52734375 146.5234375 C14.10949063 147.06926276 15.69217112 147.61354384 17.27539062 148.15625 C28.90330631 152.15414591 28.90330631 152.15414591 34.18017578 154.09179688 C35.22415527 154.46626953 36.26813477 154.84074219 37.34375 155.2265625 C38.22490479 155.55301758 39.10605957 155.87947266 40.01391602 156.21582031 C43.19387073 156.90419265 45.45265861 156.58369847 48.58984375 155.7734375 C51.18106279 153.7636018 51.18106279 153.7636018 52.58984375 150.7734375 C52.26911116 145.72692232 51.06288501 142.21411928 48.51953125 137.87890625 C47.87814209 136.77208496 47.23675293 135.66526367 46.57592773 134.52490234 C45.87239054 133.3368208 45.1686916 132.14883503 44.46484375 130.9609375 C43.73724637 129.71370391 43.01078325 128.465808 42.28540039 127.21728516 C40.79201253 124.65018795 39.29277144 122.08665673 37.78857422 119.52587891 C35.11986821 114.97868152 32.49082055 110.40889926 29.86230469 105.83837891 C28.02166867 102.6385718 26.17561421 99.44194818 24.328125 96.24609375 C21.75790726 91.79849957 19.19336647 87.34769591 16.6328125 82.89453125 C8.54948183 68.82845685 8.54948183 68.82845685 0.33984375 54.8359375 C-0.3253125 53.71316406 -0.99046875 52.59039062 -1.67578125 51.43359375 C-3.71561669 48.29229275 -3.71561669 48.29229275 -6.41015625 45.7734375 C-18.01205565 44.08929081 -21.22309569 54.56544551 -26.28515625 63.5234375 Z M-22.97265625 158.3359375 C-24.23988525 158.77329224 -24.23988525 158.77329224 -25.53271484 159.21948242 C-28.83531329 160.37693515 -32.12417256 161.56985686 -35.41015625 162.7734375 C-36.17596008 163.05388916 -36.94176392 163.33434082 -37.73077393 163.62329102 C-44.0058255 165.92564259 -50.27236395 168.25046491 -56.53515625 170.5859375 C-57.44266632 170.92376251 -58.35017639 171.26158752 -59.28518677 171.60964966 C-61.89371369 172.58278971 -64.49995775 173.56178625 -67.10546875 174.54296875 C-67.89836807 174.83858704 -68.6912674 175.13420532 -69.50819397 175.43878174 C-72.73640456 176.66126946 -75.52594741 177.85063161 -78.41015625 179.7734375 C-79.41324862 182.59684524 -79.41324862 182.59684524 -78.41015625 185.7734375 C-71.99585664 191.38582529 -63.5910822 195.01878015 -56.09765625 198.9609375 C-53.60557365 200.27899695 -51.11507845 201.60003384 -48.625 202.921875 C-47.70208664 203.41108177 -47.70208664 203.41108177 -46.76052856 203.91017151 C-42.95116183 205.93514666 -39.17261577 208.00734339 -35.4140625 210.125 C-34.51792236 210.62878174 -33.62178223 211.13256348 -32.69848633 211.65161133 C-31.06245875 212.57607627 -29.43043611 213.50768293 -27.8034668 214.44799805 C-19.58532017 219.07685852 -11.75294644 221.07713919 -2.41015625 218.7734375 C2.2830815 216.8532328 6.6975731 214.54134995 11.14355469 212.10986328 C13.8471296 210.63288034 16.56529586 209.18504437 19.28515625 207.73828125 C39.57573257 198.36177613 39.57573257 198.36177613 57.58984375 185.7734375 C57.63065158 183.77385386 57.63238731 181.77298496 57.58984375 179.7734375 C51.5545207 176.61358943 45.45811457 174.10333903 39.0625 171.76953125 C38.07414658 171.4049733 37.08579315 171.04041534 36.06748962 170.66481018 C33.98824954 169.89881647 31.90820192 169.13501154 29.82739258 168.37329102 C26.66378664 167.21512663 23.50259667 166.05056392 20.34179688 164.88476562 C18.31133562 164.13764649 16.28074102 163.39088963 14.25 162.64453125 C13.31535416 162.30070908 12.38070831 161.9568869 11.41773987 161.60264587 C8.8119598 160.6493804 6.20281969 159.70678686 3.58984375 158.7734375 C2.76345901 158.47809616 1.93707428 158.18275482 1.08564758 157.87846375 C0.30054306 157.60613419 -0.48456146 157.33380463 -1.29345703 157.05322266 C-1.98005402 156.81374908 -2.666651 156.57427551 -3.37405396 156.32754517 C-10.22025323 154.46441112 -16.47476818 156.01157264 -22.97265625 158.3359375 Z " fill="#FFFFFF" transform="translate(120.41015625,3.2265625)"/>
<path d="M0 0 C7.33771697 -0.0682562 14.67525532 -0.12308944 22.0132246 -0.15543652 C25.42194264 -0.17097531 28.83042894 -0.19199233 32.23901367 -0.22631836 C36.1736354 -0.26568584 40.10816913 -0.27980648 44.04296875 -0.29296875 C45.24455124 -0.30845261 46.44613373 -0.32393646 47.68412781 -0.33988953 C62.18791662 -0.34272214 75.4913382 2.68006993 86.375 12.75 C97.6209583 24.91587309 98.52628165 41.01529692 98.44604492 56.7644043 C98.43754579 59.29884531 98.46638447 61.83101482 98.49804688 64.36523438 C98.56405968 79.65389264 96.84497257 95.12473392 86.22265625 106.984375 C74.97244123 117.75145195 60.853318 119.31645607 45.99609375 119.1953125 C44.67706558 119.1924826 43.35803741 119.18965271 41.9990387 119.18673706 C38.52204564 119.17916474 35.04522435 119.15957277 31.56829834 119.1373291 C28.00844647 119.11673129 24.44856638 119.10770579 20.88867188 119.09765625 C13.92570433 119.07631958 6.96287814 119.04119109 0 119 C0 112.4 0 105.8 0 99 C4.95 99 9.9 99 15 99 C15 72.93 15 46.86 15 20 C10.05 20 5.1 20 0 20 C0 13.4 0 6.8 0 0 Z M38 21 C38 46.41 38 71.82 38 98 C53.63431878 99.12951151 53.63431878 99.12951151 66.98046875 93.37109375 C74.97371652 85.21303674 75.41008277 75.32876254 75.36132812 64.42578125 C75.35302979 63.6776416 75.34473145 62.92950195 75.33618164 62.15869141 C75.31247267 59.87236472 75.31565465 57.58720089 75.32226562 55.30078125 C75.28075421 44.29720174 74.97184146 33.97184146 66.75 25.75 C56.75511289 19.38961729 50.61015168 21 38 21 Z " fill="#FFFFFF" transform="translate(288,66)"/>
<path d="M0 0 C2.45988431 1.93564667 3.72186146 3.33279218 5.5 6 C6.49 6.33 7.48 6.66 8.5 7 C8.5 3.7 8.5 0.4 8.5 -3 C15.43 -3 22.36 -3 29.5 -3 C29.56777694 10.58666948 29.62281699 24.17322666 29.65543652 37.76002693 C29.67109224 44.06892299 29.69232915 50.37769739 29.72631836 56.68652344 C29.75891462 62.77490307 29.77685372 68.86316567 29.78463173 74.95162582 C29.79017471 77.27445188 29.80099874 79.59727153 29.81719017 81.92004776 C29.83896753 85.17356457 29.84196673 88.42659781 29.84057617 91.68017578 C29.851362 92.64043167 29.86214783 93.60068756 29.8732605 94.59004211 C29.84494009 100.71378648 29.09728563 105.18430626 24.78125 109.86328125 C24.1934375 110.34152344 23.605625 110.81976563 23 111.3125 C22.11828125 112.04919922 22.11828125 112.04919922 21.21875 112.80078125 C17.736336 115.23055647 14.57436887 115.1218547 10.46801758 115.11352539 C9.22695755 115.11344986 7.98589752 115.11337433 6.70722961 115.11329651 C5.35299642 115.10818991 3.99876363 115.10297391 2.64453125 115.09765625 C1.25876415 115.09579083 -0.12700361 115.09436751 -1.51277161 115.09336853 C-5.1574791 115.0895531 -8.80214665 115.07973113 -12.44683838 115.06866455 C-16.16702738 115.0584295 -19.88722285 115.05386642 -23.60742188 115.04882812 C-30.90496822 115.03810798 -38.20247342 115.02051907 -45.5 115 C-45.5 108.73 -45.5 102.46 -45.5 96 C-43.96029541 95.97494385 -42.42059082 95.9498877 -40.83422852 95.92407227 C-35.14452176 95.83019851 -29.45494285 95.72992966 -23.76538086 95.62768555 C-21.29861431 95.58426057 -18.83181622 95.54259128 -16.36499023 95.50268555 C-12.82786534 95.44516555 -9.29090034 95.38141925 -5.75390625 95.31640625 C-4.08830406 95.29133751 -4.08830406 95.29133751 -2.38905334 95.26576233 C-1.36807053 95.24581711 -0.34708771 95.22587189 0.70483398 95.20532227 C2.06051735 95.18200584 2.06051735 95.18200584 3.44358826 95.15821838 C5.49194101 95.22498543 5.49194101 95.22498543 6.5 94 C6.65764405 92.22130274 6.75100677 90.43681524 6.81640625 88.65234375 C6.85830078 87.57275391 6.90019531 86.49316406 6.94335938 85.38085938 C6.98267578 84.24455078 7.02199219 83.10824219 7.0625 81.9375 C7.10568359 80.79732422 7.14886719 79.65714844 7.19335938 78.48242188 C7.29982839 75.65507805 7.40184207 72.82764262 7.5 70 C4.35803765 70.72513673 4.35803765 70.72513673 2.8125 73.3125 C-2.59896652 79.60150163 -10.48515034 81.3044523 -18.5 82 C-30.61835259 82.14109337 -39.45678541 78.88125984 -48.234375 70.50390625 C-57.75406798 59.98300418 -59.85688867 48.4439128 -59.7109375 34.6953125 C-58.99128715 22.0881046 -54.79117093 11.24590281 -45.48046875 2.53125 C-32.49893108 -7.50575743 -13.69199644 -9.91744607 0 0 Z M-32.3125 20.625 C-37.48724931 27.65915075 -38.01511815 35.50465577 -37.0625 43.94921875 C-35.67662669 51.46565663 -32.66874056 55.44935979 -26.5 59.87109375 C-21.0521111 62.94617166 -14.56250489 62.64875514 -8.5 62 C-2.60120083 60.18561074 2.34216968 57.3553207 5.6015625 52.00390625 C9.18862735 44.00319204 9.33853673 35.08293009 6.81640625 26.73828125 C4.46349872 21.24816368 0.57669831 18.01266081 -4.5 15 C-14.68942512 11.60352496 -24.60922629 13.43527787 -32.3125 20.625 Z " fill="#FFFFFF" transform="translate(822.5,104)"/>
<path d="M0 0 C7.83125121 7.71960404 9.98052376 17.53071899 10.11352539 28.21289062 C10.11337004 29.69401985 10.10790109 31.17515619 10.09765625 32.65625 C10.0962413 33.44398804 10.09482635 34.23172607 10.09336853 35.04333496 C10.08782612 37.52893064 10.07528485 40.01443211 10.0625 42.5 C10.05747754 44.19791535 10.05291595 45.89583214 10.04882812 47.59375 C10.03787564 51.72920229 10.02065166 55.86458524 10 60 C15.445 60.495 15.445 60.495 21 61 C21 66.94 21 72.88 21 79 C17.83186566 79.1360363 14.66966778 79.23459384 11.5 79.3125 C10.613125 79.35439453 9.72625 79.39628906 8.8125 79.43945312 C2.48942042 79.55568621 -2.29965786 78.47060283 -7 74 C-8 70.6875 -8 70.6875 -8 68 C-11.47313788 69.15771263 -11.77061709 69.85204187 -13.6875 72.8125 C-17.55345797 78.08683874 -21.34951489 80.30196106 -27.7578125 81.52734375 C-38.46812343 82.77175324 -49.22364601 81.69154959 -58 75 C-63.15383717 70.12261386 -66.63937669 65.74461186 -67.3359375 58.51171875 C-67.42366066 49.92362138 -67.17497478 43.75455951 -61.33984375 37.109375 C-53.5254691 29.47150574 -44.43614416 27.57488766 -33.80210876 27.61798096 C-31.63844271 27.64871822 -29.47576818 27.69877551 -27.3125 27.75 C-25.82098777 27.77011392 -24.32944907 27.78835597 -22.83789062 27.8046875 C-19.22469998 27.84825419 -15.61252561 27.9170048 -12 28 C-12.12329424 26.57088194 -12.25680006 25.14264276 -12.39453125 23.71484375 C-12.46776611 22.91941162 -12.54100098 22.12397949 -12.61645508 21.30444336 C-13.20862454 17.74652641 -14.60662415 15.65211919 -17 13 C-21.97660314 10.51169843 -27.60827124 10.01356096 -32.9609375 11.5703125 C-39.24456623 14.08906663 -41.19492851 16.98913252 -44 23 C-50.75052102 21.22089072 -57.40620337 19.29561809 -64 17 C-62.32614502 8.96549609 -58.36882886 3.39303861 -51.625 -1.3125 C-36.00365283 -10.97410631 -15.03246742 -10.83680267 0 0 Z M-43 47 C-45.4915904 50.7373856 -45.45793285 52.57331583 -45 57 C-43.16173504 60.18161243 -41.66693903 61.64213028 -38.4375 63.375 C-31.86400153 64.57018154 -25.46008621 64.21512827 -19.5625 60.875 C-15.66310685 58.08857532 -13.83290687 55.42952493 -12 51 C-11.94131836 48.66740468 -11.93320161 46.33237699 -12 44 C-15.47900249 43.91174639 -18.95771117 43.85919365 -22.4375 43.8125 C-23.89833008 43.77479492 -23.89833008 43.77479492 -25.38867188 43.73632812 C-31.57902092 43.6742176 -37.43939031 44.01770885 -43 47 Z " fill="#FFFFFF" transform="translate(627,106)"/>
<path d="M0 0 C8.74817899 7.13376741 13.82339839 16.99843721 15.4765625 28.01953125 C15.4765625 33.29953125 15.4765625 38.57953125 15.4765625 44.01953125 C-4.6534375 44.01953125 -24.7834375 44.01953125 -45.5234375 44.01953125 C-41.61889684 54.49155143 -41.61889684 54.49155143 -33.23046875 60.12109375 C-27.64505016 61.97484018 -20.95371599 62.02454267 -15.296875 60.3671875 C-10.66571732 57.99040393 -8.2310675 54.28609973 -5.5234375 50.01953125 C-0.98496552 51.3688067 2.79588496 53.21112473 6.8515625 55.64453125 C7.91117187 56.27617187 8.97078125 56.9078125 10.0625 57.55859375 C10.85914063 58.04070312 11.65578125 58.5228125 12.4765625 59.01953125 C9.31901529 68.1976866 1.82741854 74.72391966 -6.72265625 78.8984375 C-18.56587392 83.63902811 -33.30216022 83.22556403 -45.06640625 78.3046875 C-54.72678177 73.25180428 -62.08989037 65.59736259 -65.8984375 55.33203125 C-70.4756451 39.76557954 -69.15821602 24.2601855 -61.4296875 10.0859375 C-55.58206264 0.67940981 -46.67827553 -4.60397981 -35.9609375 -7.35546875 C-23.0398324 -9.60969032 -10.87189469 -7.4411383 0 0 Z M-41.8359375 18.39453125 C-42.57263672 19.24144531 -42.57263672 19.24144531 -43.32421875 20.10546875 C-44.9008142 22.37055452 -44.9008142 22.37055452 -45.5234375 27.01953125 C-32.9834375 27.01953125 -20.4434375 27.01953125 -7.5234375 27.01953125 C-8.18805009 20.08358467 -8.18805009 20.08358467 -12.4609375 16.14453125 C-13.17121094 15.56960937 -13.88148438 14.9946875 -14.61328125 14.40234375 C-18.23963234 11.77713253 -20.8104896 11.82602426 -25.2734375 11.76953125 C-27.09101563 11.73085937 -27.09101563 11.73085937 -28.9453125 11.69140625 C-34.4149497 12.1929887 -38.30941982 14.19312744 -41.8359375 18.39453125 Z " fill="#FFFFFF" transform="translate(468.5234375,105.98046875)"/>
<path d="M0 0 C7.53081986 6.18224246 12.07371235 13.58107752 13.6875 23.1875 C13.77151486 25.11939395 13.80531301 27.05383367 13.80102539 28.98754883 C13.80091209 30.69875664 13.80091209 30.69875664 13.80079651 32.4445343 C13.79563522 33.66553329 13.79047394 34.88653229 13.78515625 36.14453125 C13.7837413 37.40263107 13.78232635 38.6607309 13.78086853 39.95695496 C13.77622573 43.28928529 13.76725228 46.62154632 13.75616455 49.95385742 C13.74590503 53.35920617 13.74136121 56.7645621 13.73632812 60.16992188 C13.72530829 66.84246945 13.70804835 73.51497524 13.6875 80.1875 C6.4275 80.1875 -0.8325 80.1875 -8.3125 80.1875 C-8.32708252 78.62386719 -8.34166504 77.06023437 -8.35668945 75.44921875 C-8.41482781 69.6268877 -8.49206053 63.80493709 -8.57495117 57.98291016 C-8.60812736 55.46702262 -8.63618184 52.95106197 -8.65893555 50.43505859 C-8.69261518 46.81055656 -8.74493991 43.18672021 -8.80078125 39.5625 C-8.80717117 38.44447998 -8.8135611 37.32645996 -8.82014465 36.17456055 C-8.95753037 28.81395759 -9.26480208 22.15900547 -14.8125 16.75 C-20.04726804 13.47826998 -25.31612001 13.62149423 -31.3125 14.1875 C-37.26602777 15.75843086 -40.34007975 18.86842412 -43.40234375 24.08984375 C-45.1135986 28.03380879 -45.44074403 31.99184837 -45.51782227 36.25317383 C-45.53776749 37.23381302 -45.55771271 38.21445221 -45.57826233 39.22480774 C-45.60333107 40.79382088 -45.60333107 40.79382088 -45.62890625 42.39453125 C-45.64968735 43.47506271 -45.67046844 44.55559418 -45.69187927 45.66886902 C-45.75714036 49.11251611 -45.81615075 52.55623795 -45.875 56 C-45.91820751 58.33789828 -45.96182251 60.67578907 -46.00585938 63.01367188 C-46.11356271 68.73820583 -46.21281087 74.46279843 -46.3125 80.1875 C-53.5725 80.1875 -60.8325 80.1875 -68.3125 80.1875 C-68.3125 52.4675 -68.3125 24.7475 -68.3125 -3.8125 C-61.0525 -3.8125 -53.7925 -3.8125 -46.3125 -3.8125 C-46.3125 -0.1825 -46.3125 3.4475 -46.3125 7.1875 C-45.6525 6.48625 -44.9925 5.785 -44.3125 5.0625 C-32.10650171 -7.00596591 -14.81778207 -10.57223777 0 0 Z " fill="#FFFFFF" transform="translate(731.3125,104.8125)"/>
<path d="M0 0 C1.41338621 0.0200917 2.82679993 0.03833777 4.24023438 0.0546875 C7.6822301 0.09506282 11.12036397 0.17336617 14.5625 0.25 C14.5625 6.52 14.5625 12.79 14.5625 19.25 C5.625 19.6875 5.625 19.6875 2.80493164 19.81811523 C1.71233032 19.8752771 1.71233032 19.8752771 0.59765625 19.93359375 C-0.52564087 19.98858032 -0.52564087 19.98858032 -1.67163086 20.04467773 C-3.46211326 20.06771063 -3.46211326 20.06771063 -4.4375 21.25 C-4.67277773 23.59987262 -4.85136417 25.95556039 -5 28.3125 C-5.144375 30.601875 -5.28875 32.89125 -5.4375 35.25 C2.1525 35.25 9.7425 35.25 17.5625 35.25 C17.5625 41.52 17.5625 47.79 17.5625 54.25 C9.9725 54.25 2.3825 54.25 -5.4375 54.25 C-5.4375 77.02 -5.4375 99.79 -5.4375 123.25 C-13.0275 123.25 -20.6175 123.25 -28.4375 123.25 C-28.4375 100.48 -28.4375 77.71 -28.4375 54.25 C-35.6975 54.25 -42.9575 54.25 -50.4375 54.25 C-50.4375 47.98 -50.4375 41.71 -50.4375 35.25 C-43.1775 35.25 -35.9175 35.25 -28.4375 35.25 C-28.51585939 30.01540231 -28.51585939 30.01540231 -28.61767578 24.78125 C-28.67478763 17.11720865 -27.51931718 10.29324205 -22.4375 4.25 C-15.73360847 -1.14438502 -8.17449615 -0.20223984 0 0 Z " fill="#FFFFFF" transform="translate(538.4375,61.75)"/>
</svg>
