<svg version="1.1" id="Layer_1" xmlns="http://www.w3.org/2000/svg" xmlns:xlink="http://www.w3.org/1999/xlink" x="0px" y="0px"
	 width="100%" viewBox="0 0 764 327" enable-background="new 0 0 764 327" xml:space="preserve">
<path fill="#010101" opacity="1.000000" stroke="none" 
	d="
M1.000000,282.000000 
	C1.000000,188.351944 1.000000,94.703880 1.000000,1.055824 
	C1.148026,1.037216 1.296051,1.002296 1.444077,1.002295 
	C255.893524,0.999990 510.342957,1.000000 764.896240,1.000000 
	C764.896240,109.909058 764.896240,218.818253 764.896240,327.863708 
	C510.333374,327.863708 255.666702,327.863708 1.000000,327.863708 
	C1.000000,316.259644 1.000000,304.594818 1.467900,292.495422 
	C85.143051,292.060852 168.350296,292.060852 251.516235,292.060852 
	C251.516235,288.571472 251.516235,285.510040 251.516235,282.075134 
	C249.214355,282.075134 247.247910,282.075653 245.281448,282.075043 
	C163.854294,282.050079 82.427147,282.025024 1.000000,282.000000 
M374.135986,91.864990 
	C374.135986,91.864990 374.281036,91.836090 374.048859,91.283905 
	C373.696198,91.172798 373.343506,91.061684 372.702728,90.776672 
	C372.702728,90.776672 372.385132,90.888000 372.088623,90.335068 
	C371.719696,90.203064 371.350739,90.071068 370.720062,89.768494 
	C370.720062,89.768494 370.434021,89.894180 370.131470,89.358749 
	C369.804291,89.125175 369.477112,88.891602 369.158691,88.274887 
	C369.158691,88.274887 368.921997,87.973495 368.978912,87.309738 
	C368.695953,86.758064 368.413025,86.206390 368.162628,85.265259 
	C368.162628,85.265259 367.919861,84.958984 368.005798,84.193748 
	C369.045929,76.470779 370.086060,68.747818 371.727112,60.625465 
	C371.775757,55.748516 371.824402,50.871567 371.918579,45.452240 
	C371.640228,45.237156 371.361908,45.022072 371.070892,44.194065 
	C370.998840,43.793457 370.926758,43.392849 370.977112,42.235229 
	C370.012085,40.074848 369.047058,37.914467 367.984833,35.328125 
	C367.819763,35.050110 367.575623,34.913532 366.877075,34.316418 
	C365.958313,34.153206 365.039551,33.989990 364.076630,33.910915 
	C364.076630,33.910915 364.171417,33.904369 363.974915,33.412041 
	C363.658875,33.307549 363.342834,33.203056 362.673645,32.901424 
	C362.673645,32.901424 362.269196,32.907585 362.017212,32.406750 
	C361.685242,32.295509 361.353271,32.184273 360.665863,31.889074 
	C360.665863,31.889074 360.266846,31.920042 360.016113,31.419794 
	C359.683807,31.306114 359.351532,31.192436 358.684845,30.880375 
	C358.684845,30.880375 358.297485,30.913942 357.792908,30.264528 
	C355.209747,30.574076 352.626617,30.883623 349.364349,31.255356 
	C346.530121,33.669636 343.144165,35.670071 340.964783,38.575542 
	C334.335876,47.412830 333.707977,58.380619 331.122192,68.647186 
	C330.045868,72.920723 328.744781,77.137634 327.351898,82.066696 
	C321.778564,76.047852 323.904602,69.704605 323.173553,63.168850 
	C321.155548,55.944641 319.137543,48.720432 317.275452,41.241455 
	C317.275452,41.241455 317.087830,41.009037 317.058746,40.354145 
	C316.736237,40.067684 316.413727,39.781223 316.254669,39.257759 
	C316.254669,39.257759 316.071808,39.035393 316.064240,38.356277 
	C315.414124,37.746288 314.764008,37.136299 313.871735,35.927311 
	C305.454712,29.040962 300.845001,28.127047 291.418884,33.253979 
	C286.362762,36.004047 283.766663,39.688244 283.403931,45.232395 
	C282.454895,59.736919 285.506622,73.823105 287.879242,87.978661 
	C289.604523,98.271904 291.371460,108.558159 293.105194,118.761429 
	C289.507355,119.734016 285.979950,119.940651 283.279327,121.541824 
	C268.504639,130.301590 264.362396,147.153076 277.509766,160.988297 
	C285.118347,168.994949 292.838593,176.895462 300.568115,185.558640 
	C300.916901,185.836273 301.265717,186.113892 301.472961,186.400024 
	C301.472961,186.400024 301.458496,186.541077 301.712616,187.189453 
	C303.183990,191.745651 304.655396,196.301849 306.185181,201.038849 
	C313.881348,201.038849 322.444061,201.038849 331.705170,201.505737 
	C336.464783,201.360901 341.224426,201.216080 346.499542,201.221680 
	C346.671021,201.170395 346.842529,201.119095 347.751526,201.307785 
	C348.500519,201.162704 349.249542,201.017639 350.815918,200.997635 
	C354.535370,200.879471 358.254791,200.761322 362.779755,200.491196 
	C369.184814,200.354034 375.589844,200.216858 382.836182,200.272446 
	C387.051208,200.844757 386.455383,197.424637 386.971405,195.119247 
	C388.824524,186.839996 390.553619,178.533020 392.275085,170.150604 
	C392.275085,170.150604 392.222137,170.237488 392.799988,169.763794 
	C393.470184,166.844238 394.140411,163.924698 394.954926,160.259796 
	C397.566254,151.851959 400.177582,143.444107 402.948456,134.386917 
	C403.002441,133.944504 403.056427,133.502090 403.695160,132.698746 
	C403.741730,131.800262 403.788330,130.901779 403.969666,129.164062 
	C405.547577,123.208771 406.148376,117.423492 400.997009,112.238930 
	C400.829163,112.000320 400.599884,111.892670 400.040131,111.328011 
	C399.098694,110.484093 398.157257,109.640175 397.009857,108.834419 
	C397.009857,108.834419 397.216583,108.819557 397.006622,108.331017 
	C396.675812,108.247597 396.345032,108.164177 395.468445,107.662590 
	C388.637573,102.764656 381.806702,97.866722 375.039886,92.401199 
	C374.748260,92.174118 374.456635,91.947044 374.135986,91.864990 
M101.422371,25.999054 
	C98.695244,25.999290 95.968117,25.999727 93.240990,25.999737 
	C71.090210,25.999811 48.939426,25.999804 26.788643,25.999823 
	C25.195847,25.999825 23.603048,25.999825 21.757805,25.999825 
	C21.757805,87.010612 21.757805,147.369644 21.757805,207.345276 
	C28.086235,207.345276 34.316303,207.293198 40.545242,207.354935 
	C59.838985,207.546143 79.132057,207.839417 98.426102,207.916107 
	C100.580490,207.924683 103.387253,207.460541 104.789131,206.088943 
	C112.797966,198.253174 120.602524,190.194580 128.160843,181.923248 
	C129.835831,180.090256 131.091614,177.100784 131.103271,174.637009 
	C131.285507,136.165466 131.174210,97.692581 131.323929,59.220753 
	C131.338272,55.530315 130.197968,53.059399 127.591309,50.602818 
	C119.018700,42.523815 110.651703,34.226643 101.422371,25.999054 
M422.873566,47.500610 
	C422.873566,100.915901 422.873566,154.331192 422.873566,207.664459 
	C434.187164,207.664459 445.363373,207.664459 456.136658,207.664459 
	C456.727478,185.613892 457.284729,163.714508 457.921936,141.817459 
	C458.079163,136.414139 460.499298,134.254105 465.357452,136.061447 
	C467.545288,136.875397 469.403900,139.810364 470.449310,142.203491 
	C472.662018,147.268661 474.476135,152.541290 476.038483,157.851013 
	C480.915741,174.426880 485.599762,191.059616 490.249176,207.288116 
	C498.960327,207.288116 508.092438,207.475250 517.208984,207.181000 
	C520.178955,207.085144 523.375549,206.181305 525.891968,204.680344 
	C526.638428,204.235092 525.646179,200.432022 525.062012,198.272736 
	C521.998962,186.950562 518.734741,175.682495 515.712891,164.349655 
	C514.800598,160.928268 514.709534,157.285751 513.772400,153.873581 
	C511.671844,146.225555 509.216675,138.675247 507.075165,131.037689 
	C506.802094,130.063690 507.168030,128.431931 507.866760,127.739326 
	C513.671387,121.985809 519.792603,116.543945 525.455994,110.659271 
	C528.050415,107.963455 532.267761,106.496017 532.198181,101.463539 
	C531.993103,86.641609 532.180725,71.814461 532.027039,56.991299 
	C532.010620,55.408791 531.146667,53.447979 530.016724,52.327206 
	C522.911926,45.279980 515.403870,38.629078 508.474976,31.418768 
	C504.546631,27.330923 500.923676,23.793566 494.730835,25.978359 
	C494.286407,26.135147 493.738647,25.998890 493.238922,25.998890 
	C471.251648,25.998936 449.264343,25.998983 427.277069,25.999029 
	C425.554199,25.999033 423.831329,25.999029 422.873230,25.999029 
	C422.873230,33.287998 422.873230,39.894543 422.873566,47.500610 
M543.092590,196.477997 
	C543.092590,200.358261 543.092590,204.238525 543.092590,207.993637 
	C545.831116,207.729858 547.751831,207.393570 549.674194,207.384521 
	C561.167419,207.330429 572.661865,207.256348 584.154236,207.368073 
	C606.439392,207.584717 628.723206,207.952408 651.008606,208.094086 
	C651.951843,208.100082 653.708435,206.484741 653.731140,205.590317 
	C653.975891,195.946869 653.950073,186.296524 653.993652,176.648041 
	C654.003418,174.490128 653.995117,172.332138 653.995117,170.182343 
	C630.063721,170.182343 605.710022,170.182343 581.332397,170.182343 
	C581.332397,158.507401 581.332397,147.136017 581.332397,135.385406 
	C592.300110,135.385406 602.909180,135.385406 613.725708,135.385406 
	C613.725708,122.742661 613.725708,110.484680 613.725708,98.268723 
	C602.794312,98.268723 591.971069,98.268723 580.988586,98.268723 
	C580.988586,87.428917 581.041687,77.106926 580.953064,66.786163 
	C580.929443,64.041588 581.943909,62.902821 584.726868,62.837589 
	C594.987244,62.597080 605.242065,62.081341 615.502930,61.919472 
	C625.994324,61.753963 636.490417,61.896206 646.984253,61.867638 
	C648.559937,61.863346 650.135071,61.662178 651.848267,61.542446 
	C652.566528,49.008507 653.251160,37.061291 653.912170,25.526766 
	C616.736511,25.526766 579.965210,25.526766 543.092590,25.526766 
	C543.092590,82.238548 543.092590,138.862076 543.092590,196.477997 
M244.462189,25.997581 
	C211.402176,25.997581 178.342178,25.997581 145.412323,25.997581 
	C145.412323,87.125694 145.412323,147.530014 145.412323,207.946716 
	C181.362595,207.361771 217.045715,206.781158 252.520447,206.203949 
	C252.520447,194.831589 252.520447,183.409058 252.520447,170.999512 
	C228.300842,170.999512 204.389862,170.999512 180.376282,170.999512 
	C180.376282,158.662537 180.376282,147.217789 180.376282,135.897507 
	C191.728119,135.242325 202.698074,134.609177 214.047363,133.954147 
	C214.722198,121.955894 215.369873,110.440559 216.051956,98.313431 
	C203.895523,98.313431 192.580948,98.313431 180.638138,98.313431 
	C180.638138,86.264786 180.638138,74.766609 180.638138,62.317444 
	C204.556458,62.317444 228.698792,62.317444 252.776932,62.317444 
	C253.474060,49.751480 254.119354,38.120148 254.791885,25.997597 
	C251.351135,25.997597 248.398163,25.997597 244.462189,25.997581 
M667.487488,39.233524 
	C667.324646,41.183960 667.004700,43.136547 667.031372,45.084385 
	C667.087952,49.225807 667.463989,53.364670 667.466675,57.504742 
	C667.499390,107.573387 667.487854,157.642059 667.487854,207.910477 
	C695.908936,207.910477 724.479187,207.910477 752.871948,207.910477 
	C752.871948,194.994965 752.871948,182.586136 752.871948,170.005890 
	C735.507141,170.005890 718.528748,170.005890 701.201599,170.005890 
	C701.201599,121.839226 701.201599,74.118683 701.201599,25.783300 
	C689.328308,25.783300 677.800171,25.783300 665.633911,25.783300 
	C666.219238,29.720766 666.858582,34.021450 667.487488,39.233524 
M723.500000,292.048065 
	C733.263306,292.048065 743.026611,292.048065 752.682495,292.048065 
	C752.682495,288.400970 752.682495,285.335693 752.682495,282.339203 
	C667.820923,282.339203 583.282959,282.339203 498.649292,282.339203 
	C498.325439,285.863739 498.025482,289.128479 497.757233,292.048065 
	C572.648315,292.048065 647.574158,292.048065 723.500000,292.048065 
M448.793518,314.009766 
	C466.356232,313.778839 476.848907,308.815186 479.143799,293.466217 
	C480.989990,281.118256 479.046967,270.399414 465.023804,265.147919 
	C458.284271,262.624023 450.639618,261.693207 443.750641,264.384613 
	C442.948669,278.587860 442.157776,292.594360 441.295074,307.872406 
	C437.587799,303.845398 437.445129,300.413971 436.603485,296.720367 
	C434.269928,286.479553 430.012909,276.692596 427.011169,266.579285 
	C426.078003,263.435242 424.713043,261.554962 421.725555,262.203094 
	C419.363556,262.715576 416.529083,263.986908 415.250427,265.846680 
	C413.471008,268.434723 413.019562,271.913696 411.875885,274.964874 
	C407.169067,287.521881 402.415466,300.061371 397.416412,313.303009 
	C399.956970,313.802368 403.011353,314.497498 406.098816,314.981354 
	C408.862122,315.414429 410.840546,314.791260 411.270233,311.372833 
	C411.497009,309.568878 412.447113,306.734589 413.651886,306.388397 
	C417.046387,305.412964 420.741852,305.484863 424.552643,305.121613 
	C425.013123,307.363953 425.229614,309.467560 425.942932,311.386505 
	C426.237488,312.178925 427.582214,313.045868 428.476501,313.076172 
	C434.964783,313.296051 441.561218,311.002533 448.793518,314.009766 
M337.856720,319.149963 
	C340.575745,318.233398 343.294739,317.316833 346.753357,316.150970 
	C342.546600,311.772095 344.587585,308.811584 346.567719,304.771515 
	C351.756378,294.184845 355.115082,283.164520 347.590332,271.751862 
	C343.692719,265.840424 337.134552,262.055969 330.557678,263.148346 
	C315.206207,265.698273 304.507965,285.572998 309.364471,300.025818 
	C312.137177,308.277283 318.867676,313.044891 327.450714,312.951935 
	C331.168365,312.911682 333.355743,313.577820 333.166077,318.044281 
	C333.039276,321.030884 334.787109,321.852509 337.856720,319.149963 
M357.065491,298.266876 
	C356.486359,302.535156 358.218323,305.675720 361.150635,308.792877 
	C365.730286,313.661255 371.282532,314.200867 377.356567,314.052246 
	C386.215149,313.835449 392.050354,308.821167 392.966064,300.187897 
	C393.398621,296.110016 393.736755,292.019226 393.997620,287.926666 
	C394.496735,280.097015 394.910004,272.261902 395.358734,264.431580 
	C390.959991,264.431580 387.556152,264.431580 384.069916,264.431580 
	C383.698608,270.153931 383.339630,275.570496 382.997620,280.988098 
	C382.656158,286.398254 382.739258,291.877838 381.847198,297.194611 
	C381.309418,300.399933 380.704498,304.189209 375.429077,304.194000 
	C370.323120,304.198608 369.719269,300.459839 369.258118,297.474579 
	C368.639496,293.470123 369.327332,289.248322 369.582794,285.127808 
	C370.007935,278.270081 370.535156,271.418701 371.036865,264.316986 
	C366.188904,264.316986 361.756500,264.316986 357.074738,264.316986 
	C357.074738,275.382538 357.074738,286.352112 357.065491,298.266876 
M272.646362,273.166168 
	C270.064301,281.657196 273.168640,287.491821 281.541260,291.259094 
	C285.593292,293.082306 289.195984,295.904083 293.060913,298.310333 
	C287.775177,305.501343 283.613525,303.467529 271.837250,295.869629 
	C270.698303,300.151245 269.673401,304.004150 268.691528,307.695343 
	C279.169891,314.030975 279.202789,313.529388 289.034332,314.174255 
	C295.969452,314.629150 303.075592,306.539398 303.400665,300.571564 
	C303.860352,292.131592 298.698517,285.726257 288.485596,282.176361 
	C286.446625,281.467651 284.551544,280.344910 281.261139,278.781708 
	C283.995392,277.022949 285.640991,275.080566 286.927399,275.294830 
	C291.692963,276.088562 296.719299,276.911591 299.631073,283.320190 
	C301.502991,279.161652 303.185883,276.061676 304.241028,272.761047 
	C304.656281,271.462189 304.186035,268.913086 303.237244,268.301697 
	C296.893829,264.214050 289.713379,263.365356 282.370087,264.167206 
	C277.453430,264.704102 274.806427,268.264771 272.646362,273.166168 
M722.079224,13.483836 
	C711.084778,27.235712 720.044922,42.554482 732.105164,47.210609 
	C740.958313,50.628555 748.882751,48.547852 755.243286,40.497410 
	C762.191406,31.703167 762.289978,23.927206 757.590027,15.327153 
	C753.711609,8.230336 742.780090,2.367686 734.267578,6.031365 
	C730.049255,7.846867 726.181152,10.476172 722.079224,13.483836 
z"/>
<path fill="#FBFBFB" opacity="1.000000" stroke="none" 
	d="
M1.000000,282.454102 
	C82.427147,282.025024 163.854294,282.050079 245.281448,282.075043 
	C247.247910,282.075653 249.214355,282.075134 251.516235,282.075134 
	C251.516235,285.510040 251.516235,288.571472 251.516235,292.060852 
	C168.350296,292.060852 85.143051,292.060852 1.467900,292.030426 
	C1.000000,288.969391 1.000000,285.938812 1.000000,282.454102 
z"/>
<path fill="#FDFDFD" opacity="1.000000" stroke="none" 
	d="
M101.814049,26.006168 
	C110.651703,34.226643 119.018700,42.523815 127.591309,50.602818 
	C130.197968,53.059399 131.338272,55.530315 131.323929,59.220753 
	C131.174210,97.692581 131.285507,136.165466 131.103271,174.637009 
	C131.091614,177.100784 129.835831,180.090256 128.160843,181.923248 
	C120.602524,190.194580 112.797966,198.253174 104.789131,206.088943 
	C103.387253,207.460541 100.580490,207.924683 98.426102,207.916107 
	C79.132057,207.839417 59.838985,207.546143 40.545242,207.354935 
	C34.316303,207.293198 28.086235,207.345276 21.757805,207.345276 
	C21.757805,147.369644 21.757805,87.010612 21.757805,25.999825 
	C23.603048,25.999825 25.195847,25.999825 26.788643,25.999823 
	C48.939426,25.999804 71.090210,25.999811 93.240990,25.999737 
	C95.968117,25.999727 98.695244,25.999290 101.814049,26.006168 
M92.560020,157.379532 
	C92.883316,154.433685 93.454491,151.490570 93.487114,148.541504 
	C93.630341,135.594543 93.777168,122.643867 93.614708,109.698402 
	C93.467377,97.958717 93.176979,86.207008 92.396523,74.497467 
	C92.160866,70.961807 91.724686,66.494164 87.244644,64.997299 
	C77.975357,61.900261 68.439041,62.903698 59.099442,62.981636 
	C59.099442,99.068779 59.099442,134.624283 59.099442,170.830673 
	C68.647873,170.340103 77.855209,170.004654 87.028313,169.251953 
	C88.453941,169.134964 90.316139,167.362640 90.930084,165.912735 
	C91.929977,163.551422 92.067039,160.824738 92.560020,157.379532 
z"/>
<path fill="#FDFDFD" opacity="1.000000" stroke="none" 
	d="
M422.873413,47.000847 
	C422.873230,39.894543 422.873230,33.287998 422.873230,25.999029 
	C423.831329,25.999029 425.554199,25.999033 427.277069,25.999029 
	C449.264343,25.998983 471.251648,25.998936 493.238922,25.998890 
	C493.738647,25.998890 494.286407,26.135147 494.730835,25.978359 
	C500.923676,23.793566 504.546631,27.330923 508.474976,31.418768 
	C515.403870,38.629078 522.911926,45.279980 530.016724,52.327206 
	C531.146667,53.447979 532.010620,55.408791 532.027039,56.991299 
	C532.180725,71.814461 531.993103,86.641609 532.198181,101.463539 
	C532.267761,106.496017 528.050415,107.963455 525.455994,110.659271 
	C519.792603,116.543945 513.671387,121.985809 507.866760,127.739326 
	C507.168030,128.431931 506.802094,130.063690 507.075165,131.037689 
	C509.216675,138.675247 511.671844,146.225555 513.772400,153.873581 
	C514.709534,157.285751 514.800598,160.928268 515.712891,164.349655 
	C518.734741,175.682495 521.998962,186.950562 525.062012,198.272736 
	C525.646179,200.432022 526.638428,204.235092 525.891968,204.680344 
	C523.375549,206.181305 520.178955,207.085144 517.208984,207.181000 
	C508.092438,207.475250 498.960327,207.288116 490.249176,207.288116 
	C485.599762,191.059616 480.915741,174.426880 476.038483,157.851013 
	C474.476135,152.541290 472.662018,147.268661 470.449310,142.203491 
	C469.403900,139.810364 467.545288,136.875397 465.357452,136.061447 
	C460.499298,134.254105 458.079163,136.414139 457.921936,141.817459 
	C457.284729,163.714508 456.727478,185.613892 456.136658,207.664459 
	C445.363373,207.664459 434.187164,207.664459 422.873566,207.664459 
	C422.873566,154.331192 422.873566,100.915901 422.873413,47.000847 
M495.143433,80.147835 
	C494.823120,78.397690 494.270996,76.653793 494.223602,74.896294 
	C494.042603,68.180359 490.546295,64.487991 484.020294,63.980961 
	C475.023956,63.282001 466.000183,62.935852 456.909485,62.434231 
	C456.909485,75.082939 456.909485,86.694557 456.909485,99.179192 
	C465.262268,98.473099 473.359497,98.115921 481.356842,97.025887 
	C490.414764,95.791298 493.668152,91.173820 493.132660,81.783195 
	C493.115295,81.478630 494.081207,81.117989 495.143433,80.147835 
z"/>
<path fill="#FDFDFD" opacity="1.000000" stroke="none" 
	d="
M543.092590,195.981812 
	C543.092590,138.862076 543.092590,82.238548 543.092590,25.526766 
	C579.965210,25.526766 616.736511,25.526766 653.912170,25.526766 
	C653.251160,37.061291 652.566528,49.008507 651.848267,61.542446 
	C650.135071,61.662178 648.559937,61.863346 646.984253,61.867638 
	C636.490417,61.896206 625.994324,61.753963 615.502930,61.919472 
	C605.242065,62.081341 594.987244,62.597080 584.726868,62.837589 
	C581.943909,62.902821 580.929443,64.041588 580.953064,66.786163 
	C581.041687,77.106926 580.988586,87.428917 580.988586,98.268723 
	C591.971069,98.268723 602.794312,98.268723 613.725708,98.268723 
	C613.725708,110.484680 613.725708,122.742661 613.725708,135.385406 
	C602.909180,135.385406 592.300110,135.385406 581.332397,135.385406 
	C581.332397,147.136017 581.332397,158.507401 581.332397,170.182343 
	C605.710022,170.182343 630.063721,170.182343 653.995117,170.182343 
	C653.995117,172.332138 654.003418,174.490128 653.993652,176.648041 
	C653.950073,186.296524 653.975891,195.946869 653.731140,205.590317 
	C653.708435,206.484741 651.951843,208.100082 651.008606,208.094086 
	C628.723206,207.952408 606.439392,207.584717 584.154236,207.368073 
	C572.661865,207.256348 561.167419,207.330429 549.674194,207.384521 
	C547.751831,207.393570 545.831116,207.729858 543.092590,207.993637 
	C543.092590,204.238525 543.092590,200.358261 543.092590,195.981812 
z"/>
<path fill="#FCFCFC" opacity="1.000000" stroke="none" 
	d="
M244.953674,25.997589 
	C248.398163,25.997597 251.351135,25.997597 254.791885,25.997597 
	C254.119354,38.120148 253.474060,49.751480 252.776932,62.317444 
	C228.698792,62.317444 204.556458,62.317444 180.638138,62.317444 
	C180.638138,74.766609 180.638138,86.264786 180.638138,98.313431 
	C192.580948,98.313431 203.895523,98.313431 216.051956,98.313431 
	C215.369873,110.440559 214.722198,121.955894 214.047363,133.954147 
	C202.698074,134.609177 191.728119,135.242325 180.376282,135.897507 
	C180.376282,147.217789 180.376282,158.662537 180.376282,170.999512 
	C204.389862,170.999512 228.300842,170.999512 252.520447,170.999512 
	C252.520447,183.409058 252.520447,194.831589 252.520447,206.203949 
	C217.045715,206.781158 181.362595,207.361771 145.412323,207.946716 
	C145.412323,147.530014 145.412323,87.125694 145.412323,25.997581 
	C178.342178,25.997581 211.402176,25.997581 244.953674,25.997589 
z"/>
<path fill="#FCFCFC" opacity="1.000000" stroke="none" 
	d="
M667.492676,38.777828 
	C666.858582,34.021450 666.219238,29.720766 665.633911,25.783300 
	C677.800171,25.783300 689.328308,25.783300 701.201599,25.783300 
	C701.201599,74.118683 701.201599,121.839226 701.201599,170.005890 
	C718.528748,170.005890 735.507141,170.005890 752.871948,170.005890 
	C752.871948,182.586136 752.871948,194.994965 752.871948,207.910477 
	C724.479187,207.910477 695.908936,207.910477 667.487854,207.910477 
	C667.487854,157.642059 667.499390,107.573387 667.466675,57.504742 
	C667.463989,53.364670 667.087952,49.225807 667.031372,45.084385 
	C667.004700,43.136547 667.324646,41.183960 667.492676,38.777828 
z"/>
<path fill="#7ACCA1" opacity="1.000000" stroke="none" 
	d="
M371.873047,45.994617 
	C371.824402,50.871567 371.775757,55.748516 371.113281,61.046631 
	C369.332001,68.400879 368.119690,75.327080 367.056305,82.276077 
	C366.929169,83.106880 367.612305,84.061668 367.919861,84.958984 
	C367.919861,84.958984 368.162628,85.265259 368.124023,85.787872 
	C368.364258,86.864822 368.643127,87.419159 368.921997,87.973495 
	C368.921997,87.973495 369.158691,88.274887 369.252808,88.770897 
	C369.709290,89.476006 370.071655,89.685097 370.434021,89.894180 
	C370.434021,89.894180 370.720062,89.768494 371.007172,90.108536 
	C371.657898,90.595055 372.021515,90.741524 372.385132,90.888000 
	C372.385132,90.888000 372.702728,90.776672 372.981934,91.108360 
	C373.601105,91.572060 373.941071,91.704071 374.281036,91.836090 
	C374.281036,91.836090 374.135986,91.864990 374.184326,92.058731 
	C374.480377,92.491241 374.728119,92.730011 374.975830,92.968781 
	C381.806702,97.866722 388.637573,102.764656 395.878052,108.082611 
	C396.597290,108.608276 396.906952,108.713921 397.216583,108.819557 
	C397.216583,108.819557 397.009857,108.834419 397.049957,109.215576 
	C398.163086,110.369812 399.236084,111.142891 400.309113,111.915970 
	C400.599884,111.892670 400.829163,112.000320 401.018250,112.865204 
	C401.681854,118.993660 402.324249,124.495842 402.717529,130.194763 
	C402.682404,131.280899 402.896393,132.170288 403.110413,133.059677 
	C403.056427,133.502090 403.002441,133.944504 402.575256,134.903442 
	C400.129974,141.292694 397.983795,147.140823 396.020020,153.049576 
	C395.159576,155.638580 394.671539,158.351349 393.857483,161.351868 
	C393.207764,164.543015 392.714935,167.390259 392.222137,170.237488 
	C392.222137,170.237488 392.275085,170.150604 391.908264,170.170441 
	C390.026703,175.075729 388.309052,179.909714 387.052795,184.860779 
	C385.730896,190.070465 386.386230,195.896500 381.994904,200.079697 
	C375.589844,200.216858 369.184814,200.354034 362.252930,200.206940 
	C357.713989,198.968475 353.638916,197.237320 349.998535,200.872559 
	C349.249542,201.017639 348.500519,201.162704 347.290161,201.012939 
	C346.547211,200.835815 346.265625,200.953537 345.984039,201.071259 
	C341.224426,201.216080 336.464783,201.360901 331.066345,200.968994 
	C323.852386,200.283127 317.277100,200.026321 310.702148,200.035934 
	C307.933411,200.039978 306.648254,199.084381 307.009277,196.297958 
	C307.613373,191.635086 304.603760,189.055878 301.458496,186.541077 
	C301.458496,186.541077 301.472961,186.400024 301.534302,186.043427 
	C301.233307,185.405807 300.870941,185.124786 300.508606,184.843750 
	C292.838593,176.895462 285.118347,168.994949 277.509766,160.988297 
	C264.362396,147.153076 268.504639,130.301590 283.279327,121.541824 
	C285.979950,119.940651 289.507355,119.734016 293.105194,118.761429 
	C291.371460,108.558159 289.604523,98.271904 287.879242,87.978661 
	C285.506622,73.823105 282.454895,59.736919 283.403931,45.232395 
	C283.766663,39.688244 286.362762,36.004047 291.418884,33.253979 
	C300.845001,28.127047 305.454712,29.040962 313.992920,36.599400 
	C314.766632,37.859459 315.419220,38.447430 316.071808,39.035397 
	C316.071808,39.035393 316.254669,39.257759 316.241943,39.688568 
	C316.515442,40.415928 316.801636,40.712479 317.087830,41.009033 
	C317.087830,41.009037 317.275452,41.241455 317.161255,41.813999 
	C319.021362,49.582977 320.995728,56.779411 322.970093,63.975845 
	C323.904602,69.704605 321.778564,76.047852 327.351898,82.066696 
	C328.744781,77.137634 330.045868,72.920723 331.122192,68.647186 
	C333.707977,58.380619 334.335876,47.412830 340.964783,38.575542 
	C343.144165,35.670071 346.530121,33.669636 349.979340,31.469419 
	C353.162048,31.426970 355.729767,31.170456 358.297485,30.913942 
	C358.297485,30.913942 358.684845,30.880375 358.996246,31.199678 
	C359.627380,31.652666 359.947113,31.786352 360.266846,31.920040 
	C360.266846,31.920042 360.665863,31.889074 360.984497,32.204262 
	C361.625153,32.648827 361.947174,32.778202 362.269196,32.907581 
	C362.269196,32.907585 362.673645,32.901424 362.977173,33.210930 
	C363.531311,33.755714 363.828247,33.883690 364.171417,33.904369 
	C364.171417,33.904369 364.076630,33.910915 364.089783,34.176819 
	C365.152740,34.601276 366.202545,34.759838 367.252350,34.918396 
	C367.575623,34.913532 367.819763,35.050110 368.006805,35.941093 
	C368.970764,38.700119 369.912720,40.846180 370.854706,42.992241 
	C370.926758,43.392849 370.998840,43.793457 371.134094,44.742844 
	C371.320374,45.624123 371.545624,45.858456 371.873047,45.994617 
M359.309998,63.399220 
	C359.309998,63.399220 359.637146,63.171505 359.886292,63.500881 
	C360.016296,63.526894 360.146271,63.552906 360.276276,63.578915 
	C360.147339,63.377403 360.018402,63.175892 360.015015,62.323444 
	C360.074127,61.886963 360.133240,61.450485 360.944824,60.786514 
	C361.281586,55.401020 362.066193,49.991177 361.775208,44.639816 
	C361.618439,41.756557 358.879456,40.737411 355.184601,41.963570 
	C354.147339,41.981911 353.110107,42.000252 351.649506,42.152020 
	C351.373962,42.287949 351.165894,42.492538 350.402039,43.135162 
	C349.242615,45.763802 348.083191,48.392441 346.279846,51.392769 
	C345.961609,51.769272 345.449799,52.102215 345.353821,52.528725 
	C343.588928,60.370895 341.820984,68.213539 340.220673,76.090012 
	C340.038116,76.988602 340.853790,78.090012 341.189178,79.743935 
	C341.114777,80.166817 341.040344,80.589706 340.359192,81.070633 
	C340.306763,81.741882 340.254333,82.413124 340.150482,83.902710 
	C337.522552,93.869675 335.138519,103.911850 332.104218,113.753510 
	C331.292175,116.387268 328.745544,120.023315 326.554932,120.363449 
	C322.449371,121.000900 322.124115,116.497734 321.196686,113.429482 
	C321.058380,112.971985 321.176056,112.437111 321.677216,111.351189 
	C320.615631,104.896568 319.639923,98.426353 318.472321,91.990967 
	C316.702087,82.234238 314.957489,72.467888 312.894714,62.770996 
	C311.554993,56.473175 309.825562,50.244198 307.960358,44.078251 
	C307.047119,41.059254 304.982849,39.632378 301.313843,42.007172 
	C300.884216,42.014950 300.454620,42.022728 299.584076,41.512074 
	C295.386932,41.326797 293.593231,43.232006 293.950958,47.499805 
	C294.214386,50.642185 293.674042,53.869141 294.088684,56.978832 
	C296.641479,76.123581 299.449097,95.234566 301.956665,114.384972 
	C302.445343,118.117035 302.073273,121.977242 301.891174,125.768387 
	C301.855743,126.505737 300.997803,127.591606 300.282867,127.842171 
	C296.893585,129.029984 293.336395,129.765778 290.003174,131.079193 
	C286.234589,132.564163 281.776093,133.692551 281.132935,138.675293 
	C280.731293,141.786896 280.779694,145.018738 281.102295,148.147537 
	C281.626801,153.235123 288.981842,160.901276 293.496277,161.502213 
	C293.496277,161.502213 293.602844,161.504333 293.279510,162.218674 
	C295.678589,164.320023 298.077667,166.421371 300.359711,168.861450 
	C300.359711,168.861450 300.461761,168.528030 300.355560,169.255981 
	C301.246460,170.382248 302.163086,171.489273 303.023804,172.638153 
	C306.686401,177.527008 312.422516,180.825302 313.271118,187.878677 
	C313.789062,192.183762 322.664459,194.929550 327.821411,192.379364 
	C329.887909,192.482300 331.954407,192.585236 334.167999,193.111801 
	C334.771942,192.972168 335.375885,192.832520 336.851379,192.397598 
	C339.908783,192.495804 342.966217,192.594009 346.377625,193.335083 
	C354.874451,193.232178 363.371948,193.156204 371.865906,192.939880 
	C372.254883,192.929962 372.611694,191.657227 373.064392,190.440521 
	C373.165802,190.292496 373.267181,190.144485 374.005066,189.811844 
	C374.321533,188.827728 374.637970,187.843597 375.001160,186.415344 
	C375.001160,186.415344 375.165009,185.999893 375.855499,185.846771 
	C376.904877,182.895279 377.954254,179.943787 379.341553,176.332535 
	C379.898499,173.895676 380.455475,171.458832 380.996979,169.005096 
	C380.996979,169.005096 381.017487,169.006653 381.643463,168.669510 
	C382.206482,167.869843 383.033813,167.147034 383.292114,166.258774 
	C386.267822,156.026260 389.204590,145.781616 392.013885,135.502518 
	C392.394806,134.108612 392.022034,132.508728 391.939941,130.323151 
	C392.003326,129.875061 392.066711,129.426987 392.767487,128.580032 
	C395.864441,121.728745 392.875336,115.536140 385.861145,113.723457 
	C383.869843,113.208847 382.155212,111.691734 380.243256,110.782478 
	C378.400421,109.906082 376.466583,109.221031 374.860992,108.264709 
	C374.860992,108.264709 374.547150,108.404869 374.819580,107.578506 
	C375.366882,104.419029 374.204926,102.765015 370.384644,102.975136 
	C370.384644,102.975136 369.995117,102.734283 369.862335,102.106750 
	C368.944000,101.726082 368.025696,101.345406 366.333557,100.832893 
	C365.552643,100.872398 364.771698,100.911911 363.463531,100.412117 
	C358.872101,100.659683 356.364105,98.206253 355.061432,93.345131 
	C355.105927,92.886673 355.150391,92.428223 355.616394,91.576302 
	C355.471710,90.725418 355.327026,89.874542 355.067139,88.354187 
	C355.119507,87.906815 355.171875,87.459442 355.858368,86.870979 
	C355.834961,85.885712 355.811554,84.900452 355.895203,83.274132 
	C355.994904,82.853485 356.094604,82.432838 356.901093,81.822922 
	C357.231812,78.861923 357.562531,75.900925 358.001190,72.297615 
	C358.073639,71.870461 358.146088,71.443298 358.843506,70.882034 
	C358.861969,69.904945 358.880463,68.927864 359.008270,67.210106 
	C359.074982,66.466827 359.141663,65.723549 359.542450,64.631996 
	C359.709167,64.272125 359.620300,63.993568 359.309998,63.399220 
z"/>
<path fill="#FBFBFB" opacity="1.000000" stroke="none" 
	d="
M723.000000,292.048065 
	C647.574158,292.048065 572.648315,292.048065 497.757233,292.048065 
	C498.025482,289.128479 498.325439,285.863739 498.649292,282.339203 
	C583.282959,282.339203 667.820923,282.339203 752.682495,282.339203 
	C752.682495,285.335693 752.682495,288.400970 752.682495,292.048065 
	C743.026611,292.048065 733.263306,292.048065 723.000000,292.048065 
z"/>
<path fill="#F8F8F8" opacity="1.000000" stroke="none" 
	d="
M448.359833,314.007080 
	C441.561218,311.002533 434.964783,313.296051 428.476501,313.076172 
	C427.582214,313.045868 426.237488,312.178925 425.942932,311.386505 
	C425.229614,309.467560 425.013123,307.363953 424.552643,305.121613 
	C420.741852,305.484863 417.046387,305.412964 413.651886,306.388397 
	C412.447113,306.734589 411.497009,309.568878 411.270233,311.372833 
	C410.840546,314.791260 408.862122,315.414429 406.098816,314.981354 
	C403.011353,314.497498 399.956970,313.802368 397.416412,313.303009 
	C402.415466,300.061371 407.169067,287.521881 411.875885,274.964874 
	C413.019562,271.913696 413.471008,268.434723 415.250427,265.846680 
	C416.529083,263.986908 419.363556,262.715576 421.725555,262.203094 
	C424.713043,261.554962 426.078003,263.435242 427.011169,266.579285 
	C430.012909,276.692596 434.269928,286.479553 436.603485,296.720367 
	C437.445129,300.413971 437.587799,303.845398 441.295074,307.872406 
	C442.157776,292.594360 442.948669,278.587860 443.750641,264.384613 
	C450.639618,261.693207 458.284271,262.624023 465.023804,265.147919 
	C479.046967,270.399414 480.989990,281.118256 479.143799,293.466217 
	C476.848907,308.815186 466.356232,313.778839 448.359833,314.007080 
M468.604767,288.358246 
	C467.864990,278.686737 464.659485,273.915894 454.994507,275.590424 
	C454.530792,284.658051 454.065948,293.748230 453.601807,302.824615 
	C463.537109,303.353943 465.622345,301.796234 467.631561,292.974304 
	C467.920013,291.707672 468.276215,290.456512 468.604767,288.358246 
M421.837128,293.438568 
	C421.170776,290.646332 420.504456,287.854095 419.598602,284.058228 
	C418.351257,288.212280 417.368317,291.485901 416.136475,295.588409 
	C418.354156,294.911713 419.839203,294.458588 421.837128,293.438568 
z"/>
<path fill="#F8F8F8" opacity="1.000000" stroke="none" 
	d="
M337.524353,319.351440 
	C334.787109,321.852509 333.039276,321.030884 333.166077,318.044281 
	C333.355743,313.577820 331.168365,312.911682 327.450714,312.951935 
	C318.867676,313.044891 312.137177,308.277283 309.364471,300.025818 
	C304.507965,285.572998 315.206207,265.698273 330.557678,263.148346 
	C337.134552,262.055969 343.692719,265.840424 347.590332,271.751862 
	C355.115082,283.164520 351.756378,294.184845 346.567719,304.771515 
	C344.587585,308.811584 342.546600,311.772095 346.753357,316.150970 
	C343.294739,317.316833 340.575745,318.233398 337.524353,319.351440 
M333.767487,293.209747 
	C335.186249,294.626129 336.605011,296.042511 338.203491,297.638336 
	C341.103271,292.172180 341.663635,286.424591 338.533508,281.377960 
	C337.141632,279.133850 332.996216,277.218140 330.310974,277.462769 
	C325.705292,277.882233 322.591766,281.549866 321.351593,286.154297 
	C320.198395,290.435883 319.388794,294.817169 323.268127,297.694855 
	C326.868927,296.209625 329.984741,294.924469 333.767487,293.209747 
z"/>
<path fill="#FCFCFC" opacity="1.000000" stroke="none" 
	d="
M357.070129,297.794250 
	C357.074738,286.352112 357.074738,275.382538 357.074738,264.316986 
	C361.756500,264.316986 366.188904,264.316986 371.036865,264.316986 
	C370.535156,271.418701 370.007935,278.270081 369.582794,285.127808 
	C369.327332,289.248322 368.639496,293.470123 369.258118,297.474579 
	C369.719269,300.459839 370.323120,304.198608 375.429077,304.194000 
	C380.704498,304.189209 381.309418,300.399933 381.847198,297.194611 
	C382.739258,291.877838 382.656158,286.398254 382.997620,280.988098 
	C383.339630,275.570496 383.698608,270.153931 384.069916,264.431580 
	C387.556152,264.431580 390.959991,264.431580 395.358734,264.431580 
	C394.910004,272.261902 394.496735,280.097015 393.997620,287.926666 
	C393.736755,292.019226 393.398621,296.110016 392.966064,300.187897 
	C392.050354,308.821167 386.215149,313.835449 377.356567,314.052246 
	C371.282532,314.200867 365.730286,313.661255 361.150635,308.792877 
	C358.218323,305.675720 356.486359,302.535156 357.070129,297.794250 
z"/>
<path fill="#F8F8F8" opacity="1.000000" stroke="none" 
	d="
M272.743744,272.792725 
	C274.806427,268.264771 277.453430,264.704102 282.370087,264.167206 
	C289.713379,263.365356 296.893829,264.214050 303.237244,268.301697 
	C304.186035,268.913086 304.656281,271.462189 304.241028,272.761047 
	C303.185883,276.061676 301.502991,279.161652 299.631073,283.320190 
	C296.719299,276.911591 291.692963,276.088562 286.927399,275.294830 
	C285.640991,275.080566 283.995392,277.022949 281.261139,278.781708 
	C284.551544,280.344910 286.446625,281.467651 288.485596,282.176361 
	C298.698517,285.726257 303.860352,292.131592 303.400665,300.571564 
	C303.075592,306.539398 295.969452,314.629150 289.034332,314.174255 
	C279.202789,313.529388 279.169891,314.030975 268.691528,307.695343 
	C269.673401,304.004150 270.698303,300.151245 271.837250,295.869629 
	C283.613525,303.467529 287.775177,305.501343 293.060913,298.310333 
	C289.195984,295.904083 285.593292,293.082306 281.541260,291.259094 
	C273.168640,287.491821 270.064301,281.657196 272.743744,272.792725 
z"/>
<path fill="#F6F6F6" opacity="1.000000" stroke="none" 
	d="
M722.116882,13.110556 
	C726.181152,10.476172 730.049255,7.846867 734.267578,6.031365 
	C742.780090,2.367686 753.711609,8.230336 757.590027,15.327153 
	C762.289978,23.927206 762.191406,31.703167 755.243286,40.497410 
	C748.882751,48.547852 740.958313,50.628555 732.105164,47.210609 
	C720.044922,42.554482 711.084778,27.235712 722.116882,13.110556 
M749.479126,39.628780 
	C750.013062,39.062347 750.547058,38.495918 751.026550,38.026150 
	C751.026550,38.026150 750.929810,38.080421 751.642944,37.892380 
	C753.705811,33.984867 756.783203,30.372782 755.557373,24.108791 
	C754.718018,27.097317 754.243286,28.787718 753.768555,30.478119 
	C753.559814,30.424080 753.351135,30.370043 753.142456,30.316004 
	C753.142456,27.708618 753.142456,25.101234 753.142456,22.321171 
	C753.683472,22.759365 754.172302,23.155340 755.118652,23.921862 
	C754.017151,18.618052 752.467773,14.547524 747.504578,11.978125 
	C740.706360,8.458771 734.646729,10.655591 728.583679,13.405181 
	C727.660217,13.823984 727.509644,15.947116 726.720520,18.313305 
	C726.619446,18.654999 726.518433,18.996691 725.765869,18.989681 
	C724.910217,19.626993 723.584778,20.089823 723.273010,20.929129 
	C720.693176,27.875494 722.712524,33.776188 728.331726,39.204803 
	C728.597595,39.559258 728.863525,39.913712 729.594055,40.772434 
	C732.526550,41.713966 735.403625,42.935760 738.404968,43.528694 
	C742.494873,44.336655 747.624512,41.893948 749.000549,39.007740 
	C749.000549,39.007740 748.912964,39.013367 749.479126,39.628780 
z"/>
<path fill="#88CFAC" opacity="1.000000" stroke="none" 
	d="
M301.585571,186.865265 
	C304.603760,189.055878 307.613373,191.635086 307.009277,196.297958 
	C306.648254,199.084381 307.933411,200.039978 310.702148,200.035934 
	C317.277100,200.026321 323.852386,200.283127 330.717163,200.735565 
	C322.444061,201.038849 313.881348,201.038849 306.185181,201.038849 
	C304.655396,196.301849 303.183990,191.745651 301.585571,186.865265 
z"/>
<path fill="#8DD1AE" opacity="1.000000" stroke="none" 
	d="
M382.415527,200.176071 
	C386.386230,195.896500 385.730896,190.070465 387.052795,184.860779 
	C388.309052,179.909714 390.026703,175.075729 391.935547,170.213394 
	C390.553619,178.533020 388.824524,186.839996 386.971405,195.119247 
	C386.455383,197.424637 387.051208,200.844757 382.415527,200.176071 
z"/>
<path fill="#86CEAA" opacity="1.000000" stroke="none" 
	d="
M394.014404,161.007935 
	C394.671539,158.351349 395.159576,155.638580 396.020020,153.049576 
	C397.983795,147.140823 400.129974,141.292694 402.495483,135.228119 
	C400.177582,143.444107 397.566254,151.851959 394.683716,160.632935 
	C394.412537,161.006088 394.014435,161.007935 394.014404,161.007935 
z"/>
<path fill="#92D0B1" opacity="1.000000" stroke="none" 
	d="
M367.962830,84.576370 
	C367.612305,84.061668 366.929169,83.106880 367.056305,82.276077 
	C368.119690,75.327080 369.332001,68.400879 370.812805,61.246323 
	C370.086060,68.747818 369.045929,76.470779 367.962830,84.576370 
z"/>
<path fill="#94D2B2" opacity="1.000000" stroke="none" 
	d="
M323.071838,63.572350 
	C320.995728,56.779411 319.021362,49.582977 317.083282,41.941383 
	C319.137543,48.720432 321.155548,55.944641 323.071838,63.572350 
z"/>
<path fill="#8FCCAC" opacity="1.000000" stroke="none" 
	d="
M402.966614,129.998032 
	C402.324249,124.495842 401.681854,118.993660 401.065491,113.057053 
	C406.148376,117.423492 405.547577,123.208771 403.685211,129.582581 
	C403.400757,130.001099 402.966614,129.998032 402.966614,129.998032 
z"/>
<path fill="#8DD1AE" opacity="1.000000" stroke="none" 
	d="
M350.407227,200.935089 
	C353.638916,197.237320 357.713989,198.968475 361.850159,200.282913 
	C358.254791,200.761322 354.535370,200.879471 350.407227,200.935089 
z"/>
<path fill="#8DD1AE" opacity="1.000000" stroke="none" 
	d="
M393.857513,161.351868 
	C394.014435,161.007935 394.412537,161.006088 394.611572,161.005615 
	C394.140411,163.924698 393.470184,166.844238 392.511047,170.000641 
	C392.714935,167.390259 393.207764,164.543015 393.857513,161.351868 
z"/>
<path fill="#94D2B2" opacity="1.000000" stroke="none" 
	d="
M370.915894,42.613735 
	C369.912720,40.846180 368.970764,38.700119 368.055420,36.154072 
	C369.047058,37.914467 370.012085,40.074848 370.915894,42.613735 
z"/>
<path fill="#94D2B2" opacity="1.000000" stroke="none" 
	d="
M358.045197,30.589235 
	C355.729767,31.170456 353.162048,31.426970 350.318909,31.438328 
	C352.626617,30.883623 355.209747,30.574076 358.045197,30.589235 
z"/>
<path fill="#86CEAA" opacity="1.000000" stroke="none" 
	d="
M402.717529,130.194763 
	C402.966614,129.998032 403.400757,130.001099 403.617859,130.002197 
	C403.788330,130.901779 403.741730,131.800262 403.402771,132.879211 
	C402.896393,132.170288 402.682404,131.280899 402.717529,130.194763 
z"/>
<path fill="#8FCCAC" opacity="1.000000" stroke="none" 
	d="
M400.174622,111.621994 
	C399.236084,111.142891 398.163086,110.369812 397.152954,109.196503 
	C398.157257,109.640175 399.098694,110.484093 400.174622,111.621994 
z"/>
<path fill="#94D2B2" opacity="1.000000" stroke="none" 
	d="
M316.068024,38.695839 
	C315.419220,38.447430 314.766632,37.859459 314.113983,36.898899 
	C314.764008,37.136299 315.414124,37.746288 316.068024,38.695839 
z"/>
<path fill="#94D2B2" opacity="1.000000" stroke="none" 
	d="
M367.064697,34.617409 
	C366.202545,34.759838 365.152740,34.601276 364.111877,34.134750 
	C365.039551,33.989990 365.958313,34.153206 367.064697,34.617409 
z"/>
<path fill="#92D0B1" opacity="1.000000" stroke="none" 
	d="
M368.950439,87.641617 
	C368.643127,87.419159 368.364258,86.864822 368.107727,85.982605 
	C368.413025,86.206390 368.695953,86.758064 368.950439,87.641617 
z"/>
<path fill="#94D2B2" opacity="1.000000" stroke="none" 
	d="
M371.895813,45.723427 
	C371.545624,45.858456 371.320374,45.624123 371.140442,45.049309 
	C371.361908,45.022072 371.640228,45.237156 371.895813,45.723427 
z"/>
<path fill="#94D2B2" opacity="1.000000" stroke="none" 
	d="
M317.073303,40.681587 
	C316.801636,40.712479 316.515442,40.415928 316.160217,39.807076 
	C316.413727,39.781223 316.736237,40.067684 317.073303,40.681587 
z"/>
<path fill="#92D0B1" opacity="1.000000" stroke="none" 
	d="
M374.164948,91.559998 
	C373.941071,91.704071 373.601105,91.572060 373.125977,91.195312 
	C373.343506,91.061684 373.696198,91.172798 374.164948,91.559998 
z"/>
<path fill="#94D2B2" opacity="1.000000" stroke="none" 
	d="
M360.141479,31.669914 
	C359.947113,31.786352 359.627380,31.652666 359.163452,31.298870 
	C359.351532,31.192436 359.683807,31.306114 360.141479,31.669914 
z"/>
<path fill="#94D2B2" opacity="1.000000" stroke="none" 
	d="
M362.143188,32.657166 
	C361.947174,32.778202 361.625153,32.648827 361.162231,32.296242 
	C361.353271,32.184273 361.685242,32.295509 362.143188,32.657166 
z"/>
<path fill="#8DD1AE" opacity="1.000000" stroke="none" 
	d="
M346.241791,201.146469 
	C346.265625,200.953537 346.547211,200.835815 346.921387,200.892960 
	C346.842529,201.119095 346.671021,201.170395 346.241791,201.146469 
z"/>
<path fill="#94D2B2" opacity="1.000000" stroke="none" 
	d="
M364.073181,33.658203 
	C363.828247,33.883690 363.531311,33.755714 363.153748,33.309502 
	C363.342834,33.203056 363.658875,33.307549 364.073181,33.658203 
z"/>
<path fill="#88CFAC" opacity="1.000000" stroke="none" 
	d="
M300.538361,185.201202 
	C300.870941,185.124786 301.233307,185.405807 301.605103,186.039185 
	C301.265717,186.113892 300.916901,185.836273 300.538361,185.201202 
z"/>
<path fill="#8FCCAC" opacity="1.000000" stroke="none" 
	d="
M397.111603,108.575287 
	C396.906952,108.713921 396.597290,108.608276 396.150940,108.291695 
	C396.345032,108.164177 396.675812,108.247597 397.111603,108.575287 
z"/>
<path fill="#92D0B1" opacity="1.000000" stroke="none" 
	d="
M370.282745,89.626465 
	C370.071655,89.685097 369.709290,89.476006 369.248413,88.962463 
	C369.477112,88.891602 369.804291,89.125175 370.282745,89.626465 
z"/>
<path fill="#92D0B1" opacity="1.000000" stroke="none" 
	d="
M372.236877,90.611534 
	C372.021515,90.741524 371.657898,90.595055 371.138062,90.193832 
	C371.350739,90.071068 371.719696,90.203064 372.236877,90.611534 
z"/>
<path fill="#92D0B1" opacity="1.000000" stroke="none" 
	d="
M375.007874,92.684982 
	C374.728119,92.730011 374.480377,92.491241 374.198853,91.986221 
	C374.456635,91.947044 374.748260,92.174118 375.007874,92.684982 
z"/>
<path fill="#020202" opacity="1.000000" stroke="none" 
	d="
M92.564117,157.815887 
	C92.067039,160.824738 91.929977,163.551422 90.930084,165.912735 
	C90.316139,167.362640 88.453941,169.134964 87.028313,169.251953 
	C77.855209,170.004654 68.647873,170.340103 59.099442,170.830673 
	C59.099442,134.624283 59.099442,99.068779 59.099442,62.981636 
	C68.439041,62.903698 77.975357,61.900261 87.244644,64.997299 
	C91.724686,66.494164 92.160866,70.961807 92.396523,74.497467 
	C93.176979,86.207008 93.467377,97.958717 93.614708,109.698402 
	C93.777168,122.643867 93.630341,135.594543 93.487114,148.541504 
	C93.454491,151.490570 92.883316,154.433685 92.564117,157.815887 
z"/>
<path fill="#020202" opacity="1.000000" stroke="none" 
	d="
M494.866089,80.465660 
	C494.081207,81.117989 493.115295,81.478630 493.132660,81.783195 
	C493.668152,91.173820 490.414764,95.791298 481.356842,97.025887 
	C473.359497,98.115921 465.262268,98.473099 456.909485,99.179192 
	C456.909485,86.694557 456.909485,75.082939 456.909485,62.434231 
	C466.000183,62.935852 475.023956,63.282001 484.020294,63.980961 
	C490.546295,64.487991 494.042603,68.180359 494.223602,74.896294 
	C494.270996,76.653793 494.823120,78.397690 494.866089,80.465660 
z"/>
<path fill="#010201" opacity="1.000000" stroke="none" 
	d="
M358.218536,71.016144 
	C358.146088,71.443298 358.073639,71.870461 357.618805,72.840332 
	C356.889038,76.259438 356.541687,79.135811 356.194305,82.012192 
	C356.094604,82.432838 355.994904,82.853485 355.567749,83.797195 
	C355.234985,85.217537 355.229614,86.114799 355.224243,87.012070 
	C355.171875,87.459442 355.119507,87.906815 355.046631,89.053169 
	C355.082367,90.491356 355.138611,91.230560 355.194885,91.969765 
	C355.150391,92.428223 355.105927,92.886673 355.048126,94.106140 
	C355.071136,102.182671 356.739685,103.316200 363.990784,100.951416 
	C364.771698,100.911911 365.552643,100.872398 366.854095,101.161293 
	C368.248138,101.904556 369.121613,102.319420 369.995117,102.734283 
	C369.995117,102.734283 370.384644,102.975136 370.707581,103.343727 
	C372.202728,105.276505 373.374939,106.840683 374.547150,108.404861 
	C374.547150,108.404869 374.860992,108.264709 374.844543,108.668182 
	C378.477692,111.282051 381.883881,114.352295 385.842041,115.473106 
	C390.240173,116.718491 391.577515,119.245796 391.960754,123.053848 
	C392.158112,125.014679 392.082428,127.002998 392.130127,128.978897 
	C392.066711,129.426987 392.003326,129.875061 391.722504,130.966187 
	C390.886963,134.493286 390.441437,137.427551 389.619354,140.252228 
	C386.823730,149.857895 383.895233,159.424896 381.017487,169.006653 
	C381.017487,169.006653 380.996979,169.005096 380.750793,169.257721 
	C379.679504,172.010254 378.854401,174.510178 377.761841,177.254517 
	C376.717957,180.332581 375.941467,183.166229 375.165009,185.999893 
	C375.165009,185.999893 375.001160,186.415344 374.701965,186.776703 
	C374.058044,188.090866 373.713287,189.043655 373.368561,189.996460 
	C373.267181,190.144485 373.165802,190.292496 372.660461,190.929688 
	C370.155090,191.725952 368.060272,192.233612 365.951019,192.302948 
	C359.311462,192.521194 352.666504,192.574844 346.023621,192.692200 
	C342.966217,192.594009 339.908783,192.495804 336.097809,192.415314 
	C334.903137,192.518066 334.462006,192.603119 334.020905,192.688171 
	C331.954407,192.585236 329.887909,192.482300 326.997681,192.394821 
	C324.099457,191.999359 321.887634,191.905533 319.990692,191.084381 
	C318.247772,190.329941 315.801025,189.032333 315.461884,187.559982 
	C313.432373,178.748459 307.492737,173.261658 300.461761,168.528030 
	C300.461761,168.528030 300.359711,168.861450 300.263947,168.398941 
	C297.979736,165.792389 295.791290,163.648361 293.602844,161.504333 
	C293.602844,161.504333 293.496277,161.502213 293.300049,161.191833 
	C291.360321,159.103317 289.681274,157.256012 287.861084,155.560181 
	C282.700714,150.752350 281.361725,145.061981 283.569427,138.403976 
	C285.505280,132.565765 291.034119,132.887741 295.405365,131.826675 
	C304.095306,129.717255 305.363739,128.369446 304.281281,119.521469 
	C304.241302,119.194626 304.090820,118.881950 304.043976,118.555199 
	C302.509247,107.848343 300.884491,97.153221 299.479156,86.429337 
	C298.114471,76.015396 297.224365,65.534195 295.652069,55.154293 
	C294.575653,48.048100 295.323792,44.705166 300.024994,42.030502 
	C300.454620,42.022728 300.884216,42.014950 301.824585,42.378712 
	C305.924316,42.522209 306.697296,45.110130 307.243652,47.785660 
	C309.274017,57.728245 311.117004,67.710861 313.276276,77.624893 
	C315.773834,89.092110 318.530914,100.502800 321.175293,111.938034 
	C321.176056,112.437111 321.058380,112.971985 321.196686,113.429482 
	C322.124115,116.497734 322.449371,121.000900 326.554932,120.363449 
	C328.745544,120.023315 331.292175,116.387268 332.104218,113.753510 
	C335.138519,103.911850 337.522552,93.869675 340.421021,83.318542 
	C340.783020,82.160439 340.874481,81.586510 340.965942,81.012589 
	C341.040344,80.589706 341.114777,80.166817 341.488586,79.152878 
	C342.091553,76.978355 342.402710,75.396309 342.697235,73.811157 
	C344.108551,66.214928 345.515381,58.617859 346.923798,51.021080 
	C348.083191,48.392441 349.242615,45.763802 350.961121,42.975945 
	C351.823090,42.632843 352.007294,42.366798 352.072845,42.018597 
	C353.110107,42.000252 354.147339,41.981911 355.746887,42.369881 
	C357.600861,43.904850 359.898712,44.944981 360.007172,46.177750 
	C360.439392,51.090572 360.189636,56.063396 360.192383,61.014008 
	C360.133240,61.450485 360.074127,61.886963 359.869446,62.673065 
	C359.723846,63.022682 359.637146,63.171505 359.637146,63.171505 
	C359.637146,63.171505 359.309998,63.399220 359.193909,63.781029 
	C359.025116,64.450645 359.068634,64.723122 359.208344,64.980270 
	C359.141663,65.723549 359.074982,66.466827 358.653900,67.754959 
	C358.272552,69.205261 358.245544,70.110703 358.218536,71.016144 
z"/>
<path fill="#86CEAA" opacity="1.000000" stroke="none" 
	d="
M299.804535,41.771290 
	C295.323792,44.705166 294.575653,48.048100 295.652069,55.154293 
	C297.224365,65.534195 298.114471,76.015396 299.479156,86.429337 
	C300.884491,97.153221 302.509247,107.848343 304.043976,118.555199 
	C304.090820,118.881950 304.241302,119.194626 304.281281,119.521469 
	C305.363739,128.369446 304.095306,129.717255 295.405365,131.826675 
	C291.034119,132.887741 285.505280,132.565765 283.569427,138.403976 
	C281.361725,145.061981 282.700714,150.752350 287.861084,155.560181 
	C289.681274,157.256012 291.360321,159.103317 293.274841,161.144867 
	C288.981842,160.901276 281.626801,153.235123 281.102295,148.147537 
	C280.779694,145.018738 280.731293,141.786896 281.132935,138.675293 
	C281.776093,133.692551 286.234589,132.564163 290.003174,131.079193 
	C293.336395,129.765778 296.893585,129.029984 300.282867,127.842171 
	C300.997803,127.591606 301.855743,126.505737 301.891174,125.768387 
	C302.073273,121.977242 302.445343,118.117035 301.956665,114.384972 
	C299.449097,95.234566 296.641479,76.123581 294.088684,56.978832 
	C293.674042,53.869141 294.214386,50.642185 293.950958,47.499805 
	C293.593231,43.232006 295.386932,41.326797 299.804535,41.771290 
z"/>
<path fill="#86CEAA" opacity="1.000000" stroke="none" 
	d="
M321.426270,111.644608 
	C318.530914,100.502800 315.773834,89.092110 313.276276,77.624893 
	C311.117004,67.710861 309.274017,57.728245 307.243652,47.785660 
	C306.697296,45.110130 305.924316,42.522209 302.144104,42.426067 
	C304.982849,39.632378 307.047119,41.059254 307.960358,44.078251 
	C309.825562,50.244198 311.554993,56.473175 312.894714,62.770996 
	C314.957489,72.467888 316.702087,82.234238 318.472321,91.990967 
	C319.639923,98.426353 320.615631,104.896568 321.426270,111.644608 
z"/>
<path fill="#86CEAA" opacity="1.000000" stroke="none" 
	d="
M300.408661,168.891998 
	C307.492737,173.261658 313.432373,178.748459 315.461884,187.559982 
	C315.801025,189.032333 318.247772,190.329941 319.990692,191.084381 
	C321.887634,191.905533 324.099457,191.999359 326.575439,192.540009 
	C322.664459,194.929550 313.789062,192.183762 313.271118,187.878677 
	C312.422516,180.825302 306.686401,177.527008 303.023804,172.638153 
	C302.163086,171.489273 301.246460,170.382248 300.408661,168.891998 
z"/>
<path fill="#83C4A4" opacity="1.000000" stroke="none" 
	d="
M381.330475,168.838074 
	C383.895233,159.424896 386.823730,149.857895 389.619354,140.252228 
	C390.441437,137.427551 390.886963,134.493286 391.751678,131.306732 
	C392.022034,132.508728 392.394806,134.108612 392.013885,135.502518 
	C389.204590,145.781616 386.267822,156.026260 383.292114,166.258774 
	C383.033813,167.147034 382.206482,167.869843 381.330475,168.838074 
z"/>
<path fill="#83C4A4" opacity="1.000000" stroke="none" 
	d="
M392.448792,128.779465 
	C392.082428,127.002998 392.158112,125.014679 391.960754,123.053848 
	C391.577515,119.245796 390.240173,116.718491 385.842041,115.473106 
	C381.883881,114.352295 378.477692,111.282051 374.700378,108.761780 
	C376.466583,109.221031 378.400421,109.906082 380.243256,110.782478 
	C382.155212,111.691734 383.869843,113.208847 385.861145,113.723457 
	C392.875336,115.536140 395.864441,121.728745 392.448792,128.779465 
z"/>
<path fill="#86CEAA" opacity="1.000000" stroke="none" 
	d="
M346.200623,193.013641 
	C352.666504,192.574844 359.311462,192.521194 365.951019,192.302948 
	C368.060272,192.233612 370.155090,191.725952 372.619995,191.195770 
	C372.611694,191.657227 372.254883,192.929962 371.865906,192.939880 
	C363.371948,193.156204 354.874451,193.232178 346.200623,193.013641 
z"/>
<path fill="#8DD1AE" opacity="1.000000" stroke="none" 
	d="
M346.601807,51.206924 
	C345.515381,58.617859 344.108551,66.214928 342.697235,73.811157 
	C342.402710,75.396309 342.091553,76.978355 341.497314,78.829605 
	C340.853790,78.090012 340.038116,76.988602 340.220673,76.090012 
	C341.820984,68.213539 343.588928,60.370895 345.353821,52.528725 
	C345.449799,52.102215 345.961609,51.769272 346.601807,51.206924 
z"/>
<path fill="#83C4A4" opacity="1.000000" stroke="none" 
	d="
M360.568604,60.900261 
	C360.189636,56.063396 360.439392,51.090572 360.007172,46.177750 
	C359.898712,44.944981 357.600861,43.904850 356.129211,42.443535 
	C358.879456,40.737411 361.618439,41.756557 361.775208,44.639816 
	C362.066193,49.991177 361.281586,55.401020 360.568604,60.900261 
z"/>
<path fill="#83C4A4" opacity="1.000000" stroke="none" 
	d="
M363.727173,100.681763 
	C356.739685,103.316200 355.071136,102.182671 355.110748,94.447472 
	C356.364105,98.206253 358.872101,100.659683 363.727173,100.681763 
z"/>
<path fill="#86CEAA" opacity="1.000000" stroke="none" 
	d="
M293.441162,161.861511 
	C295.791290,163.648361 297.979736,165.792389 300.322449,168.229568 
	C298.077667,166.421371 295.678589,164.320023 293.441162,161.861511 
z"/>
<path fill="#83C4A4" opacity="1.000000" stroke="none" 
	d="
M356.547699,81.917557 
	C356.541687,79.135811 356.889038,76.259438 357.564819,73.161499 
	C357.562531,75.900925 357.231812,78.861923 356.547699,81.917557 
z"/>
<path fill="#86CEAA" opacity="1.000000" stroke="none" 
	d="
M375.510254,185.923340 
	C375.941467,183.166229 376.717957,180.332581 378.005432,177.250061 
	C378.516449,177.001190 379.003601,176.992294 379.003601,176.992294 
	C377.954254,179.943787 376.904877,182.895279 375.510254,185.923340 
z"/>
<path fill="#83C4A4" opacity="1.000000" stroke="none" 
	d="
M374.683350,107.991684 
	C373.374939,106.840683 372.202728,105.276505 370.933044,103.383705 
	C374.204926,102.765015 375.366882,104.419029 374.683350,107.991684 
z"/>
<path fill="#83C4A4" opacity="1.000000" stroke="none" 
	d="
M379.172577,176.662415 
	C379.003601,176.992294 378.516449,177.001190 378.272888,177.005646 
	C378.854401,174.510178 379.679504,172.010254 380.758545,169.266144 
	C380.455475,171.458832 379.898499,173.895676 379.172577,176.662415 
z"/>
<path fill="#83C4A4" opacity="1.000000" stroke="none" 
	d="
M358.531006,70.949089 
	C358.245544,70.110703 358.272552,69.205261 358.599243,68.125298 
	C358.880463,68.927864 358.861969,69.904945 358.531006,70.949089 
z"/>
<path fill="#83C4A4" opacity="1.000000" stroke="none" 
	d="
M355.541321,86.941528 
	C355.229614,86.114799 355.234985,85.217537 355.514221,84.117722 
	C355.811554,84.900452 355.834961,85.885712 355.541321,86.941528 
z"/>
<path fill="#83C4A4" opacity="1.000000" stroke="none" 
	d="
M369.928711,102.420517 
	C369.121613,102.319420 368.248138,101.904556 367.240997,101.227211 
	C368.025696,101.345406 368.944000,101.726082 369.928711,102.420517 
z"/>
<path fill="#86CEAA" opacity="1.000000" stroke="none" 
	d="
M334.094452,192.899994 
	C334.462006,192.603119 334.903137,192.518066 335.662048,192.562958 
	C335.375885,192.832520 334.771942,192.972168 334.094452,192.899994 
z"/>
<path fill="#8DD1AE" opacity="1.000000" stroke="none" 
	d="
M340.662567,81.041611 
	C340.874481,81.586510 340.783020,82.160439 340.446716,82.909370 
	C340.254333,82.413124 340.306763,81.741882 340.662567,81.041611 
z"/>
<path fill="#86CEAA" opacity="1.000000" stroke="none" 
	d="
M373.686829,189.904144 
	C373.713287,189.043655 374.058044,188.090866 374.678589,186.998779 
	C374.637970,187.843597 374.321533,188.827728 373.686829,189.904144 
z"/>
<path fill="#83C4A4" opacity="1.000000" stroke="none" 
	d="
M355.405640,91.773033 
	C355.138611,91.230560 355.082367,90.491356 355.104218,89.387909 
	C355.327026,89.874542 355.471710,90.725418 355.405640,91.773033 
z"/>
<path fill="#83C4A4" opacity="1.000000" stroke="none" 
	d="
M359.761719,63.336193 
	C359.637146,63.171505 359.723846,63.022682 359.806641,62.998531 
	C360.018402,63.175892 360.147339,63.377403 360.276276,63.578918 
	C360.146271,63.552906 360.016296,63.526894 359.761719,63.336193 
z"/>
<path fill="#83C4A4" opacity="1.000000" stroke="none" 
	d="
M351.861176,42.085308 
	C352.007294,42.366798 351.823090,42.632843 351.272766,42.791260 
	C351.165894,42.492538 351.373962,42.287949 351.861176,42.085308 
z"/>
<path fill="#83C4A4" opacity="1.000000" stroke="none" 
	d="
M359.375397,64.806137 
	C359.068634,64.723122 359.025116,64.450645 359.176819,63.979584 
	C359.620300,63.993568 359.709167,64.272125 359.375397,64.806137 
z"/>
<path fill="#080808" opacity="1.000000" stroke="none" 
	d="
M468.602905,288.778198 
	C468.276215,290.456512 467.920013,291.707672 467.631561,292.974304 
	C465.622345,301.796234 463.537109,303.353943 453.601807,302.824615 
	C454.065948,293.748230 454.530792,284.658051 454.994507,275.590424 
	C464.659485,273.915894 467.864990,278.686737 468.602905,288.778198 
z"/>
<path fill="#121212" opacity="1.000000" stroke="none" 
	d="
M421.580688,293.722015 
	C419.839203,294.458588 418.354156,294.911713 416.136475,295.588409 
	C417.368317,291.485901 418.351257,288.212280 419.598602,284.058228 
	C420.504456,287.854095 421.170776,290.646332 421.580688,293.722015 
z"/>
<path fill="#070707" opacity="1.000000" stroke="none" 
	d="
M333.434021,293.424530 
	C329.984741,294.924469 326.868927,296.209625 323.268127,297.694855 
	C319.388794,294.817169 320.198395,290.435883 321.351593,286.154297 
	C322.591766,281.549866 325.705292,277.882233 330.310974,277.462769 
	C332.996216,277.218140 337.141632,279.133850 338.533508,281.377960 
	C341.663635,286.424591 341.103271,292.172180 338.203491,297.638336 
	C336.605011,296.042511 335.186249,294.626129 333.434021,293.424530 
z"/>
<path fill="#F9FAFA" opacity="1.000000" stroke="none" 
	d="
M729.129456,40.268150 
	C728.863525,39.913712 728.597595,39.559258 728.129395,38.605400 
	C727.423889,31.783461 726.920654,25.560925 726.417419,19.338387 
	C726.518433,18.996691 726.619446,18.654999 727.223633,17.759552 
	C727.843323,17.323107 727.944702,17.464478 728.080994,17.550430 
	C728.198364,17.624403 728.355530,17.635145 728.495117,17.673859 
	C729.085205,13.242906 732.361694,13.988807 735.392395,13.956400 
	C738.634399,13.921734 741.879272,13.648026 745.111328,13.352044 
	C747.323364,13.149462 751.519653,16.768057 750.868896,18.886612 
	C748.886108,25.341785 749.997559,31.689728 750.929810,38.080421 
	C750.929810,38.080421 751.026550,38.026150 750.713379,38.010952 
	C749.904480,38.334957 749.408752,38.674164 748.912964,39.013367 
	C748.912964,39.013367 749.000549,39.007740 748.574463,38.987564 
	C745.429199,38.665276 742.251831,39.983822 740.984009,35.638268 
	C740.572876,34.228859 737.532715,33.586437 735.115112,32.279697 
	C735.543152,35.078426 735.815063,36.856068 736.100952,38.725399 
	C733.457581,39.310356 731.293518,39.789246 729.129456,40.268150 
M735.137329,25.838751 
	C737.248657,25.246838 739.423828,24.802366 741.417969,23.939531 
	C741.820496,23.765364 741.798096,21.194727 741.528992,21.108385 
	C739.544128,20.471542 737.446960,20.184559 735.407104,19.791706 
	C735.208008,20.935081 735.111145,21.248123 735.106323,21.562578 
	C735.088806,22.709089 735.101990,23.856068 735.137329,25.838751 
z"/>
<path fill="#030303" opacity="1.000000" stroke="none" 
	d="
M751.286377,37.986401 
	C749.997559,31.689728 748.886108,25.341785 750.868896,18.886612 
	C751.519653,16.768057 747.323364,13.149462 745.111328,13.352044 
	C741.879272,13.648026 738.634399,13.921734 735.392395,13.956400 
	C732.361694,13.988807 729.085205,13.242906 728.495117,17.673859 
	C728.355530,17.635145 728.198364,17.624403 728.080994,17.550430 
	C727.944702,17.464478 727.843323,17.323107 727.364136,17.243877 
	C727.509644,15.947116 727.660217,13.823984 728.583679,13.405181 
	C734.646729,10.655591 740.706360,8.458771 747.504578,11.978125 
	C752.467773,14.547524 754.017151,18.618052 755.118652,23.921862 
	C754.172302,23.155340 753.683472,22.759365 753.142456,22.321171 
	C753.142456,25.101234 753.142456,27.708618 753.142456,30.316004 
	C753.351135,30.370043 753.559814,30.424080 753.768555,30.478119 
	C754.243286,28.787718 754.718018,27.097317 755.557373,24.108791 
	C756.783203,30.372782 753.705811,33.984867 751.286377,37.986401 
z"/>
<path fill="#060606" opacity="1.000000" stroke="none" 
	d="
M729.361755,40.520287 
	C731.293518,39.789246 733.457581,39.310356 736.100952,38.725399 
	C735.815063,36.856068 735.543152,35.078426 735.115112,32.279697 
	C737.532715,33.586437 740.572876,34.228859 740.984009,35.638268 
	C742.251831,39.983822 745.429199,38.665276 748.586182,38.945267 
	C747.624512,41.893948 742.494873,44.336655 738.404968,43.528694 
	C735.403625,42.935760 732.526550,41.713966 729.361755,40.520287 
z"/>
<path fill="#121212" opacity="1.000000" stroke="none" 
	d="
M726.091675,19.164036 
	C726.920654,25.560925 727.423889,31.783461 727.835632,38.442947 
	C722.712524,33.776188 720.693176,27.875494 723.273010,20.929129 
	C723.584778,20.089823 724.910217,19.626993 726.091675,19.164036 
z"/>
<path fill="#060606" opacity="1.000000" stroke="none" 
	d="
M749.196045,39.321075 
	C749.408752,38.674164 749.904480,38.334957 750.740662,37.962624 
	C750.547058,38.495918 750.013062,39.062347 749.196045,39.321075 
z"/>
<path fill="#080808" opacity="1.000000" stroke="none" 
	d="
M735.120483,25.420811 
	C735.101990,23.856068 735.088806,22.709089 735.106323,21.562578 
	C735.111145,21.248123 735.208008,20.935081 735.407104,19.791706 
	C737.446960,20.184559 739.544128,20.471542 741.528992,21.108385 
	C741.798096,21.194727 741.820496,23.765364 741.417969,23.939531 
	C739.423828,24.802366 737.248657,25.246838 735.120483,25.420811 
z"/>
</svg>