<?xml version="1.0" encoding="UTF-8"?>
<svg version="1.1" xmlns="http://www.w3.org/2000/svg" width="1600" height="685">
<path d="M0 0 C528 0 1056 0 1600 0 C1600 226.05 1600 452.1 1600 685 C1072 685 544 685 0 685 C0 458.95 0 232.9 0 0 Z " fill="#000000" transform="translate(0,0)"/>
<path d="M0 0 C55.44 0 110.88 0 168 0 C168 0.66 168 1.32 168 2 C168.99 2.33 169.98 2.66 171 3 C172.24801967 4.44507541 173.49123715 5.89538318 174.68359375 7.38671875 C177.46713776 10.79800563 180.62430519 13.68692099 184 16.5 C186.83905315 18.86587762 189.40671543 21.37825256 192 24 C193.48889131 25.49027504 194.97855203 26.97978156 196.46875 28.46875 C211 43 211 43 213.28205299 45.37306595 C215.90485071 48.03876373 215.90485071 48.03876373 218.84226036 50.02314377 C224.01149001 54.04780995 227.06062241 57.45474498 228.03795242 64.090065 C228.60732111 70.64850284 228.53441618 77.2088882 228.48681641 83.78613281 C228.5082894 86.31515133 228.53437091 88.84413428 228.56469727 91.37306213 C228.62483429 97.51265193 228.6333637 103.65038543 228.61525829 109.79018721 C228.60130699 114.7851716 228.60748556 119.7797517 228.62772751 124.77471161 C228.63056796 125.48770894 228.63340842 126.20070627 228.63633495 126.93530957 C228.64214163 128.38414982 228.64797081 129.83298998 228.65382223 131.28183004 C228.70579874 144.84781457 228.68744867 158.41302652 228.64688174 171.97900388 C228.61193833 184.36207367 228.66195673 196.74306755 228.75278254 209.12579933 C228.84554254 221.86958149 228.88236568 234.612396 228.85870111 247.35651088 C228.84635202 254.49981103 228.85520276 261.64148433 228.92216873 268.78452301 C228.98444284 275.50672177 228.96714675 282.22430606 228.89784241 288.94663811 C228.88447066 291.40433113 228.89632525 293.86231978 228.93612289 296.31972694 C229.24225051 316.77628315 229.24225051 316.77628315 221.6982578 324.828758 C219.13682293 327.23472349 216.47319111 329.44812035 213.69606662 331.59962034 C211.42825315 333.47207029 209.73992219 335.64052862 208 338 C203.49450549 342.83516484 203.49450549 342.83516484 200 344 C199.31778545 345.32544541 198.65293694 346.65988972 198 348 C196.30078125 349.640625 196.30078125 349.640625 194.3125 351.25 C191.61926028 353.53110695 189.20546315 355.79724598 186.9375 358.5 C180.97093745 365.31892863 174.40693594 371.59306406 168 378 C112.56 378 57.12 378 0 378 C0 253.26 0 128.52 0 0 Z " fill="#FEFEFE" transform="translate(45,54)"/>
<path d="M0 0 C21.81806052 -0.11676331 43.63606958 -0.2049539 65.45437908 -0.25906086 C75.58484525 -0.28485062 85.71511736 -0.32001593 95.84545898 -0.37719727 C104.67431431 -0.42700856 113.50302912 -0.4592854 122.33202106 -0.47044247 C127.00766919 -0.47696509 131.6829153 -0.49231104 136.35843468 -0.52865028 C140.75877931 -0.5625739 145.15855611 -0.57306038 149.55901909 -0.56553841 C151.17434525 -0.56691459 152.78969028 -0.57686908 154.40490341 -0.59602737 C156.61089931 -0.62091079 158.81475216 -0.61492517 161.02079773 -0.60127258 C162.25507854 -0.60588155 163.48935934 -0.61049051 164.76104259 -0.61523914 C168.89478392 0.16996398 170.31730581 1.84608553 173 5 C174.15349723 5.99464698 175.31857148 6.97619613 176.5 7.9375 C179.77318775 10.70058057 182.30882312 13.67143912 185 17 C187.55612636 19.68720976 190.1199811 22.09748464 193 24.4375 C195.55581094 26.62058851 197.5229291 28.80873262 199.61035156 31.42089844 C201.1573408 33.17879134 202.81995674 34.63043264 204.609375 36.140625 C209.26363313 40.16315053 213.5651788 44.4895679 217.875 48.875 C219.37008161 50.39550816 220.86736644 51.91385411 222.3671875 53.4296875 C223.01800293 54.09210449 223.66881836 54.75452148 224.33935547 55.43701172 C225.93142515 57.08544452 225.93142515 57.08544452 228 58 C228.1854459 71.43878293 228.32755146 84.87726099 228.41449738 98.31706333 C228.45622983 104.55794565 228.51282522 110.79795195 228.60351562 117.03833008 C228.69050704 123.06195099 228.73828875 129.08472995 228.75901794 135.10893059 C228.77378795 137.40592644 228.80263155 139.70287672 228.84584045 141.99951363 C228.90401812 145.22016683 228.911909 148.43735225 228.90820312 151.65844727 C228.93696533 152.60575714 228.96572754 153.55306702 228.99536133 154.52908325 C228.94652995 158.4573931 228.84169648 160.98466246 226.27911949 164.07589626 C224.25801555 165.84887785 222.1719061 167.41833217 220 169 C218.83073921 170.10044921 217.67823615 171.21934461 216.55322266 172.36499023 C215.72294052 173.20506874 215.72294052 173.20506874 214.87588501 174.06211853 C214.02853287 174.92662376 214.02853287 174.92662376 213.1640625 175.80859375 C211.92330321 177.06197383 210.68241424 178.31522554 209.44140625 179.56835938 C207.51715767 181.51760784 205.59457267 183.46844905 203.67431641 185.42163086 C201.80020162 187.32575984 199.92006678 189.22377397 198.0390625 191.12109375 C197.17349228 192.00685341 197.17349228 192.00685341 196.29043579 192.9105072 C194.89778729 194.31195732 193.45334043 195.66159278 192 197 C191.34 197 190.68 197 190 197 C190 197.66 190 198.32 190 199 C189.34 199 188.68 199 188 199 C187.773125 199.5775 187.54625 200.155 187.3125 200.75 C185.65238361 203.59591381 183.60812043 204.99841921 181 207 C179.31384218 208.64694485 177.64429829 210.31126121 176 212 C175.34 212.66 174.68 213.32 174 214 C174.37068555 220.30165442 176.43251313 226.23860715 178.25 232.25 C180.48406133 239.76581655 182.66037019 247.28402181 184.625 254.875 C187.89098654 267.46232454 191.30630261 279.9782826 195.26123047 292.36816406 C196.82786595 297.3210753 198.11421475 302.30589899 199.32421875 307.35546875 C199.92580393 309.7096489 200.63099925 311.95988289 201.4375 314.25 C203.0923495 319.01631132 204.25693247 323.89181303 205.44897461 328.78857422 C206.52630673 333.18661819 207.7137721 337.53208932 209 341.875 C210.60252157 347.40115571 211.98186497 352.95213476 213.25 358.5625 C213.4253125 359.32481934 213.600625 360.08713867 213.78125 360.87255859 C215.47498319 368.54387232 215.47498319 368.54387232 215 372 C211.62314532 376.1342134 207.06522432 377.01882295 202 378 C197.22007527 378.37714988 192.4719734 378.35081843 187.6796875 378.29296875 C186.32634964 378.28735977 184.9730056 378.28309584 183.61965942 378.28010559 C180.09161982 378.26875896 176.56396241 378.23938253 173.03607178 378.20599365 C169.42253791 378.17507037 165.8089411 378.16155316 162.1953125 378.14648438 C155.13005385 378.11450061 148.06505214 378.06343099 141 378 C138.04525216 368.71449134 135.21851004 359.42887366 132.75 350 C129.95477287 339.46617801 127.03119535 328.97240475 124.05386353 318.48898315 C121.24922157 308.59976165 118.58919673 298.68012806 116.00280762 288.73178101 C109.73471216 256.37571071 109.73471216 256.37571071 93.20703125 229.703125 C89.59330844 227.78402251 87.37543181 227.49171722 83.3125 227.5625 C82.19488281 227.56378906 81.07726562 227.56507813 79.92578125 227.56640625 C77.01941424 227.76054518 77.01941424 227.76054518 75.17578125 229.36328125 C69.47203599 237.30304625 70.83916639 249.84814271 70.79467773 259.13891602 C70.78477814 260.42770157 70.77487854 261.71648712 70.76467896 263.04432678 C70.73784061 266.55192717 70.71671817 270.05954072 70.69667697 273.56718564 C70.67468609 277.24272589 70.64736201 280.91822654 70.62062073 284.59373474 C70.57086982 291.54202605 70.52586631 298.49033954 70.48259836 305.43867391 C70.4238013 314.83630578 70.35760992 324.23388545 70.29184818 333.63147068 C70.18854912 348.42094518 70.09507703 363.21046506 70 378 C46.9 378 23.8 378 0 378 C-0.77280611 344.76933733 -1.08537853 311.57655425 -1.06438637 278.33946419 C-1.06246433 275.00053523 -1.06145447 271.66160701 -1.06065369 268.32267761 C-1.0461661 216.68647262 -0.81483014 165.05135498 -0.55461836 113.41589785 C-0.49209288 100.98833625 -0.43260344 88.56076053 -0.37324238 76.13318348 C-0.25196249 50.75543991 -0.12727126 25.37771419 0 0 Z " fill="#FEFEFE" transform="translate(884,54)"/>
<path d="M0 0 C75.24 0 150.48 0 228 0 C228 20.52261224 228 20.52261224 227.28515625 27.04052734 C226.90291112 31.00762962 226.70218949 34.97720443 226.5 38.95703125 C226.43824585 40.15487747 226.43824585 40.15487747 226.37524414 41.37692261 C226.20536914 44.698964 226.03908162 48.02117345 225.875 51.34350586 C225.75294601 53.79817365 225.6266893 56.25259897 225.5 58.70703125 C225.46455078 59.45088577 225.42910156 60.1947403 225.39257812 60.96113586 C225.18001052 65.03916488 224.7579818 68.98703908 224 73 C216.92005579 73.91354119 209.95465943 74.19270209 202.8203125 74.28125 C201.6541037 74.29965942 200.4878949 74.31806885 199.28634644 74.33703613 C195.56594575 74.39539633 191.84549753 74.44821215 188.125 74.5 C183.27337661 74.56931816 178.42182282 74.64191498 173.5703125 74.71875 C172.35594009 74.73780899 171.14156769 74.75686798 169.89039612 74.77650452 C161.76583706 74.91713532 153.65363562 75.18923981 145.53515625 75.52734375 C131.12529528 76.11510353 116.73226014 76.11152467 102.3125 76.0625 C93.629375 76.041875 84.94625 76.02125 76 76 C76 101.08 76 126.16 76 152 C98.77 152 121.54 152 145 152 C145 177.08 145 202.16 145 228 C122.23 228 99.46 228 76 228 C76 253.08 76 278.16 76 304 C125.83 304 175.66 304 227 304 C227 328.75 227 353.5 227 379 C152.09 379 77.18 379 0 379 C0 253.93 0 128.86 0 0 Z " fill="#FDFDFD" transform="translate(1137,53)"/>
<path d="M0 0 C74.91 0 149.82 0 227 0 C227 9.70771781 226.88644868 19.26258842 226.34375 28.93359375 C226.27716187 30.1775441 226.21057373 31.42149445 226.14196777 32.70314026 C225.93172717 36.61480705 225.71596879 40.52614574 225.5 44.4375 C225.35464802 47.11519027 225.21051223 49.79294555 225.06640625 52.47070312 C224.71514423 58.98070267 224.35937109 65.49044333 224 72 C217.10068315 73.03744388 210.30203196 73.19955977 203.33203125 73.28125 C202.10256271 73.29965942 200.87309418 73.31806885 199.60636902 73.33703613 C195.6751259 73.39549951 191.74383687 73.44825598 187.8125 73.5 C182.69395322 73.56934032 177.57547235 73.64199625 172.45703125 73.71875 C171.17266678 73.73780899 169.88830231 73.75686798 168.5650177 73.77650452 C159.88149919 73.91836949 151.20920231 74.19168801 142.53125 74.52734375 C127.24592406 75.10642708 111.98170842 75.11194201 96.6875 75.0625 C87.550625 75.041875 78.41375 75.02125 69 75 C69 100.08 69 125.16 69 151 C94.08 151 119.16 151 145 151 C145 171.57174296 145 171.57174296 144.25390625 179.12988281 C143.76128916 184.69835063 143.66592279 190.28893282 143.5 195.875 C143.42968513 198.22664174 143.3567682 200.57820711 143.28125 202.9296875 C143.25095703 203.95304199 143.22066406 204.97639648 143.18945312 206.03076172 C142.90319715 212.02811951 142.44441394 218.01255467 142 224 C134.6970492 224.39588656 127.39387399 224.78733754 120.09039974 225.17345428 C116.69743849 225.35296455 113.30456561 225.53388144 109.91186523 225.71826172 C105.99221557 225.93052493 102.07231882 226.13759388 98.15234375 226.34375 C96.96108383 226.40937134 95.76982391 226.47499268 94.54246521 226.54260254 C85.99196592 226.98530168 77.59138094 227 69 227 C69 252.08 69 277.16 69 303 C82.6125 302.9690625 82.6125 302.9690625 96.5 302.9375 C101.99619272 302.93274204 107.49212747 302.93049595 112.98828125 302.9375 C114.23516724 302.93709717 115.48205322 302.93669434 116.76672363 302.9362793 C127.77650109 302.95122228 138.7699321 303.25867265 149.77175331 303.65470314 C158.56144424 303.97010244 167.35022174 304.15815681 176.14453125 304.2890625 C177.60518576 304.31193001 179.0658384 304.33491712 180.52648926 304.35801697 C185.01762605 304.42846457 189.50880709 304.49574019 194 304.5625 C195.494334 304.58486291 196.9886679 304.60723226 198.48300171 304.62960815 C206.98861771 304.75661352 215.49428168 304.88002201 224 305 C224.02312545 314.10959165 224.04091612 323.21917326 224.05181217 332.3287878 C224.05704056 336.55831371 224.0641374 340.7878196 224.07543945 345.01733398 C224.08626991 349.09568543 224.09227717 353.17401757 224.09487724 357.25238228 C224.09673121 358.81177639 224.10035127 360.3711694 224.10573006 361.93055534 C224.11294262 364.10729162 224.11399085 366.28394714 224.11352539 368.46069336 C224.115746 369.70201523 224.11796661 370.9433371 224.12025452 372.22227478 C224 375 224 375 223 376 C220.80106532 376.11912271 218.5982897 376.16749608 216.39624023 376.18945312 C215.70152839 376.19776909 215.00681654 376.20608505 214.29105282 376.21465302 C211.9635921 376.24142362 209.63612175 376.26125339 207.30859375 376.28125 C205.67216468 376.298995 204.03574089 376.31723319 202.39932251 376.3359375 C198.90589562 376.37509561 195.41245558 376.41144134 191.91897583 376.44555664 C183.64802564 376.52663861 175.37723991 376.62228015 167.10645103 376.71824646 C165.27662022 376.73945786 163.44678749 376.76050416 161.6169529 376.78138733 C148.09578115 376.93623737 134.58089319 377.17450069 121.0625 377.5 C80.71326473 378.30497227 40.35507478 378.57963464 0 379 C0 253.93 0 128.86 0 0 Z " fill="#FEFEFE" transform="translate(304,54)"/>
<path d="M0 0 C4.54992243 1.01109387 6.99421644 2.43758986 10 6 C18.16786384 22.33572767 7.15764366 54.22865563 3.40625 71.3125 C2.09843856 77.34947784 1.0917249 83.37355118 0.3125 89.5 C0.18657471 90.48540771 0.06064941 91.47081543 -0.0690918 92.48608398 C-2.488075 108.31638771 -2.488075 108.31638771 2.37890625 122.89453125 C5.39992392 124.95464691 9.51846483 123.47615113 13 123 C18.56199945 122.24494362 22.99912403 121.72844061 27.8828125 124.83203125 C32.04041462 128.48659988 35.4089822 132.07458277 38 137 C38 137.66 38 138.32 38 139 C38.99 139.33 39.98 139.66 41 140 C41.70125 140.721875 42.4025 141.44375 43.125 142.1875 C49.0616912 148.28320971 55.29098797 151.31172295 63.48046875 153.3046875 C66.97124285 154.26803291 69.30949428 155.57854485 72 158 C81.16914476 176.02211212 73.92422763 199.03840953 68.1484375 217.2734375 C67.337318 219.9054375 66.61511077 222.48211667 65.96875 225.15234375 C65.18010215 228.28467493 64.28172052 231.18098262 63.125 234.1875 C59.95300166 242.7166511 57.43344821 251.42328418 55 260.1875 C53.62944469 265.03510614 52.0094396 269.61348542 50.06640625 274.25390625 C47.68974924 280.37401569 45.90589507 286.72012207 44 293 C43.2926171 295.31279091 42.58435904 297.62531443 41.875 299.9375 C41.43800781 301.37416016 41.43800781 301.37416016 40.9921875 302.83984375 C40.1666502 305.46921256 39.31151809 308.08389078 38.43798828 310.69750977 C38.16850372 311.50430679 37.89901917 312.31110382 37.62136841 313.14234924 C37.41631683 313.75537399 37.21126526 314.36839874 37 315 C22.66557925 315.04679867 8.33117041 315.08189419 -6.00331116 315.10362434 C-12.65962744 315.11405453 -19.31587868 315.1281999 -25.97216797 315.15087891 C-32.39771021 315.17263433 -38.82320307 315.18457439 -45.2487793 315.18975449 C-47.69833147 315.19344537 -50.14788099 315.20065273 -52.59741211 315.21146011 C-56.0324484 315.22601069 -59.46728152 315.22797642 -62.90234375 315.22705078 C-63.91151352 315.23424133 -64.92068329 315.24143188 -65.96043396 315.24884033 C-72.49603428 315.2298254 -78.51892649 314.83629444 -84.4140625 311.7265625 C-86.55705219 309.39355402 -86.82201327 307.47653425 -87.375 304.375 C-90.65154091 289.87456362 -103.15902167 279.63257109 -113.47851562 269.64575195 C-115.02204998 268.13341941 -116.51587801 266.57067818 -118 265 C-118 264.34 -118 263.68 -118 263 C-118.598125 262.896875 -119.19625 262.79375 -119.8125 262.6875 C-122.37274086 261.88285287 -123.1497925 260.91262414 -125 259 C-127.07385253 257.22471768 -129.16252005 255.46866457 -131.2578125 253.71875 C-133 252 -133 252 -134 249 C-135.31984368 248.30701018 -136.65590322 247.64469067 -138 247 C-145.24618961 240.90570005 -151.9693846 233.09184619 -155 224 C-155.62589819 214.47813903 -156.22176541 204.41110716 -151 196 C-148.36431461 193.81294191 -147.09893118 193.05483901 -144 192 C-142.64068359 191.51853516 -142.64068359 191.51853516 -141.25390625 191.02734375 C-130.74072298 187.57544962 -119.84834954 185.14512084 -109 183 C-109.48084784 169.18073003 -110.72670889 155.63045849 -112.625 141.9375 C-112.89058573 139.97778891 -113.15612839 138.01807198 -113.42163086 136.05834961 C-115.37586609 121.79714486 -117.63679533 107.59493506 -120.00744629 93.39785767 C-122.18653592 80.3333832 -124.15284935 67.25776126 -125.875 54.125 C-125.97845734 53.34375763 -126.08191467 52.56251526 -126.18850708 51.75759888 C-127.75293263 39.88077102 -129.09494656 27.99079924 -129.25 16 C-129.27578125 14.783125 -129.3015625 13.56625 -129.328125 12.3125 C-128.96962637 8.693371 -128.16904359 6.88343027 -126 4 C-121.29662151 0.502616 -116.54662537 0.61286922 -110.90234375 0.50390625 C-107.18124567 1.13994859 -105.71088611 2.39125853 -103 5 C-101.76196289 7.86645508 -101.76196289 7.86645508 -100.91015625 11.20703125 C-100.42893311 13.07609131 -100.42893311 13.07609131 -99.93798828 14.98291016 C-99.62091322 16.32090216 -99.30830728 17.65996051 -99 19 C-98.84762878 19.66143005 -98.69525757 20.32286011 -98.53826904 21.0043335 C-97.43303821 25.88445267 -96.42593315 30.78260257 -95.4375 35.6875 C-95.20963806 36.80360657 -95.20963806 36.80360657 -94.97717285 37.94226074 C-93.07451971 47.26351101 -91.30510796 56.58165574 -89.91943359 65.99584961 C-89.11787551 71.43161017 -88.01121601 76.75054007 -86.80859375 82.109375 C-85.78126323 87.05247259 -84.95898872 92.02124005 -84.125 97 C-82.62472653 105.90406804 -80.788467 114.68289838 -78.71972656 123.47119141 C-77.5987659 128.25844541 -76.60764034 133.00904709 -75.875 137.875 C-75.26851981 141.87433636 -74.28299049 145.3293584 -72.71484375 149.05078125 C-71.63625888 151.99184054 -71.19103956 155.02693438 -70.72265625 158.1171875 C-70.14942528 160.1658136 -70.14942528 160.1658136 -68.12109375 161.20703125 C-65.34860358 162.24352389 -62.96301803 162.81481137 -60 163 C-55.84919645 160.77193448 -54.28924473 157.19558183 -52.4375 153.0625 C-52.13086426 152.38936768 -51.82422852 151.71623535 -51.50830078 151.02270508 C-49.3767733 146.19676685 -47.86741503 141.43810856 -46.73828125 136.27734375 C-45.66911793 131.53116372 -44.31143443 126.87314129 -42.97607422 122.19604492 C-38.65535211 106.87214292 -35.42003391 91.44288488 -32.4375 75.8125 C-31.66837425 71.79759303 -30.89644692 67.7832403 -30.12109375 63.76953125 C-29.93667221 62.81482437 -29.75225067 61.86011749 -29.5622406 60.8764801 C-28.37448648 54.78102461 -27.07366435 48.73160179 -25.63256836 42.69067383 C-24.853571 39.37715398 -24.18197219 36.04772666 -23.51757812 32.7097168 C-16.66961854 -1.48232177 -16.66961854 -1.48232177 0 0 Z " fill="#000100" transform="translate(744,85)"/>
<path d="M0 0 C22.77 0 45.54 0 69 0 C69 99.99 69 199.98 69 303 C104.64 303 140.28 303 177 303 C177 327.75 177 352.5 177 378 C118.59 378 60.18 378 0 378 C0 253.26 0 128.52 0 0 Z " fill="#FEFEFE" transform="translate(1396,54)"/>
<path d="M0 0 C1.051875 0.45375 2.10375 0.9075 3.1875 1.375 C18.0152393 9.94213826 23.68795212 28.58365843 28.04101562 44.05493164 C29.8482933 51.1109744 30.68063106 58.35159079 31.625 65.5625 C31.82976531 67.07500059 32.03549161 68.5873714 32.2421875 70.09960938 C32.54498583 72.31759431 32.84740199 74.53561857 33.14718628 76.75401306 C34.53771067 87.03198981 36.00764745 97.0454405 39 107 C40.32 107 41.64 107 43 107 C43.23074219 106.06542969 43.46148438 105.13085938 43.69921875 104.16796875 C44.02837134 102.84107771 44.35782463 101.51426125 44.6875 100.1875 C44.86466553 99.47335938 45.04183105 98.75921875 45.22436523 98.0234375 C46.20513311 94.0952777 47.21365848 90.17716395 48.2734375 86.26953125 C50.61580667 77.6204419 52.6168524 69.06169586 54.1953125 60.23828125 C60.46259429 26.28914835 60.46259429 26.28914835 71 14 C71.57621094 13.20980469 72.15242187 12.41960937 72.74609375 11.60546875 C75.50680094 8.41414866 78.54589575 6.20074572 82 3.8125 C82.61617187 3.37486328 83.23234375 2.93722656 83.8671875 2.48632812 C90.80056687 -2.38637948 95.45476233 -4.36349103 104 -3 C113.23635728 0.52587016 123.40733385 5.57476711 129 14 C132.22541666 23.26079818 132.45161872 32.67379757 132.3125 42.375 C132.30110391 43.79239907 132.28971072 45.20979815 132.27832031 46.62719727 C132.08352969 64.08558659 130.282882 80.97775527 127.33007812 98.17333984 C125.99641941 106.21233823 125.5236503 113.86235929 126 122 C127.093125 122.04125 128.18625 122.0825 129.3125 122.125 C139.56152599 123.4555753 152.4788279 132.41492544 159.6875 139.70703125 C161.08415269 141.2727711 161.08415269 141.2727711 164 142 C164 142.66 164 143.32 164 144 C164.59006836 144.27239502 165.18013672 144.54479004 165.78808594 144.82543945 C167.94780407 145.97228315 169.56017917 147.18271696 171.390625 148.79296875 C172.32551758 149.60967041 172.32551758 149.60967041 173.27929688 150.44287109 C173.92962891 151.01859863 174.57996094 151.59432617 175.25 152.1875 C175.92095703 152.77611816 176.59191406 153.36473633 177.28320312 153.97119141 C178.60491627 155.13105559 179.92527543 156.29246488 181.24414062 157.45556641 C183.31591207 159.2778726 185.40829671 161.07564106 187.5 162.875 C201.85010045 175.50932757 201.85010045 175.50932757 203 184 C203.08846618 201.85247508 199.32737746 218.61861383 194.625 235.75 C194.2235376 237.22073975 194.2235376 237.22073975 193.81396484 238.72119141 C191.97976611 245.18420187 189.74905496 251.44769677 187.3507843 257.71800232 C184.66627023 264.77898002 182.31682474 271.93656483 180.01245117 279.12915039 C179.30672359 281.33051829 178.59419766 283.52960353 177.88085938 285.72851562 C173.98399569 297.78694423 170.70132049 309.70805628 168.4375 322.1875 C168.22061523 323.36554199 168.00373047 324.54358398 167.78027344 325.75732422 C166.36194329 333.60118493 165.19025387 341.42497808 164.359375 349.3515625 C164 352 164 352 163 353 C161.51298267 353.1175098 160.02054111 353.16728241 158.52905273 353.18945312 C157.57131454 353.20617065 156.61357635 353.22288818 155.6268158 353.2401123 C154.04617088 353.26047546 154.04617088 353.26047546 152.43359375 353.28125 C151.33451187 353.29965942 150.23542999 353.31806885 149.1030426 353.33703613 C145.54791836 353.39597095 141.99273789 353.44841542 138.4375 353.5 C133.85280965 353.56974648 129.26818558 353.64280497 124.68359375 353.71875 C123.4963974 353.73817154 122.30920105 353.75759308 121.08602905 353.77760315 C112.35708577 353.9312538 103.63520268 354.19779951 94.91015625 354.49609375 C75.87459942 355.13352224 56.8349594 355.32847206 37.79064941 355.53222656 C33.05571861 355.58359189 28.32083076 355.63866053 23.5859375 355.69335938 C14.39066216 355.79906912 5.1953486 355.90088214 -4 356 C-4.01261871 355.43308945 -4.02523743 354.86617889 -4.03823853 354.28208923 C-4.10554205 351.67563003 -4.19713812 349.07054625 -4.2890625 346.46484375 C-4.308479 345.57325562 -4.32789551 344.68166748 -4.34790039 343.76306152 C-4.98429819 327.43758624 -18.00978387 314.97246134 -29 304 C-30.34497402 302.48945153 -31.67892231 300.96899128 -33 299.4375 C-35.79734582 296.24810193 -38.65258428 293.61516853 -42 291 C-42 290.34 -42 289.68 -42 289 C-42.99 288.67 -43.98 288.34 -45 288 C-46.25106957 286.55139313 -47.49699773 285.09723133 -48.69140625 283.6015625 C-51.15304471 280.58881095 -54.00799694 277.95138225 -56.8125 275.26171875 C-66.96752903 265.36453225 -78.93791546 252.68392674 -79.29272461 237.84399414 C-79.35918318 229.75656044 -79.14199644 223.16883999 -75 216 C-74.50242187 215.11183594 -74.00484375 214.22367188 -73.4921875 213.30859375 C-66.52661389 201.66150671 -56.80313514 190.29676827 -44 185 C-40.3515625 184.70703125 -40.3515625 184.70703125 -36.625 184.8125 C-35.37976563 184.83957031 -34.13453125 184.86664063 -32.8515625 184.89453125 C-31.91054688 184.92933594 -30.96953125 184.96414062 -30 185 C-31.61237569 171.42030283 -33.63511376 157.9577031 -36.01782227 144.4921875 C-37.94322442 133.53342229 -39.62313843 122.54606451 -41.26074219 111.54125977 C-42.30495729 104.53317539 -43.39534588 97.54045659 -44.625 90.5625 C-54.89477626 31.51128653 -54.89477626 31.51128653 -45.30859375 14.83203125 C-35.0269548 0.43773672 -16.69800054 -7.82606073 0 0 Z M87.25390625 25.78515625 C84.20735308 31.1664511 82.41130661 36.62823929 81 42.625 C80.74682007 43.67204102 80.74682007 43.67204102 80.48852539 44.74023438 C79.98646324 46.82546743 79.49309132 48.91263097 79 51 C78.59587891 52.66675781 78.59587891 52.66675781 78.18359375 54.3671875 C76.7174692 60.52337542 75.46999843 66.69680509 74.33789062 72.92260742 C72.76010552 81.48929979 70.9452749 90.00846825 69.15698242 98.53320312 C68.01797585 103.98392627 66.90361517 109.43119301 65.9296875 114.9140625 C63.83116813 126.67287731 60.46638809 138.19693815 57.2109375 149.6796875 C56.44995715 152.36626867 55.73109169 155.05158454 55.0390625 157.7578125 C49.4745935 179.01693767 49.4745935 179.01693767 42 184 C38.27272698 183.68278527 35.15384505 183.03685826 32 181 C31.27734375 179.1171875 31.27734375 179.1171875 30.9375 176.875 C30.38326206 173.78990563 29.71686589 171.07528621 28.5 168.1875 C26.89913353 164.10608301 26.30702184 160.08392837 25.65625 155.76171875 C24.82952174 151.02279425 23.72696271 146.36878867 22.625 141.6875 C20.56039119 132.84981886 18.8795873 123.99288289 17.37939453 115.04345703 C16.53416823 110.01757842 15.62130675 105.03603801 14.5 100.0625 C13.18248449 94.15470438 12.20544335 88.22398848 11.25 82.25 C9.68165794 72.58822876 7.89303352 62.97927445 5.95544434 53.38562012 C5.65535795 51.89612673 5.35848416 50.40598195 5.06506348 48.91516113 C3.02327303 34.87396263 3.02327303 34.87396263 -3.95166016 23.26367188 C-8.11980317 20.69224062 -13.28568289 21.53929699 -18 22 C-21.70532057 23.23510686 -23.32450567 24.09018347 -25.6328125 27.19921875 C-29.321683 34.75613346 -27.0526555 45.43836225 -26.15625 53.66015625 C-26.06865921 54.47538254 -25.98106842 55.29060883 -25.89082336 56.13053894 C-24.80473036 66.04350881 -23.5107305 75.92883852 -22.1875 85.8125 C-22.0571637 86.79178467 -21.92682739 87.77106934 -21.7925415 88.7800293 C-20.01672096 102.08261808 -18.04855625 115.32412883 -15.76123047 128.54858398 C-13.67761066 140.64830472 -12.00422067 152.79550137 -10.40234375 164.96728516 C-10.06154341 167.53610911 -9.70723611 170.10228591 -9.34375 172.66796875 C-7.92233035 183.08822901 -7.40880363 193.50020146 -7 204 C-11.45726144 205.00427774 -15.91554587 205.99143644 -20.39453125 206.89453125 C-36.75219884 209.83574851 -36.75219884 209.83574851 -50 219 C-54.40698836 226.41623788 -54.01153363 236.69499606 -53 245 C-50.71034137 253.98903018 -43.31811116 260.5743049 -37 267 C-36.43539062 267.60972656 -35.87078125 268.21945312 -35.2890625 268.84765625 C-34.03966106 270.22215487 -34.03966106 270.22215487 -32 270 C-31.73832031 270.598125 -31.47664062 271.19625 -31.20703125 271.8125 C-29.92949773 274.12777111 -28.72350663 275.33869082 -26.6875 277 C-26.06875 277.50789063 -25.45 278.01578125 -24.8125 278.5390625 C-24.214375 279.02117187 -23.61625 279.50328125 -23 280 C-22.071875 280.78375 -21.14375 281.5675 -20.1875 282.375 C-18.18659016 284.19877467 -18.18659016 284.19877467 -16 284 C-15.75540039 284.57274658 -15.51080078 285.14549316 -15.25878906 285.7355957 C-13.7804233 288.39499105 -12.05341233 290.12323734 -9.859375 292.23046875 C-9.03566406 293.03419922 -8.21195313 293.83792969 -7.36328125 294.66601562 C-5.63894334 296.32978262 -3.91242418 297.99129232 -2.18359375 299.65039062 C3.01617233 304.73289915 7.20485801 309.80527551 11 316 C11.5775 316.804375 12.155 317.60875 12.75 318.4375 C14.04821306 321.09883678 14.37541544 323.15143198 14.8125 326.0625 C15.51052277 329.93912235 15.7394965 330.7572581 18.75 333.5625 C25.27204136 336.44724907 31.86727675 336.13829899 38.87060547 336.11352539 C39.95412796 336.11367142 41.03765045 336.11381744 42.15400696 336.1139679 C45.72508771 336.11327284 49.29611589 336.10549947 52.8671875 336.09765625 C55.34725923 336.09579063 57.82733133 336.0943674 60.30740356 336.09336853 C66.82740297 336.08955474 73.34738002 336.07973414 79.86737061 336.06866455 C86.52355528 336.05788405 93.17974647 336.05386567 99.8359375 336.04882812 C112.89063453 336.03811087 125.94531607 336.02124096 139 336 C139.48187185 334.5593602 139.96331634 333.11857744 140.44458008 331.67773438 C140.71273026 330.87541382 140.98088043 330.07309326 141.25715637 329.24645996 C142.10726147 326.67562675 142.90594808 324.09246492 143.6875 321.5 C145.75639609 314.73198334 147.90579409 307.99050338 150.0625 301.25 C150.4030542 300.18458984 150.7436084 299.11917969 151.09448242 298.02148438 C153.74923404 289.73612668 156.43310004 281.47855759 159.4375 273.3125 C161.62209744 267.25221614 163.43324018 261.1802046 165.10546875 254.9609375 C166 252 166 252 166.99609375 250.0546875 C168.44698498 247.08515914 169.1158944 243.94897755 169.875 240.75 C170.22361066 239.31111364 170.5725792 237.87231395 170.921875 236.43359375 C171.09912109 235.69866699 171.27636719 234.96374023 171.45898438 234.20654297 C171.97999612 232.0815862 172.52393053 229.9641753 173.078125 227.84765625 C179.62382577 204.20396697 179.62382577 204.20396697 175 181 C171.11203331 176.41419313 167.70417262 174.15145811 161.8125 173.25 C155.15335328 171.85673537 149.81881681 168.02185024 145.125 163.1875 C143.11496449 160.78269484 143.11496449 160.78269484 140 160 C139.7525 159.319375 139.505 158.63875 139.25 157.9375 C136.90340759 152.42300784 132.16412816 147.08900143 127 144 C124.2592319 143.59990903 124.2592319 143.59990903 121.3125 143.75 C119.72888672 143.7809375 119.72888672 143.7809375 118.11328125 143.8125 C115.35893944 143.97838257 112.72173544 144.31668889 110 144.75 C106.81949362 145.15332508 106.31503056 145.20476986 103.5 143.375 C94.80804043 129.61273068 103.29491601 101.71830358 106.4375 87.0625 C111.59450919 63.15258657 111.59450919 63.15258657 113.4375 38.8125 C113.4475708 37.89774902 113.4576416 36.98299805 113.46801758 36.04052734 C113.40407051 31.24132276 113.17707039 27.84986177 110 24 C106.88267271 21.92178181 105.63895363 21.46454727 102 21 C101.22914063 20.89945313 100.45828125 20.79890625 99.6640625 20.6953125 C93.69098881 20.24688354 90.91116474 20.97067567 87.25390625 25.78515625 Z " fill="#79CEA0" transform="translate(642,64)"/>
<path d="M0 0 C55.30364372 0 55.30364372 0 68 7 C74.62648605 13.62648605 73.96230603 27.86379124 74.66796875 36.83203125 C74.73089804 37.60801981 74.79382732 38.38400837 74.85866356 39.18351173 C76.68827286 62.44269857 76.4108708 85.77346138 76.3225708 109.08703613 C76.30913955 113.8889123 76.31441287 118.69069581 76.3194294 123.49258232 C76.33611749 144.55509233 76.34979887 165.61218 75.10546875 186.64453125 C74.98961174 188.61361702 74.98961174 188.61361702 74.87141418 190.6224823 C73.21343356 215.05207718 73.21343356 215.05207718 68 221 C50.82445237 232.77648308 16.63566292 228 0 228 C0 152.76 0 77.52 0 0 Z " fill="#010101" transform="translate(120,129)"/>
<path d="M0 0 C174.9 0 349.8 0 530 0 C530 5.94 530 11.88 530 18 C355.1 18 180.2 18 0 18 C0 12.06 0 6.12 0 0 Z " fill="#FEFEFE" transform="translate(1043,591)"/>
<path d="M0 0 C172.92 0 345.84 0 524 0 C524 5.94 524 11.88 524 18 C351.08 18 178.16 18 0 18 C0 12.06 0 6.12 0 0 Z " fill="#FEFEFE" transform="translate(0,591)"/>
<path d="M0 0 C6.73493455 4.26177826 11.0595296 9.1105324 15 16 C15.5775 16.969375 16.155 17.93875 16.75 18.9375 C22.72504823 33.57636815 21.50184403 51.45666403 16 66 C15.73445312 66.76828125 15.46890625 67.5365625 15.1953125 68.328125 C13.72593869 72.10651481 11.8634117 75.2412917 9.41796875 78.4609375 C3.90559599 85.29342852 3.90559599 85.29342852 2.01953125 93.52734375 C2.80593964 96.48984112 3.81152282 99.18082157 5 102 C5 102.99 5 103.98 5 105 C2.23174812 106.17314026 -0.53928486 107.33870215 -3.3125 108.5 C-4.09818359 108.83386719 -4.88386719 109.16773438 -5.69335938 109.51171875 C-6.45068359 109.82753906 -7.20800781 110.14335938 -7.98828125 110.46875 C-8.68477783 110.76201172 -9.38127441 111.05527344 -10.09887695 111.35742188 C-12 112 -12 112 -15 112 C-15.67528223 110.42032193 -16.33989694 108.83608097 -17 107.25 C-17.37125 106.36828125 -17.7425 105.4865625 -18.125 104.578125 C-19 102 -19 102 -19 98 C-19.79921875 98.02320313 -20.5984375 98.04640625 -21.421875 98.0703125 C-32.51251565 98.25255307 -42.26329852 97.61732778 -52 92 C-52 91.34 -52 90.68 -52 90 C-52.5775 89.93683594 -53.155 89.87367188 -53.75 89.80859375 C-59.29307219 87.81655218 -62.79980227 80.33884687 -65.37109375 75.328125 C-67.50384071 70.2970296 -68.77133019 65.47048548 -69 60 C-69.07476563 58.84757813 -69.14953125 57.69515625 -69.2265625 56.5078125 C-70.06811927 38.14449497 -63.22665126 22.81853566 -51.34375 9.0859375 C-39.01320324 -4.1170536 -16.15451906 -10.00041656 0 0 Z " fill="#FBFBFB" transform="translate(714,556)"/>
<path d="M0 0 C2.24095594 -0.00958083 4.48094409 -0.0405384 6.72167969 -0.07226562 C20.20550167 -0.17397225 30.66289707 1.52360379 41.40917969 10.24023438 C42.14265625 10.78808594 42.87613281 11.3359375 43.63183594 11.90039062 C53.33707306 19.57387718 55.94439891 30.33144758 57.40917969 42.24023438 C57.78298774 49.0494879 57.14255472 55.44554111 55.78417969 62.11523438 C55.60959229 62.98148438 55.43500488 63.84773437 55.25512695 64.74023438 C53.37851668 73.37795961 50.22715236 81.42894929 44.40917969 88.24023438 C43.74917969 88.24023438 43.08917969 88.24023438 42.40917969 88.24023438 C41.91417969 89.72523438 41.91417969 89.72523438 41.40917969 91.24023438 C28.62249634 101.29265839 12.18546567 103.37729196 -3.52832031 103.49023438 C-4.440896 103.49958008 -5.35347168 103.50892578 -6.29370117 103.51855469 C-15.25827524 103.47539592 -15.25827524 103.47539592 -18.59082031 101.24023438 C-19.47431224 97.95110667 -19.71784268 94.84083394 -19.71923828 91.44677734 C-19.72061798 90.51882355 -19.72199768 89.59086975 -19.72341919 88.63479614 C-19.71833344 87.63576263 -19.71324768 86.63672913 -19.70800781 85.60742188 C-19.70493622 84.55303925 -19.70186462 83.49865662 -19.69869995 82.412323 C-19.63447651 71.19239521 -19.27986359 59.98540428 -18.84619141 48.77441406 C-18.71510778 45.3466017 -18.5960074 41.91850332 -18.47753906 38.49023438 C-18.11443821 28.52724088 -17.67921787 18.58897887 -16.64550781 8.66992188 C-16.57131622 7.9201004 -16.49712463 7.17027893 -16.42068481 6.3977356 C-16.22015072 4.6680417 -15.91642547 2.95080041 -15.59082031 1.24023438 C-11.10799416 -1.0011787 -4.98594744 0.01286696 0 0 Z " fill="#FBFBFB" transform="translate(944.5908203125,551.759765625)"/>
<path d="M0 0 C2.1875 2.4375 2.1875 2.4375 4 5 C5.17949219 6.12535156 5.17949219 6.12535156 6.3828125 7.2734375 C14.18315803 15.39976761 17.30088039 25.44950817 18.3125 36.375 C17.08814879 50.577474 11.53683891 62.37121387 1 72 C-1.88221498 73.98478725 -4.829602 75.53166822 -8 77 C-9.0725 77.5775 -10.145 78.155 -11.25 78.75 C-20.68318154 83.03780979 -34.34647707 82.40675616 -44 79.0625 C-53.23178627 74.94137473 -60.79071935 67.62545579 -66 59 C-66.48597656 58.19820313 -66.97195313 57.39640625 -67.47265625 56.5703125 C-72.81053179 46.07298622 -72.51722988 33.48752948 -70.21875 22.14453125 C-66.55042379 11.1788561 -58.53102003 3.16330648 -49.0078125 -3.07421875 C-47 -4 -47 -4 -43 -4 C-43 -4.66 -43 -5.32 -43 -6 C-28.86422831 -10.52344694 -12.40773253 -8.39528171 0 0 Z " fill="#060606" transform="translate(1573,17)"/>
<path d="M0 0 C7.26 -0.04125 14.52 -0.0825 22 -0.125 C24.25585938 -0.14320801 26.51171875 -0.16141602 28.8359375 -0.18017578 C64.66230169 -0.35305526 64.66230169 -0.35305526 76.22265625 9.98828125 C83.1113569 17.78538198 82.55014897 29.23226075 82 39 C81.08597245 48.87677542 79.28812654 56.79024041 72 64 C71.02933594 65.02673828 71.02933594 65.02673828 70.0390625 66.07421875 C57.31720498 78.0893064 35.60562565 76.40987979 19.4375 76.1875 C9.8159375 76.0946875 9.8159375 76.0946875 0 76 C0 50.92 0 25.84 0 0 Z " fill="#020202" transform="translate(954,129)"/>
<path d="M0 0 C3.78827351 5.58098876 5.36789479 13.01146703 7.1875 19.4375 C7.62642578 20.96213867 7.62642578 20.96213867 8.07421875 22.51757812 C11.08856035 33.0991731 13.86454485 43.74444776 16.64746094 54.38867188 C19.18189114 64.05768646 21.86326558 73.6701918 24.79296875 83.22851562 C26.66192481 89.42630374 27.96436091 95.61062043 29 102 C21.20278021 105.6692799 12.35574497 106.51483586 4 104 C3.32678716 101.75194998 2.66165877 99.50147776 2 97.25 C1.62875 95.99703125 1.2575 94.7440625 0.875 93.453125 C0 90 0 90 0 86 C-8.58 86.99 -17.16 87.98 -26 89 C-26.99 92.3 -27.98 95.6 -29 99 C-29.55169778 100.71185238 -30.11051011 102.42150603 -30.6875 104.125 C-30.93886719 104.87007812 -31.19023438 105.61515625 -31.44921875 106.3828125 C-31.63097656 106.91648437 -31.81273437 107.45015625 -32 108 C-40.59141782 108.43995881 -47.46853452 108.46309065 -55 104 C-54.39858321 100.66907622 -53.58513825 97.60560905 -52.3984375 94.4375 C-52.07641357 93.56818848 -51.75438965 92.69887695 -51.42260742 91.80322266 C-51.07689697 90.87815918 -50.73118652 89.9530957 -50.375 89 C-47.20041011 80.40248224 -44.19513974 71.76574121 -41.34716797 63.0546875 C-39.68508562 57.98468038 -37.90741023 52.98241721 -36 48 C-34.51753395 44.08457704 -33.04010593 40.16725912 -31.5625 36.25 C-31.18029297 35.24195313 -30.79808594 34.23390625 -30.40429688 33.1953125 C-28.45720172 28.02509719 -26.60012416 22.84646662 -24.88671875 17.59375 C-23.58902032 13.64874677 -22.19824537 9.93001903 -20.25 6.25 C-19.82203125 5.43015625 -19.3940625 4.6103125 -18.953125 3.765625 C-18.48132813 2.89164063 -18.48132813 2.89164063 -18 2 C-17.34 2 -16.68 2 -16 2 C-16 1.34 -16 0.68 -16 0 C-10.83126022 -1.25302783 -5.06542662 -1.95003089 0 0 Z " fill="#FBFBFB" transform="translate(888,549)"/>
<path d="M0 0 C0.99644531 -0.00257813 1.99289062 -0.00515625 3.01953125 -0.0078125 C6.46116872 0.13647316 9.78695046 0.58739744 13.1875 1.125 C13.04719417 4.79189972 12.89924579 8.45845412 12.75 12.125 C12.71068359 13.15496094 12.67136719 14.18492187 12.63085938 15.24609375 C12.58896484 16.25800781 12.54707031 17.26992188 12.50390625 18.3125 C12.46724854 19.23417969 12.43059082 20.15585937 12.39282227 21.10546875 C12.18915641 24.10064029 11.81034622 27.0513087 11.42353821 30.02731323 C11.03018557 33.52306349 10.91232907 37.0207769 10.80078125 40.53515625 C10.76249458 41.69186073 10.76249458 41.69186073 10.72343445 42.87193298 C10.67181335 44.48950669 10.62234513 46.10715044 10.57495117 47.72485352 C10.50007951 50.18488772 10.40936051 52.64403213 10.31835938 55.10351562 C10.26985538 56.68486614 10.22229727 58.26624601 10.17578125 59.84765625 C10.14672195 60.57388687 10.11766266 61.30011749 10.08772278 62.0483551 C9.9230056 68.7987245 11.23746205 74.59494687 15.1875 80.125 C20.4004706 83.60031373 26.77032437 82.59147249 32.75 81.4375 C35.9132101 79.73423302 36.08407671 78.49185568 37.1875 75.125 C37.60156942 73.15749365 37.95162325 71.17584254 38.25 69.1875 C38.48396484 67.68896484 38.48396484 67.68896484 38.72265625 66.16015625 C40.15225109 54.89866768 40.3962537 43.52296925 40.6875 32.1875 C40.95487209 21.80871499 41.42071484 11.47939133 42.1875 1.125 C46.07661184 0.4483698 49.7369183 -0.01135225 53.6875 0 C54.5846875 -0.00257813 55.481875 -0.00515625 56.40625 -0.0078125 C59.39626909 0.13496931 62.2407817 0.61232804 65.1875 1.125 C64.98426512 19.3986188 64.30669875 37.60383803 62.6817627 55.81085205 C62.52047433 57.62778444 62.36564048 59.44530276 62.21765137 61.2633667 C61.13137543 74.40208944 59.76888421 87.0736992 49.4296875 96.4375 C38.7876069 104.44687077 26.83486269 105.37343449 13.85546875 103.8515625 C4.39454293 101.80908157 -3.40981634 97.15718129 -8.8125 89.125 C-12.52722904 82.34108935 -13.93769138 76.2967561 -13.9453125 68.55859375 C-13.94748779 67.27855469 -13.94966309 65.99851562 -13.9519043 64.6796875 C-13.9478521 63.30728925 -13.94303449 61.93489307 -13.9375 60.5625 C-13.93561676 59.86560059 -13.93373352 59.16870117 -13.93179321 58.45068359 C-13.87034108 39.07518743 -12.58829492 20.31271504 -9.8125 1.125 C-6.45312614 0.22084672 -3.48958114 -0.00895913 0 0 Z " fill="#FBFBFB" transform="translate(759.8125,551.875)"/>
<path d="M0 0 C0.45433955 8.48100496 -1.54091692 15.3829296 -7 22 C-11.68775147 22 -14.25071703 20.3990521 -18.125 18.0625 C-19.37748584 17.32401802 -20.63008499 16.58572819 -21.8828125 15.84765625 C-22.91148437 15.23792969 -23.94015625 14.62820313 -25 14 C-28.03430581 12.4828471 -31.17405965 12.77486684 -34.5 12.75 C-35.18964844 12.729375 -35.87929688 12.70875 -36.58984375 12.6875 C-38.83161337 12.63540253 -38.83161337 12.63540253 -42 13 C-44.23359095 15.79007601 -44.23359095 15.79007601 -44.125 18.8125 C-42.42931786 23.61693274 -39.34571173 25.52649741 -35 28 C-33.15801538 28.75941471 -31.30261828 29.48682043 -29.4375 30.1875 C-18.88681212 34.34871278 -7.88117347 41.4867033 -3 52 C-0.56440827 59.30677519 -0.81399243 68.6251302 -4.1875 75.5625 C-5.08226664 77.06790125 -6.01667646 78.55089162 -7 80 C-7.37253906 80.58265625 -7.74507812 81.1653125 -8.12890625 81.765625 C-11.43992049 86.33413245 -16.07119661 88.56645843 -21 91 C-21.680625 91.36351562 -22.36125 91.72703125 -23.0625 92.1015625 C-31.23132874 95.88952744 -43.67130976 95.01542793 -52 92.4375 C-69.31825998 85.92583425 -69.31825998 85.92583425 -72.3359375 80.67578125 C-73.77542847 74.87547938 -74.66106195 67.96963111 -71.65625 62.59765625 C-70.19054799 60.90725935 -68.72978057 59.41574303 -67 58 C-63.36337889 59.36946633 -60.06326999 61.01756135 -56.6875 62.9375 C-46.57509964 68.45949165 -38.55329034 70.58127568 -27 68 C-25.9187609 61.93949386 -25.9187609 61.93949386 -27 56 C-27.66 56 -28.32 56 -29 56 C-29 55.34 -29 54.68 -29 54 C-30.32 53.67 -31.64 53.34 -33 53 C-33 52.34 -33 51.68 -33 51 C-34.25683594 50.86271484 -34.25683594 50.86271484 -35.5390625 50.72265625 C-39.5174342 49.89195787 -42.8126503 48.31535657 -46.375 46.4375 C-47.01566406 46.10814453 -47.65632812 45.77878906 -48.31640625 45.43945312 C-49.88138632 44.63360518 -51.44124021 43.81781507 -53 43 C-53 42.34 -53 41.68 -53 41 C-53.56460938 40.93167969 -54.12921875 40.86335937 -54.7109375 40.79296875 C-57.9059091 39.68617825 -59.38348751 37.82014524 -61.625 35.3125 C-62.40101563 34.46300781 -63.17703125 33.61351562 -63.9765625 32.73828125 C-68.43942517 26.69877018 -68.78984735 20.26051991 -68 13 C-65.97699186 5.15124055 -60.60060099 -2.17425016 -53.69140625 -6.41796875 C-36.79829342 -14.30901808 -15.28789081 -9.34259994 0 0 Z " fill="#F9F9F9" transform="translate(635,562)"/>
<path d="M0 0 C2.1875 2.4375 2.1875 2.4375 4 5 C5.17949219 6.12535156 5.17949219 6.12535156 6.3828125 7.2734375 C14.18315803 15.39976761 17.30088039 25.44950817 18.3125 36.375 C17.08814879 50.577474 11.53683891 62.37121387 1 72 C-1.88221498 73.98478725 -4.829602 75.53166822 -8 77 C-9.0725 77.5775 -10.145 78.155 -11.25 78.75 C-20.68318154 83.03780979 -34.34647707 82.40675616 -44 79.0625 C-53.23178627 74.94137473 -60.79071935 67.62545579 -66 59 C-66.48597656 58.19820313 -66.97195313 57.39640625 -67.47265625 56.5703125 C-72.81053179 46.07298622 -72.51722988 33.48752948 -70.21875 22.14453125 C-66.55042379 11.1788561 -58.53102003 3.16330648 -49.0078125 -3.07421875 C-47 -4 -47 -4 -43 -4 C-43 -4.66 -43 -5.32 -43 -6 C-28.86422831 -10.52344694 -12.40773253 -8.39528171 0 0 Z M-51.375 9.5 C-52.18710938 10.2528125 -52.99921875 11.005625 -53.8359375 11.78125 C-61.50315831 19.64222729 -63.65717282 27.41760291 -63.53564453 38.19384766 C-63.08546904 49.00477842 -59.01361802 57.07471408 -51.546875 64.8671875 C-42.23869314 72.66207599 -31.641825 73.64744672 -20 73 C-16.97979716 72.45943824 -14.66770601 71.49625826 -12 70 C-11.11699219 69.52433594 -10.23398438 69.04867187 -9.32421875 68.55859375 C-0.97543056 63.68940876 5.86908616 57.34286913 8.5625 47.78125 C10.13111236 37.80935715 10.36533086 27.83125627 5 19 C4.32496678 17.67088286 3.65600749 16.33860987 3 15 C2.34 15 1.68 15 1 15 C0.79375 14.443125 0.5875 13.88625 0.375 13.3125 C-3.19521702 7.30804411 -10.47080716 3.0786466 -17 1 C-20.25259203 0.65787661 -23.48154599 0.62983499 -26.75 0.625 C-28.03390625 0.58826172 -28.03390625 0.58826172 -29.34375 0.55078125 C-38.25992628 0.51025318 -44.87860571 3.36101252 -51.375 9.5 Z " fill="#F2F2F2" transform="translate(1573,17)"/>
<path d="M0 0 C9.67769324 -0.40468251 19.46757519 0.18494898 27 7 C33.63917524 15.444201 31.48837441 28.36879118 30.75 38.39453125 C29.86743137 44.96782886 27.42101302 49.12997784 23 54 C22.38125 54.78375 21.7625 55.5675 21.125 56.375 C14.59864365 61.36574309 5.75601646 60.17600952 -2 60 C-2.05996578 50.17608271 -1.89028502 40.38137354 -1.5625 30.5625 C-1.52318359 29.27279297 -1.48386719 27.98308594 -1.44335938 26.65429688 C-1.15356829 17.7510231 -0.64647749 8.88331464 0 0 Z " fill="#040404" transform="translate(949,573)"/>
<path d="M0 0 C6.88789981 0.68878998 11.51466725 4.16847648 15.8984375 9.3359375 C20.2447934 16.33993777 19.80215374 24.37206629 19.125 32.3125 C17.8382604 37.46552794 16.06996976 41.89504536 13.125 46.3125 C12.465 46.3125 11.805 46.3125 11.125 46.3125 C8.125 39.6875 8.125 39.6875 8.125 36.3125 C2.845 38.2925 -2.435 40.2725 -7.875 42.3125 C-7.2536131 46.6622083 -6.61394837 50.98437386 -5.875 55.3125 C-10.65104458 54.84426034 -14.12602041 54.38858582 -17.875 51.3125 C-24.7055193 42.40457216 -26.10740536 34.32598301 -24.875 23.3125 C-22.60264578 14.83595875 -18.82536111 8.42235875 -11.9375 3 C-7.89452055 0.77223581 -4.51139342 0.49036885 0 0 Z " fill="#060606" transform="translate(692.875,576.6875)"/>
<path d="M0 0 C1.37285156 0.0009668 1.37285156 0.0009668 2.7734375 0.00195312 C3.72734375 0.01806641 4.68125 0.03417969 5.6640625 0.05078125 C7.08332031 0.04594727 7.08332031 0.04594727 8.53125 0.04101562 C13.18315888 0.07695031 17.08587349 0.11859946 21.2890625 2.36328125 C21.2890625 3.02328125 21.2890625 3.68328125 21.2890625 4.36328125 C21.8665625 4.56953125 22.4440625 4.77578125 23.0390625 4.98828125 C26.95757044 7.38292499 28.86490024 11.09079447 30.2890625 15.36328125 C30.81362118 22.18254412 29.1709079 26.83623171 25.1015625 32.30078125 C24.5034375 32.98140625 23.9053125 33.66203125 23.2890625 34.36328125 C24.49868639 37.22239225 25.80388975 38.93939745 27.9140625 41.30078125 C30.2890625 44.36328125 30.2890625 44.36328125 30.7890625 47.11328125 C30.2890625 49.36328125 30.2890625 49.36328125 27.2890625 51.36328125 C24.4765625 51.859375 24.4765625 51.859375 21.2890625 51.36328125 C19.04687705 49.42764459 17.2143214 47.63431392 15.2890625 45.42578125 C11.35696872 40.82952517 11.35696872 40.82952517 5.9140625 38.484375 C5.0478125 38.44441406 4.1815625 38.40445313 3.2890625 38.36328125 C3.32386719 38.9665625 3.35867188 39.56984375 3.39453125 40.19140625 C3.61249649 46.62657049 3.61249649 46.62657049 2.1640625 49.92578125 C0.2890625 51.36328125 0.2890625 51.36328125 -2.7734375 51.80078125 C-3.7428125 51.65640625 -4.7121875 51.51203125 -5.7109375 51.36328125 C-7.797288 48.2337555 -7.9646471 47.50277632 -7.9855957 43.93945312 C-7.99512772 43.04842896 -8.00465973 42.15740479 -8.01448059 41.23937988 C-8.01356918 40.27995483 -8.01265778 39.32052979 -8.01171875 38.33203125 C-8.01600388 37.34456909 -8.020289 36.35710693 -8.02470398 35.33972168 C-8.03044762 33.25171679 -8.03094729 31.16369188 -8.02661133 29.07568359 C-8.0234497 25.87563089 -8.04691617 22.67650098 -8.07226562 19.4765625 C-8.07453839 17.44921992 -8.07524222 15.42187485 -8.07421875 13.39453125 C-8.0834285 12.4351062 -8.09263824 11.47568115 -8.10212708 10.48718262 C-8.09589828 9.59615845 -8.08966949 8.70513428 -8.08325195 7.78710938 C-8.08388138 7.00339966 -8.0845108 6.21968994 -8.0851593 5.41223145 C-7.23891037 0.77882444 -4.27326356 -0.01530598 0 0 Z " fill="#F8F8F8" transform="translate(1534.7109375,27.63671875)"/>
<path d="M0 0 C2.59797534 2.59797534 2.6387257 4.39607148 3.2890625 7.99609375 C3.61777344 9.79336914 3.61777344 9.79336914 3.953125 11.62695312 C4.17484375 12.88443359 4.3965625 14.14191406 4.625 15.4375 C4.85445312 16.69111328 5.08390625 17.94472656 5.3203125 19.23632812 C7 28.53959728 7 28.53959728 7 32 C-0.92 32.495 -0.92 32.495 -9 33 C-7.87606197 25.13243378 -7.87606197 25.13243378 -6.66015625 21.66015625 C-6.40169922 20.90669922 -6.14324219 20.15324219 -5.87695312 19.37695312 C-5.60818359 18.61318359 -5.33941406 17.84941406 -5.0625 17.0625 C-3.09392343 11.41541539 -1.37151721 5.82397887 0 0 Z " fill="#0C0C0C" transform="translate(877,584)"/>
<path d="M0 0 C10.35983429 -0.36999408 10.35983429 -0.36999408 13.3046875 1.33203125 C15.76031759 3.7480544 15.86433864 5.60846595 16 9 C15.0625 11.875 15.0625 11.875 14 14 C13.34 14 12.68 14 12 14 C12 14.66 12 15.32 12 16 C8.04 16 4.08 16 0 16 C0 10.72 0 5.44 0 0 Z " fill="#060606" transform="translate(1538,39)"/>
<path d="M0 0 C0.95003906 -0.00515625 1.90007813 -0.0103125 2.87890625 -0.015625 C5.4375 0.25 5.4375 0.25 8.4375 2.25 C7.64085937 2.26417969 6.84421875 2.27835937 6.0234375 2.29296875 C-1.10065243 2.45561606 -1.10065243 2.45561606 -7.25 5.625 C-14.70756329 14.09034212 -10.20662024 34.56450524 -9.5625 45.25 C-10.2225 44.92 -10.8825 44.59 -11.5625 44.25 C-11.85162012 41.80589173 -12.03030471 39.45283897 -12.125 37 C-12.31724074 31.89148498 -12.31724074 31.89148498 -13.0859375 26.84765625 C-13.81254593 22.88704475 -13.66621253 18.95413637 -13.625 14.9375 C-13.62048828 14.10154297 -13.61597656 13.26558594 -13.61132812 12.40429688 C-13.59960548 10.35283351 -13.58167203 8.30140727 -13.5625 6.25 C-12.5725 6.25 -11.5825 6.25 -10.5625 6.25 C-10.48 5.63125 -10.3975 5.0125 -10.3125 4.375 C-9.5625 2.25 -9.5625 2.25 -7.86328125 1.1328125 C-5.11350442 0.07771986 -2.94038321 -0.01600209 0 0 Z " fill="#84C9A5" transform="translate(626.5625,82.75)"/>
<path d="M0 0 C0.66 0.99 1.32 1.98 2 3 C1.50371094 3.4125 1.00742188 3.825 0.49609375 4.25 C-3.10651731 7.3125612 -6.44359386 10.38595856 -9.5 14 C-11.69805984 16.58566414 -13.90567127 18.87633074 -16.5 21.0625 C-23.41783749 26.90971979 -29.64075811 33.56002555 -36 40 C-36.66 39.67 -37.32 39.34 -38 39 C-33.73567708 34.73567708 -29.47135417 30.47135417 -25.20703125 26.20703125 C-24.47629395 25.47564941 -23.74555664 24.74426758 -22.99267578 23.99072266 C-21.38917876 22.38879731 -19.77954693 20.793014 -18.16796875 19.19921875 C-16.19025457 17.19299698 -14.32989017 15.14062624 -12.5 13 C-4.94897959 4.31632653 -4.94897959 4.31632653 -1 3 C-0.67 2.01 -0.34 1.02 0 0 Z " fill="#212121" transform="translate(254,389)"/>
<path d="M0 0 C1.37245106 2.74490212 0.93580311 4.12060581 0 7 C-1.32467746 7.6837045 -2.65863633 8.34964186 -4 9 C-4.67441131 10.6635479 -5.3400321 12.33066942 -6 14 C-8.625 16.8125 -8.625 16.8125 -11 19 C-11.66 18.67 -12.32 18.34 -13 18 C-13.33 19.98 -13.66 21.96 -14 24 C-14.66 24 -15.32 24 -16 24 C-15.47706996 19.39650109 -13.45111013 16.24434385 -10.8125 12.5625 C-10.40974854 11.98991455 -10.00699707 11.4173291 -9.59204102 10.82739258 C-6.70298785 6.79354418 -3.68507867 3.30712189 0 0 Z " fill="#79C49F" transform="translate(583,259)"/>
<path d="M0 0 C0.81434143 2.85160391 1.11881242 5.36626131 1.09765625 8.328125 C1.09282227 9.52695312 1.09282227 9.52695312 1.08789062 10.75 C1.07951172 11.575 1.07113281 12.4 1.0625 13.25 C1.05798828 14.09046875 1.05347656 14.9309375 1.04882812 15.796875 C1.03707961 17.86461401 1.01914522 19.93231624 1 22 C0.01 21.34 -0.98 20.68 -2 20 C-2.34057617 18.12060547 -2.34057617 18.12060547 -2.29296875 15.8671875 C-2.28330078 15.06152344 -2.27363281 14.25585938 -2.26367188 13.42578125 C-2.23853516 12.58402344 -2.21339844 11.74226563 -2.1875 10.875 C-2.17396484 10.02550781 -2.16042969 9.17601562 -2.14648438 8.30078125 C-2.11108219 6.20025163 -2.05727401 4.10004707 -2 2 C-1.34 2 -0.68 2 0 2 C0 1.34 0 0.68 0 0 Z " fill="#82C5A2" transform="translate(565,288)"/>
<path d="M0 0 C0.66 0 1.32 0 2 0 C1.44854729 5.23880078 0.57077907 9.97350697 -1 15 C-2.625 13.5625 -2.625 13.5625 -4 11 C-3.66130379 6.76253412 -3.04889258 3.04889258 0 0 Z " fill="#78BE99" transform="translate(839,279)"/>
<path d="M0 0 C0.33 0.66 0.66 1.32 1 2 C1.66 2.33 2.32 2.66 3 3 C2.67 4.65 2.34 6.3 2 8 C-2.29 7.01 -6.58 6.02 -11 5 C-11 4.67 -11 4.34 -11 4 C-9.39125 3.566875 -9.39125 3.566875 -7.75 3.125 C-4.90599636 2.27179891 -2.56491017 1.4363497 0 0 Z " fill="#77C49B" transform="translate(749,80)"/>
<path d="M0 0 C0.66 0.99 1.32 1.98 2 3 C1.25556641 3.61875 1.25556641 3.61875 0.49609375 4.25 C-4.4811566 8.48113502 -8.82619038 12.9783853 -13 18 C-13.66 17.34 -14.32 16.68 -15 16 C-5.3 4.43333333 -5.3 4.43333333 -1 3 C-0.67 2.01 -0.34 1.02 0 0 Z " fill="#282828" transform="translate(254,389)"/>
<path d="M0 0 C0.99 0.33 1.98 0.66 3 1 C2.01 3.31 1.02 5.62 0 8 C-1.32 8 -2.64 8 -4 8 C-4.33 7.01 -4.66 6.02 -5 5 C-3.35 3.35 -1.7 1.7 0 0 Z " fill="#07150B" transform="translate(685,163)"/>
<path d="M0 0 C2.31 0.33 4.62 0.66 7 1 C6.79375 1.70125 6.5875 2.4025 6.375 3.125 C5.92149643 6.60186072 6.72459723 8.77398123 8 12 C4.74451247 8.97704729 2.31022942 5.79537691 0 2 C0 1.34 0 0.68 0 0 Z " fill="#79C19B" transform="translate(567,315)"/>
<path d="M0 0 C0.33 0 0.66 0 1 0 C1.04254356 1.99954746 1.04080783 4.00041636 1 6 C-0.63377133 7.63377133 -2.62778885 7.31761765 -4.875 7.5 C-7.84922849 7.74279416 -10.15075214 8.05025071 -13 9 C-13.66 8.34 -14.32 7.68 -15 7 C-13.98679687 6.80083984 -13.98679687 6.80083984 -12.953125 6.59765625 C-11.61507812 6.33275391 -11.61507812 6.33275391 -10.25 6.0625 C-9.36828125 5.88847656 -8.4865625 5.71445313 -7.578125 5.53515625 C-5.36764947 5.07631512 -3.18487932 4.56663926 -1 4 C-0.67 2.68 -0.34 1.36 0 0 Z M-15 9 C-14.34 9 -13.68 9 -13 9 C-13 9.66 -13 10.32 -13 11 C-13.66 11 -14.32 11 -15 11 C-15 10.34 -15 9.68 -15 9 Z " fill="#84CCA7" transform="translate(613,244)"/>
<path d="M0 0 C0.12375 0.639375 0.2475 1.27875 0.375 1.9375 C0.684375 2.9584375 0.684375 2.9584375 1 4 C1.66 4.33 2.32 4.66 3 5 C2.01 5.33 1.02 5.66 0 6 C0.061875 7.8253125 0.061875 7.8253125 0.125 9.6875 C0.13754508 13.21894127 -0.40001783 15.80003566 -2 19 C-2.66 19 -3.32 19 -4 19 C-3.00318287 12.54189755 -1.98363508 6.23428168 0 0 Z " fill="#7AC39C" transform="translate(691,148)"/>
<path d="M0 0 C0.66 0 1.32 0 2 0 C2.33 2.64 2.66 5.28 3 8 C2.01 8.33 1.02 8.66 0 9 C-0.66 9.66 -1.32 10.32 -2 11 C-2.19622241 6.78121808 -1.80230168 3.82989106 0 0 Z " fill="#7CC49C" transform="translate(802,333)"/>
<path d="M0 0 C1.9078584 3.1749094 2.1609041 5.10585211 1.625 8.75 C1.51414062 9.54921875 1.40328125 10.3484375 1.2890625 11.171875 C1.19367187 11.77515625 1.09828125 12.3784375 1 13 C-1.09970981 9.0828943 -1.99334562 5.31423304 -3 1 C-2.01 0.67 -1.02 0.34 0 0 Z " fill="#0A140D" transform="translate(669,95)"/>
<path d="M0 0 C2.45526122 2.45526122 2.41457598 3.60629818 2.75 7 C2.84796875 7.886875 2.9459375 8.77375 3.046875 9.6875 C3 12 3 12 1 14 C1 12.02 1 10.04 1 8 C0.34 8 -0.32 8 -1 8 C-0.67 5.36 -0.34 2.72 0 0 Z " fill="#313131" transform="translate(877,584)"/>
<path d="M0 0 C0.66 0 1.32 0 2 0 C4.17175481 3.25763222 4.46043998 4.22439213 4 8 C2.5 10.3125 2.5 10.3125 1 12 C0 11 0 11 -0.09765625 8.49609375 C-0.08605469 7.48675781 -0.07445312 6.47742188 -0.0625 5.4375 C-0.05347656 4.42558594 -0.04445313 3.41367188 -0.03515625 2.37109375 C-0.02355469 1.58863281 -0.01195312 0.80617188 0 0 Z " fill="#72BA91" transform="translate(592,98)"/>
<path d="M0 0 C1.49828872 3.88235819 0.43110582 6.43449288 -0.9375 10.25 C-1.31777344 11.32765625 -1.69804688 12.4053125 -2.08984375 13.515625 C-2.39019531 14.33546875 -2.69054687 15.1553125 -3 16 C-3.33 16 -3.66 16 -4 16 C-3.65697965 10.01488629 -3.17692157 5.24882694 0 0 Z " fill="#72AB8E" transform="translate(823,334)"/>
<path d="M0 0 C1.21065165 3.63195496 0.62784815 5.06531629 -0.4375 8.6875 C-0.86869141 10.17830078 -0.86869141 10.17830078 -1.30859375 11.69921875 C-1.53675781 12.45847656 -1.76492188 13.21773437 -2 14 C-4 11 -4 11 -4 8 C-3.36893571 5.98848259 -2.70626239 3.98636298 -2 2 C-1.34 2 -0.68 2 0 2 C0 1.34 0 0.68 0 0 Z " fill="#0B1C10" transform="translate(701,101)"/>
<path d="M0 0 C3.02788635 3.46044155 4.98556464 7.52249221 6 12 C5.578125 14.25 5.578125 14.25 5 16 C5 15.01 5 14.02 5 13 C4.34 13 3.68 13 3 13 C-0.42857143 4.57142857 -0.42857143 4.57142857 0 0 Z " fill="#79B796" transform="translate(661,86)"/>
<path d="M0 0 C0.99 0.33 1.98 0.66 3 1 C2.34 1.66 1.68 2.32 1 3 C0.01 3 -0.98 3 -2 3 C-2 3.66 -2 4.32 -2 5 C-1.34 5.33 -0.68 5.66 0 6 C-2.3125 7.5625 -2.3125 7.5625 -5 9 C-5.99 8.67 -6.98 8.34 -8 8 C-3.375 2.25 -3.375 2.25 0 0 Z " fill="#76B693" transform="translate(720,71)"/>
<path d="M0 0 C0.33 0.66 0.66 1.32 1 2 C1.66 2 2.32 2 3 2 C3 7.28 3 12.56 3 18 C2.67 18 2.34 18 2 18 C1.6603981 16.12612523 1.32861309 14.25083303 1 12.375 C0.7215625 10.80878906 0.7215625 10.80878906 0.4375 9.2109375 C0.01284203 6.09425135 -0.07545206 3.14069188 0 0 Z " fill="#041609" transform="translate(674,134)"/>
<path d="M0 0 C1.3805087 3.76668598 0.59568159 6.44789173 -0.4375 10.25 C-0.72496094 11.32765625 -1.01242187 12.4053125 -1.30859375 13.515625 C-1.53675781 14.33546875 -1.76492188 15.1553125 -2 16 C-2.33 16 -2.66 16 -3 16 C-3.55353075 4.29384966 -3.55353075 4.29384966 0 0 Z " fill="#669E81" transform="translate(708,176)"/>
<path d="M0 0 C2.38672669 2.96283313 4.7353371 5.94270509 7 9 C6.67 9.66 6.34 10.32 6 11 C5.01 10.67 4.02 10.34 3 10 C2.67 8.35 2.34 6.7 2 5 C1.01 4.67 0.02 4.34 -1 4 C-0.67 2.68 -0.34 1.36 0 0 Z " fill="#6AAA89" transform="translate(654,74)"/>
<path d="M0 0 C5.58731943 2.08155038 10.19121158 4.38242317 13 10 C8.03231242 8.44759763 3.82132943 5.48945219 0 2 C0 1.34 0 0.68 0 0 Z " fill="#7AB595" transform="translate(641,64)"/>
<path d="M0 0 C0.66 0.33 1.32 0.66 2 1 C-2 5 -6 9 -10 13 C-8.65515286 8.95838045 -6.9494838 6.61321846 -3.875 3.6875 C-3.15054687 2.99011719 -2.42609375 2.29273438 -1.6796875 1.57421875 C-1.12539062 1.05472656 -0.57109375 0.53523438 0 0 Z " fill="#222222" transform="translate(1524,24)"/>
<path d="M0 0 C0.66 1.32 1.32 2.64 2 4 C1.34 4.66 0.68 5.32 0 6 C-0.66 5.67 -1.32 5.34 -2 5 C-2.33 6.98 -2.66 8.96 -3 11 C-3.66 11 -4.32 11 -5 11 C-4.46884894 6.48521602 -2.63379708 3.65333143 0 0 Z " fill="#76B594" transform="translate(572,272)"/>
<path d="M0 0 C0.66 0.33 1.32 0.66 2 1 C1.67 1.66 1.34 2.32 1 3 C1.66 3.33 2.32 3.66 3 4 C0 6 0 6 -3.125 5.75 C-4.07375 5.5025 -5.0225 5.255 -6 5 C-6.33 4.34 -6.66 3.68 -7 3 C-5.02 3 -3.04 3 -1 3 C-0.67 2.01 -0.34 1.02 0 0 Z " fill="#76B696" transform="translate(684,243)"/>
<path d="M0 0 C0.33 0 0.66 0 1 0 C1.16682272 4.92127034 1.24828052 8.50343896 -1 13 C-1.33 13 -1.66 13 -2 13 C-1.85915204 11.20793453 -1.71216299 9.41635083 -1.5625 7.625 C-1.48128906 6.62726563 -1.40007813 5.62953125 -1.31640625 4.6015625 C-1 2 -1 2 0 0 Z " fill="#81C4A1" transform="translate(713,146)"/>
<path d="M0 0 C1.33332095 2.6666419 0.67102033 4.16680303 0 7 C-0.99 7.33 -1.98 7.66 -3 8 C-3.99 7.34 -4.98 6.68 -6 6 C-4.02 4.02 -2.04 2.04 0 0 Z " fill="#76B997" transform="translate(583,259)"/>
<path d="M0 0 C1 2 1 2 0.44140625 4.1640625 C0.15136719 4.97617188 -0.13867188 5.78828125 -0.4375 6.625 C-0.72496094 7.44226563 -1.01242187 8.25953125 -1.30859375 9.1015625 C-1.53675781 9.72804688 -1.76492188 10.35453125 -2 11 C-2.66 10.67 -3.32 10.34 -4 10 C-3.43454163 6.04179141 -2.19097652 3.3340947 0 0 Z " fill="#6CA98A" transform="translate(711,80)"/>
<path d="M0 0 C0 3 0 3 -1.9375 5.0625 C-2.618125 5.701875 -3.29875 6.34125 -4 7 C-4.33 7.66 -4.66 8.32 -5 9 C-6.32 8.34 -7.64 7.68 -9 7 C-6.03 4.69 -3.06 2.38 0 0 Z " fill="#272727" transform="translate(1577,85)"/>
<path d="M0 0 C0.763125 0.61875 1.52625 1.2375 2.3125 1.875 C4.99625809 4.05597052 4.99625809 4.05597052 8 6 C7.67 6.99 7.34 7.98 7 9 C6.01 8.34 5.02 7.68 4 7 C4 6.34 4 5.68 4 5 C2.68 4.34 1.36 3.68 0 3 C0 2.01 0 1.02 0 0 Z " fill="#76B192" transform="translate(614,339)"/>
<path d="M0 0 C-2.93828597 2.50298434 -5.17902761 3.46930939 -9 4 C-9.33 3.01 -9.66 2.02 -10 1 C-3.71428571 -1.42857143 -3.71428571 -1.42857143 0 0 Z " fill="#0C1C11" transform="translate(612,275)"/>
<path d="M0 0 C0.33 0.99 0.66 1.98 1 3 C1.66 3 2.32 3 3 3 C3 3.99 3 4.98 3 6 C2.01 6.495 2.01 6.495 1 7 C0.59270772 9.32156597 0.25561323 11.6568787 0 14 C-0.33 14 -0.66 14 -1 14 C-1.08333357 9.1666528 -0.95261487 4.76307437 0 0 Z " fill="#08190C" transform="translate(771,146)"/>
<path d="M0 0 C0.89694794 3.58779175 1.08304117 6.34618837 1 10 C-0.98 10.99 -0.98 10.99 -3 12 C-2.01 8.04 -1.02 4.08 0 0 Z " fill="#68A887" transform="translate(790,368)"/>
<path d="M0 0 C1 2 1 2 0.1875 5 C-1 8 -1 8 -3 10 C-3.36923077 4.58461538 -3.36923077 4.58461538 -1.5 1.625 C-1.005 1.08875 -0.51 0.5525 0 0 Z " fill="#79C09B" transform="translate(795,358)"/>
<path d="M0 0 C0.66 0 1.32 0 2 0 C3.6875 2.375 3.6875 2.375 5 5 C4.67 5.66 4.34 6.32 4 7 C3.01 6.67 2.02 6.34 1 6 C0.67 4.02 0.34 2.04 0 0 Z " fill="#72B794" transform="translate(624,348)"/>
<path d="M0 0 C0.33 0 0.66 0 1 0 C1.98248524 4.0527516 2.08159574 7.83861737 2 12 C1.67 11.01 1.34 10.02 1 9 C0.34 9 -0.32 9 -1 9 C-0.67 6.03 -0.34 3.06 0 0 Z " fill="#0F2516" transform="translate(652,144)"/>
<path d="M0 0 C0.89694794 3.58779175 1.08304117 6.34618837 1 10 C-0.98 10.99 -0.98 10.99 -3 12 C-2.01 8.04 -1.02 4.08 0 0 Z " fill="#6AAA88" transform="translate(813,296)"/>
<path d="M0 0 C1.15941038 3.47823115 0.70820884 5.45895578 0 9 C-0.99 8.34 -1.98 7.68 -3 7 C-3.1875 3.875 -3.1875 3.875 -3 1 C-2.01 0.67 -1.02 0.34 0 0 Z " fill="#81D4A7" transform="translate(821,277)"/>
<path d="M0 0 C4.53229399 -0.3674833 4.53229399 -0.3674833 6.75 1.375 C8 3 8 3 9 5 C8.01 5.33 7.02 5.66 6 6 C2.8125 3.625 2.8125 3.625 0 1 C0 0.67 0 0.34 0 0 Z " fill="#72B08F" transform="translate(770,209)"/>
<path d="M0 0 C2.8125 -0.1875 2.8125 -0.1875 6 0 C6.99 0.99 7.98 1.98 9 3 C6.03 3 3.06 3 0 3 C0 2.01 0 1.02 0 0 Z " fill="#0F2016" transform="translate(736,58)"/>
<path d="M0 0 C0.66 0 1.32 0 2 0 C2 0.66 2 1.32 2 2 C2.99 2.33 3.98 2.66 5 3 C4.01 3.33 3.02 3.66 2 4 C2.33 4.66 2.66 5.32 3 6 C1.68 5.67 0.36 5.34 -1 5 C-0.67 3.35 -0.34 1.7 0 0 Z " fill="#6EB790" transform="translate(804,206)"/>
<path d="M0 0 C1.9375 0.3125 1.9375 0.3125 4 1 C4.33 1.99 4.66 2.98 5 4 C4.34 4.66 3.68 5.32 3 6 C0 2.25 0 2.25 0 0 Z " fill="#7EC19C" transform="translate(577,328)"/>
<path d="M0 0 C0.928125 0.20625 1.85625 0.4125 2.8125 0.625 C-0.15437001 2.27326111 -2.84376525 3.06771087 -6.1875 3.625 C-6.1875 2.965 -6.1875 2.305 -6.1875 1.625 C-3.1875 -0.375 -3.1875 -0.375 0 0 Z " fill="#72AE8F" transform="translate(603.1875,274.375)"/>
<path d="M0 0 C0.66 0 1.32 0 2 0 C2 0.66 2 1.32 2 2 C2.99 2.33 3.98 2.66 5 3 C5.99 3.66 6.98 4.32 8 5 C5.69 4.67 3.38 4.34 1 4 C0.67 2.68 0.34 1.36 0 0 Z " fill="#6DA88D" transform="translate(745,205)"/>
<path d="M0 0 C0.185625 0.9590625 0.185625 0.9590625 0.375 1.9375 C0.684375 2.9584375 0.684375 2.9584375 1 4 C1.66 4.33 2.32 4.66 3 5 C2.01 5.33 1.02 5.66 0 6 C-0.33 7.65 -0.66 9.3 -1 11 C-2.60080151 6.99799622 -1.29279692 3.95443764 0 0 Z " fill="#5C9275" transform="translate(691,148)"/>
<path d="M0 0 C0.66 0 1.32 0 2 0 C2.33 2.64 2.66 5.28 3 8 C2.34 8 1.68 8 1 8 C0.67 5.36 0.34 2.72 0 0 Z " fill="#70B291" transform="translate(667,104)"/>
<path d="M0 0 C0.99 0.66 1.98 1.32 3 2 C2.67 3.32 2.34 4.64 2 6 C-1 5 -1 5 -2.1875 2.9375 C-2.5896875 1.9784375 -2.5896875 1.9784375 -3 1 C-2.01 0.67 -1.02 0.34 0 0 Z " fill="#74C29B" transform="translate(755,88)"/>
<path d="M0 0 C0.66 0.33 1.32 0.66 2 1 C-1.465 3.97 -1.465 3.97 -5 7 C-3.92643531 2.70574125 -3.4915227 2.25259529 0 0 Z " fill="#0E2617" transform="translate(621,87)"/>
</svg>
