<?xml version="1.0" encoding="UTF-8"?>
<svg version="1.1" xmlns="http://www.w3.org/2000/svg" width="1082" height="230">
<path d="M0 0 C0.87924637 -0.00570007 1.75849274 -0.01140015 2.66438293 -0.01727295 C4.5227438 -0.0266992 6.3811212 -0.03324747 8.23950195 -0.03710938 C11.05515447 -0.04678266 13.87006641 -0.07781519 16.68554688 -0.109375 C33.63628115 -0.20878644 33.63628115 -0.20878644 41.89453125 3.203125 C42.83425781 3.46996094 43.77398437 3.73679688 44.7421875 4.01171875 C50.38495167 5.61398512 55.60405474 7.68123982 60.89453125 10.203125 C61.65121094 10.53828125 62.40789062 10.8734375 63.1875 11.21875 C85.00227785 21.32543338 104.63328866 40.47916521 114.89453125 62.203125 C115.343125 63.11707031 115.79171875 64.03101563 116.25390625 64.97265625 C119.08071416 70.917267 121.14499413 76.86696354 122.89453125 83.203125 C123.5549512 85.18438486 124.22150546 87.16361174 124.89453125 89.140625 C129.2497026 104.83874261 129.30130047 129.83651775 123.89453125 145.203125 C123.63929688 146.04617187 123.3840625 146.88921875 123.12109375 147.7578125 C119.22684136 160.30595909 113.89277554 171.74960572 105.89453125 182.203125 C105.40210938 182.88632813 104.9096875 183.56953125 104.40234375 184.2734375 C102.94169399 186.28676555 101.43565633 188.25077702 99.89453125 190.203125 C99.34667969 190.89921875 98.79882812 191.5953125 98.234375 192.3125 C89.68129792 202.55440122 78.35576659 210.51433331 66.89453125 217.203125 C66.25773438 217.57824219 65.6209375 217.95335937 64.96484375 218.33984375 C40.58314363 231.57711871 9.46389959 233.71671017 -17.10546875 227.203125 C-18.66201172 226.89568359 -18.66201172 226.89568359 -20.25 226.58203125 C-27.52458559 225.04702695 -33.56319982 222.20203882 -40.07421875 218.7265625 C-42.50312795 217.50584783 -44.45746845 216.68339956 -47.10546875 216.203125 C-47.10546875 215.543125 -47.10546875 214.883125 -47.10546875 214.203125 C-47.83121094 213.935 -48.55695312 213.666875 -49.3046875 213.390625 C-52.07410899 212.21642119 -54.41466309 210.8636926 -56.91796875 209.203125 C-57.70816406 208.6875 -58.49835937 208.171875 -59.3125 207.640625 C-59.90417969 207.16625 -60.49585938 206.691875 -61.10546875 206.203125 C-61.10546875 205.543125 -61.10546875 204.883125 -61.10546875 204.203125 C-61.90984375 203.8628125 -61.90984375 203.8628125 -62.73046875 203.515625 C-68.13032657 200.53149305 -71.97523446 196.39642547 -75.80859375 191.65625 C-77.06327578 190.07024889 -77.06327578 190.07024889 -79.10546875 189.203125 C-79.10546875 188.213125 -79.10546875 187.223125 -79.10546875 186.203125 C-79.76546875 186.203125 -80.42546875 186.203125 -81.10546875 186.203125 C-82.78886782 183.81730042 -84.33877009 181.44260473 -85.85546875 178.953125 C-86.3035791 178.22311279 -86.75168945 177.49310059 -87.21337891 176.7409668 C-93.36648735 166.60310444 -98.08791197 156.71007484 -101.10546875 145.203125 C-101.40582031 144.17960938 -101.70617187 143.15609375 -102.015625 142.1015625 C-106.42838526 124.57366825 -106.18102057 102.53137615 -101.10546875 85.203125 C-100.66766675 83.64852252 -100.23018793 82.093829 -99.79296875 80.5390625 C-98.61411501 76.41076951 -97.37545878 72.30423906 -96.10546875 68.203125 C-95.44546875 68.203125 -94.78546875 68.203125 -94.10546875 68.203125 C-93.96109375 67.254375 -93.81671875 66.305625 -93.66796875 65.328125 C-93.10546875 62.203125 -93.10546875 62.203125 -92.10546875 60.203125 C-91.44546875 60.203125 -90.78546875 60.203125 -90.10546875 60.203125 C-90.03328125 59.50574219 -89.96109375 58.80835938 -89.88671875 58.08984375 C-88.89392435 54.42146843 -86.94438513 51.92458425 -84.60546875 49.015625 C-84.16275635 48.45190186 -83.72004395 47.88817871 -83.26391602 47.30737305 C-79.63845367 42.74219087 -75.79334173 38.3951995 -71.8203125 34.12890625 C-70.04982936 32.30919931 -70.04982936 32.30919931 -69.10546875 30.203125 C-68.32171875 29.749375 -67.53796875 29.295625 -66.73046875 28.828125 C-64.06528909 27.40896965 -64.06528909 27.40896965 -62.6953125 25.25 C-60.95118848 23.00449389 -59.55595864 22.11426501 -57.04296875 20.828125 C-53.67756031 19.05284482 -50.40911153 17.19688791 -47.16796875 15.203125 C-36.53334013 8.79930065 -26.56424362 4.19191666 -14.10546875 3.203125 C-14.10546875 2.543125 -14.10546875 1.883125 -14.10546875 1.203125 C-9.40361924 0.01651587 -4.81664395 0.02437944 0 0 Z M-33.88842773 55.39013672 C-50.98720614 73.7756172 -49.76313507 98.33013819 -49.62695312 121.75415039 C-49.60406739 125.73228323 -49.61739282 129.70934162 -49.64124298 133.6874361 C-49.65581576 136.79766189 -49.65104473 139.90763982 -49.64073181 143.01787376 C-49.63810121 144.48361534 -49.64120186 145.94938089 -49.65065002 147.41509438 C-49.71601471 160.38508238 -47.9626569 173.12289528 -39.10546875 183.203125 C-30.58106378 191.43302078 -21.79505712 194.79814314 -10.01416016 194.68261719 C-4.06073104 194.4362684 0.69274991 193.01989987 5.89453125 190.203125 C6.82265625 189.72875 7.75078125 189.254375 8.70703125 188.765625 C11.42851863 186.82170545 13.61935855 184.65331099 15.89453125 182.203125 C16.57515625 181.48125 17.25578125 180.759375 17.95703125 180.015625 C22.56885649 173.32103997 25.0783266 165.51741346 24.95703125 157.390625 C24.94800781 156.60042969 24.93898438 155.81023437 24.9296875 154.99609375 C24.91808594 154.40441406 24.90648437 153.81273437 24.89453125 153.203125 C26.54453125 152.873125 28.19453125 152.543125 29.89453125 152.203125 C29.89453125 151.543125 29.89453125 150.883125 29.89453125 150.203125 C31.37953125 150.698125 31.37953125 150.698125 32.89453125 151.203125 C40.10989587 148.49208888 46.45422074 144.64343551 51.89453125 139.203125 C51.89453125 138.543125 51.89453125 137.883125 51.89453125 137.203125 C52.55453125 137.203125 53.21453125 137.203125 53.89453125 137.203125 C53.89453125 136.543125 53.89453125 135.883125 53.89453125 135.203125 C54.53390625 134.955625 55.17328125 134.708125 55.83203125 134.453125 C58.08194666 133.38750067 58.08194666 133.38750067 58.64453125 131.078125 C58.72703125 130.459375 58.80953125 129.840625 58.89453125 129.203125 C59.55453125 129.203125 60.21453125 129.203125 60.89453125 129.203125 C67.90808373 117.30308104 71.05044577 106.9866485 71.14453125 93.203125 C71.16515625 92.44773438 71.18578125 91.69234375 71.20703125 90.9140625 C71.24480262 85.41832877 70.11442949 81.20527697 67.89453125 76.203125 C67.57871094 75.41164062 67.26289063 74.62015625 66.9375 73.8046875 C59.84712609 57.4223624 49.39244647 46.20682368 32.85546875 39.19921875 C8.24785801 30.92093281 -15.78775617 36.94642009 -33.88842773 55.39013672 Z " fill="#FEFEFE" transform="translate(104.10546875,-0.203125)"/>
<path d="M0 0 C1.51113643 0.98309037 3.01304967 1.98069695 4.5 3 C5.8303125 3.86625 5.8303125 3.86625 7.1875 4.75 C17.99780611 15.26813567 22.34932435 27.72851425 22.875 42.5 C22.64246048 54.78099355 16.65993297 65.78739398 8.4375 74.6875 C3.26266698 79.63312406 -2.84910399 83.36543454 -9.5 86 C-10.49 85.67 -11.48 85.34 -12.5 85 C-12.47643433 83.38158203 -12.47643433 83.38158203 -12.45239258 81.73046875 C-12.39777101 77.69750541 -12.3635336 73.66457427 -12.33520508 69.63134766 C-12.32019146 67.89138272 -12.29977423 66.15145516 -12.27368164 64.41162109 C-12.23696893 61.8993198 -12.22019931 59.3875222 -12.20703125 56.875 C-12.19154739 56.10696045 -12.17606354 55.3389209 -12.16011047 54.54760742 C-12.15808922 47.94522065 -13.46864315 42.48276948 -17.75 37.25 C-23.65722139 32.41681886 -28.76676158 29.64848916 -36.5 30 C-41.31638171 30.991608 -46.30367387 32.37841459 -50.5 35 C-51.21002371 36.31075877 -51.87105524 37.64846357 -52.5 39 C-52.84812744 39.65750244 -53.19625488 40.31500488 -53.55493164 40.99243164 C-56.4922182 46.92271074 -57.08635195 51.87360909 -56.9375 58.4375 C-56.94458984 59.31470703 -56.95167969 60.19191406 -56.95898438 61.09570312 C-56.88019776 69.31981409 -55.35767222 77.21464829 -50.375 83.9375 C-48.56820337 86.41397996 -47.48075576 88.05773273 -46.5 91 C-44.67766985 92.13300513 -44.67766985 92.13300513 -42.5 93 C-41.82582031 93.31839844 -41.15164062 93.63679688 -40.45703125 93.96484375 C-35.23398624 96.3337658 -29.97395765 98.29181463 -24.5 100 C-24.23490896 107.55509466 -25.16445772 113.60038406 -29.5 120 C-35.42528333 125.69399904 -41.35583636 127.64872261 -49.375 127.6875 C-50.10025879 127.69434814 -50.82551758 127.70119629 -51.57275391 127.70825195 C-56.50090887 127.54093452 -58.96543419 126.35592349 -62.5 123 C-63.4075 122.484375 -64.315 121.96875 -65.25 121.4375 C-67.5 120 -67.5 120 -68.5 117 C-68.974375 116.5875 -69.44875 116.175 -69.9375 115.75 C-73.765122 111.46306336 -73.75162086 105.32264865 -73.75878906 99.84643555 C-73.7622937 99.16897278 -73.76579834 98.49151001 -73.76940918 97.79351807 C-73.77814451 95.5744778 -73.77240467 93.35576175 -73.765625 91.13671875 C-73.76697448 89.57884155 -73.76891736 88.02096476 -73.77142334 86.46308899 C-73.77436392 83.20427424 -73.77011316 79.94556949 -73.76074219 76.68676758 C-73.74937681 72.53454872 -73.75589534 68.38258931 -73.76788712 64.23038006 C-73.77515903 61.01394239 -73.77279299 57.79756487 -73.76763153 54.58112526 C-73.76630825 53.05150127 -73.7678958 51.52187161 -73.77259064 49.99225426 C-73.82032771 30.06201059 -73.82032771 30.06201059 -69.375 20.875 C-69.02179688 20.12992188 -68.66859375 19.38484375 -68.3046875 18.6171875 C-67.90636719 17.81667969 -67.90636719 17.81667969 -67.5 17 C-66.84 17 -66.18 17 -65.5 17 C-65.314375 16.319375 -65.12875 15.63875 -64.9375 14.9375 C-62.90693886 10.78809245 -59.82490629 8.14498712 -56.5 5 C-55.613125 4.071875 -54.72625 3.14375 -53.8125 2.1875 C-50.01487802 -1.40484512 -45.67924259 -2.7044193 -40.77734375 -4.26953125 C-38.92031682 -4.8651814 -37.08177085 -5.51819911 -35.25 -6.1875 C-22.7446988 -8.89698193 -10.96895042 -6.40261699 0 0 Z " fill="#FEFEFE" transform="translate(140.5,54)"/>
<path d="M0 0 C0.495 9.405 0.495 9.405 1 19 C-1.99282736 20.49641368 -5.06278606 20.14222979 -8.34375 20.1328125 C-9.43109436 20.13424759 -9.43109436 20.13424759 -10.54040527 20.13571167 C-12.07364997 20.13639243 -13.60689755 20.13454536 -15.14013672 20.13037109 C-17.49062558 20.12502134 -19.84092335 20.13031953 -22.19140625 20.13671875 C-23.67968792 20.13605795 -25.16796948 20.13477675 -26.65625 20.1328125 C-27.36148804 20.13483673 -28.06672607 20.13686096 -28.79333496 20.13894653 C-33.77007514 20.11496243 -33.77007514 20.11496243 -36 19 C-35.67 19.99 -35.34 20.98 -35 22 C-35 25.63 -35 29.26 -35 33 C-25.43 33 -15.86 33 -6 33 C-4.74566542 36.76300374 -4.89304578 40.27210909 -4.9375 44.1875 C-4.94201172 44.93708984 -4.94652344 45.68667969 -4.95117188 46.45898438 C-4.96293646 48.30602383 -4.98087135 50.15302213 -5 52 C-7.74524552 53.37262276 -9.96219295 53.1296881 -13.03125 53.1328125 C-14.23394531 53.13410156 -15.43664062 53.13539062 -16.67578125 53.13671875 C-17.93777344 53.13285156 -19.19976562 53.12898438 -20.5 53.125 C-21.76199219 53.12886719 -23.02398437 53.13273437 -24.32421875 53.13671875 C-25.52691406 53.13542969 -26.72960937 53.13414063 -27.96875 53.1328125 C-29.07669922 53.13168457 -30.18464844 53.13055664 -31.32617188 53.12939453 C-34 53 -34 53 -36 52 C-35.67 52.99 -35.34 53.98 -35 55 C-34.90712229 56.68545724 -34.87002796 58.374493 -34.875 60.0625 C-34.87113281 61.37927734 -34.87113281 61.37927734 -34.8671875 62.72265625 C-35 65 -35 65 -36 67 C-23.79 67 -11.58 67 1 67 C1 73.27 1 79.54 1 86 C-11.1513553 86.77837863 -23.21793696 87.15963494 -35.39282227 87.13037109 C-38.11935687 87.12488561 -40.84573519 87.13042247 -43.57226562 87.13671875 C-45.3098962 87.13605992 -47.04752667 87.13478282 -48.78515625 87.1328125 C-50.00514061 87.13584885 -50.00514061 87.13584885 -51.24977112 87.13894653 C-56.88497175 87.11502825 -56.88497175 87.11502825 -58 86 C-58.10043271 83.35799939 -58.1361685 80.7421141 -58.12939453 78.09960938 C-58.13114685 77.27201614 -58.13289917 76.44442291 -58.13470459 75.5917511 C-58.13912393 72.84239638 -58.13618483 70.09310543 -58.1328125 67.34375 C-58.13348552 65.44185371 -58.13445552 63.53995751 -58.13571167 61.63806152 C-58.13718875 57.64655745 -58.13503375 53.65507571 -58.13037109 49.66357422 C-58.1246738 44.53509493 -58.12795275 39.40666798 -58.13394356 34.27819061 C-58.13754889 30.34925946 -58.13641072 26.42034082 -58.13381577 22.4914093 C-58.13314642 20.59987888 -58.13397519 18.70834735 -58.13629532 16.81681824 C-58.13882138 14.17797823 -58.13498191 11.53922419 -58.12939453 8.90039062 C-58.13141876 8.11074417 -58.13344299 7.32109772 -58.13552856 6.50752258 C-58.11426251 1.11426251 -58.11426251 1.11426251 -57 0 C-55.40088026 -0.12799873 -53.79628091 -0.18835079 -52.19238281 -0.22119141 C-51.1675177 -0.24436432 -50.14265259 -0.26753723 -49.08673096 -0.29141235 C-47.97014099 -0.3112619 -46.85355103 -0.33111145 -45.703125 -0.3515625 C-43.99174347 -0.38629166 -43.99174347 -0.38629166 -42.24578857 -0.42172241 C-39.82471316 -0.46945756 -37.40358712 -0.51467964 -34.98242188 -0.55761719 C-31.2797526 -0.62446287 -27.57742876 -0.70230696 -23.875 -0.78125 C-21.52605435 -0.82618855 -19.17709621 -0.87048037 -16.828125 -0.9140625 C-15.71963196 -0.93796051 -14.61113892 -0.96185852 -13.46905518 -0.98648071 C-11.91284454 -1.0117836 -11.91284454 -1.0117836 -10.32519531 -1.03759766 C-9.41554016 -1.05456696 -8.50588501 -1.07153625 -7.56866455 -1.08901978 C-5 -1 -5 -1 0 0 Z " fill="#FEFEFE" transform="translate(444,21)"/>
<path d="M0 0 C1.00417969 -0.02900391 2.00835937 -0.05800781 3.04296875 -0.08789062 C13.14569614 -0.17284241 22.01163439 3.07642104 30 9.3125 C33.60850048 12.87190524 36.67596549 16.79354402 39 21.3125 C39 21.9725 39 22.6325 39 23.3125 C39.66 23.6425 40.32 23.9725 41 24.3125 C41.495 25.7975 41.495 25.7975 42 27.3125 C35.4 29.2925 28.8 31.2725 22 33.3125 C18 28.3125 18 28.3125 18 26.3125 C17.01 25.9825 16.02 25.6525 15 25.3125 C15 24.6525 15 23.9925 15 23.3125 C5.7920176 20.10041312 -3.84559891 18.97620475 -13 23.3125 C-13.33 24.3025 -13.66 25.2925 -14 26.3125 C-14.66 26.3125 -15.32 26.3125 -16 26.3125 C-16.28875 27.22 -16.5775 28.1275 -16.875 29.0625 C-18 32.3125 -18 32.3125 -19.0390625 34.0078125 C-21.72186592 40.44217842 -21.2307532 50.09778818 -18.76171875 56.546875 C-14.94954617 62.94148708 -11.60044403 66.54779037 -4.47265625 68.73828125 C2.08796726 70.26183837 7.18291784 69.91355086 13 66.3125 C16.24849977 64.59023504 16.24849977 64.59023504 17 61.3125 C18.375 59.8125 18.375 59.8125 20 58.3125 C21.00244199 57.31494797 22.00278938 56.31528162 23 55.3125 C29.45611974 57.40093282 35.81888753 59.50290342 42 62.3125 C42 62.9725 42 63.6325 42 64.3125 C41.34 64.3125 40.68 64.3125 40 64.3125 C39.62875 65.364375 39.62875 65.364375 39.25 66.4375 C34.80110427 76.66996018 26.21439211 83.45680312 16 87.5 C3.84184477 90.79283371 -9.59305745 90.22937096 -21.09375 84.87109375 C-27.56507356 81.03985686 -31.85870543 76.52982016 -36 70.3125 C-36.50660156 69.62929687 -37.01320313 68.94609375 -37.53515625 68.2421875 C-40.93710283 63.4093386 -41.5251071 60.19369947 -41 54.3125 C-41.66 53.9825 -42.32 53.6525 -43 53.3125 C-42.67 51.9925 -42.34 50.6725 -42 49.3125 C-42.66 49.3125 -43.32 49.3125 -44 49.3125 C-44.0712976 45.03464388 -44.09536878 41.44611794 -43 37.3125 C-42.90460938 36.58933594 -42.80921875 35.86617187 -42.7109375 35.12109375 C-41.18969887 24.38397926 -34.05731694 14.4218973 -26 7.3125 C-21.81135584 4.98547547 -17.40849619 3.177633 -13 1.3125 C-9.09845492 -0.63827254 -4.29062314 0.04007431 0 0 Z " fill="#FEFEFE" transform="translate(497,19.6875)"/>
<path d="M0 0 C0 0.66 0 1.32 0 2 C0.639375 2.268125 1.27875 2.53625 1.9375 2.8125 C4 4 4 4 5 7 C5.66 7 6.32 7 7 7 C11.3984645 15.3970686 13.10181488 22.51771435 12 32 C10.76098906 35.65286094 9.09148398 38.7688088 7 42 C6.401875 42.928125 5.80375 43.85625 5.1875 44.8125 C0.46596496 49.53403504 -6.01108269 53.67312599 -12.77075195 54.22705078 C-13.75003662 54.21657715 -14.72932129 54.20610352 -15.73828125 54.1953125 C-17.33833008 54.18564453 -17.33833008 54.18564453 -18.97070312 54.17578125 C-20.07349609 54.15902344 -21.17628906 54.14226562 -22.3125 54.125 C-23.43462891 54.11597656 -24.55675781 54.10695312 -25.71289062 54.09765625 C-28.47547909 54.07414486 -31.23762932 54.04128155 -34 54 C-33.67 54.99 -33.34 55.98 -33 57 C-32.98421397 58.84802969 -33.03318873 60.69696343 -33.12109375 62.54296875 C-33.19360352 64.15268555 -33.19360352 64.15268555 -33.26757812 65.79492188 C-33.32365234 66.91447266 -33.37972656 68.03402344 -33.4375 69.1875 C-33.48970703 70.31865234 -33.54191406 71.44980469 -33.59570312 72.61523438 C-33.72543807 75.4104328 -33.86040641 78.2052794 -34 81 C-39.02148138 81.69299743 -43.85782182 82.13685456 -48.9375 82.125 C-50.62166016 82.12886719 -50.62166016 82.12886719 -52.33984375 82.1328125 C-55 82 -55 82 -56 81 C-56.09512944 78.32212027 -56.12555279 75.67011131 -56.11352539 72.99194336 C-56.11367142 72.15299026 -56.11381744 71.31403717 -56.1139679 70.44966125 C-56.1132685 67.66302956 -56.10547485 64.87646384 -56.09765625 62.08984375 C-56.09579217 60.16313209 -56.09436822 58.23641995 -56.09336853 56.30970764 C-56.08954259 51.22812603 -56.07971166 46.1465728 -56.06866455 41.06500244 C-56.05845206 35.88383366 -56.05387126 30.70266031 -56.04882812 25.52148438 C-56.03808946 15.34764375 -56.02101213 5.17382423 -56 -5 C-51.99224855 -5.16557609 -47.98441441 -5.32906266 -43.9765625 -5.4921875 C-42.84806885 -5.53883545 -41.7195752 -5.5854834 -40.55688477 -5.63354492 C-25.66712155 -6.23696358 -13.6672261 -6.69768223 0 0 Z M-34 14 C-34 20.93 -34 27.86 -34 35 C-29.66875 35.061875 -29.66875 35.061875 -25.25 35.125 C-24.34668945 35.14320801 -23.44337891 35.16141602 -22.51269531 35.18017578 C-21.79178711 35.1851709 -21.07087891 35.19016602 -20.328125 35.1953125 C-19.22839355 35.21102295 -19.22839355 35.21102295 -18.10644531 35.22705078 C-15.65649521 34.9629741 -14.08814473 34.29451436 -12 33 C-9.51104069 28.76876918 -9.83854879 24.76281059 -10 20 C-10.66 20 -11.32 20 -12 20 C-12 19.01 -12 18.02 -12 17 C-17.01906189 13.98381296 -20.72124289 13.61470602 -26.375 13.8125 C-28.89125 13.874375 -31.4075 13.93625 -34 14 Z " fill="#FEFEFE" transform="translate(331,26)"/>
<path d="M0 0 C0 6.27 0 12.54 0 19 C-2.99282736 20.49641368 -6.06278606 20.14222979 -9.34375 20.1328125 C-10.43109436 20.13424759 -10.43109436 20.13424759 -11.54040527 20.13571167 C-13.07364997 20.13639243 -14.60689755 20.13454536 -16.14013672 20.13037109 C-18.49062558 20.12502134 -20.84092335 20.13031953 -23.19140625 20.13671875 C-24.67968792 20.13605795 -26.16796948 20.13477675 -27.65625 20.1328125 C-28.36148804 20.13483673 -29.06672607 20.13686096 -29.79333496 20.13894653 C-34.77007514 20.11496243 -34.77007514 20.11496243 -37 19 C-37 23.95 -37 28.9 -37 34 C-35.515 33.505 -35.515 33.505 -34 33 C-31.86205475 32.9166196 -29.72157991 32.89266253 -27.58203125 32.90234375 C-26.32841797 32.90556641 -25.07480469 32.90878906 -23.78320312 32.91210938 C-21.81770508 32.92467773 -21.81770508 32.92467773 -19.8125 32.9375 C-18.47721519 32.94251683 -17.14192859 32.94707941 -15.80664062 32.95117188 C-12.5377412 32.96297296 -9.26886498 32.98090864 -6 33 C-6 39.27 -6 45.54 -6 52 C-10.09330497 52.16566925 -14.18653481 52.32810711 -18.28027344 52.48217773 C-19.67325222 52.53559149 -21.06615893 52.59092043 -22.45898438 52.64819336 C-24.45943602 52.73012069 -26.4601875 52.80462098 -28.4609375 52.87890625 C-29.66540527 52.9260376 -30.86987305 52.97316895 -32.11083984 53.02172852 C-35 53 -35 53 -37 52 C-37 56.95 -37 61.9 -37 67 C-24.79 66.67 -12.58 66.34 0 66 C1.1482685 68.296537 1.11561175 69.58313167 1.09765625 72.1328125 C1.09443359 72.93847656 1.09121094 73.74414062 1.08789062 74.57421875 C1.07532227 75.83685547 1.07532227 75.83685547 1.0625 77.125 C1.05798828 77.97449219 1.05347656 78.82398437 1.04882812 79.69921875 C1.03702874 81.79950909 1.01909306 83.8997633 1 86 C-1.59327843 87.29663922 -3.46408068 87.12003569 -6.36767578 87.11352539 C-8.07274292 87.11334412 -8.07274292 87.11334412 -9.81225586 87.11315918 C-11.01116455 87.10804321 -12.21007324 87.10292725 -13.4453125 87.09765625 C-14.54415771 87.09664917 -15.64300293 87.09564209 -16.77514648 87.09460449 C-20.89177489 87.08936056 -25.00838846 87.07539937 -29.125 87.0625 C-42.923125 87.0315625 -42.923125 87.0315625 -57 87 C-57 58.29 -57 29.58 -57 0 C-48.523125 -0.185625 -40.04625 -0.37125 -31.3125 -0.5625 C-28.64325439 -0.62381104 -25.97400879 -0.68512207 -23.22387695 -0.74829102 C-21.10368739 -0.7922659 -18.9834893 -0.83583205 -16.86328125 -0.87890625 C-15.76608765 -0.90561401 -14.66889404 -0.93232178 -13.53845215 -0.95983887 C-12.48331421 -0.98026245 -11.42817627 -1.00068604 -10.34106445 -1.02172852 C-8.97205742 -1.05170677 -8.97205742 -1.05170677 -7.57539368 -1.08229065 C-5 -1 -5 -1 0 0 Z " fill="#FEFEFE" transform="translate(605,21)"/>
<path d="M0 0 C1.0209375 -0.020625 2.041875 -0.04125 3.09375 -0.0625 C13.00156869 -0.11343994 20.58766929 2.3045057 27.875 9.25 C31.10400765 13.30776022 32.875 15.98091612 32.875 21.25 C30.31513121 22.09226 27.75260985 22.92398551 25.1875 23.75 C24.46626953 23.98847656 23.74503906 24.22695313 23.00195312 24.47265625 C15.69325668 26.80876927 15.69325668 26.80876927 11.875 26.25 C10.25 23.875 10.25 23.875 8.875 21.25 C4.42047875 18.28031916 -0.03076317 18.90096053 -5.125 19.75 C-6.115 19.9975 -6.115 19.9975 -7.125 20.25 C-8.21597815 25.15635695 -8.21597815 25.15635695 -6.9765625 29.89453125 C-4.67941919 32.81684647 -3.42311459 33.08552966 0.1875 33.75 C12.41511883 36.39461258 22.72073058 39.18806887 30.25 49.5625 C34.39140123 56.831749 34.30287671 65.91132765 32.171875 73.87890625 C29.20799008 80.49741198 23.51499901 84.619057 16.875 87.25 C4.71207808 90.46133252 -7.61670164 90.73931386 -19.125 85.25 C-24.25820335 82.05027797 -28.43765075 78.78277788 -31.125 73.25 C-31.785 72.59 -32.445 71.93 -33.125 71.25 C-32.75 69.125 -32.75 69.125 -32.125 67.25 C-29.18877536 66.41193384 -26.25117933 65.57937556 -23.3125 64.75 C-22.06243164 64.39228516 -22.06243164 64.39228516 -20.78710938 64.02734375 C-19.58344727 63.68896484 -19.58344727 63.68896484 -18.35546875 63.34375 C-17.61707764 63.13427734 -16.87868652 62.92480469 -16.11791992 62.70898438 C-14.125 62.25 -14.125 62.25 -11.125 62.25 C-10.939375 63.013125 -10.75375 63.77625 -10.5625 64.5625 C-8.49124031 68.43485507 -6.24881587 68.96553276 -2.125 70.25 C1.724123 70.64818514 4.14961418 70.53384662 7.75 69.125 C10.08871092 67.34941427 10.08871092 67.34941427 11 64.375 C11.13991111 61.13673077 11.13991111 61.13673077 9.0625 58.5 C5.38519422 55.90425475 2.60900353 55.33696506 -1.765625 54.64453125 C-4.42755987 54.19940638 -6.66388488 53.34382894 -9.125 52.25 C-10.0325 52.0025 -10.94 51.755 -11.875 51.5 C-19.03494052 48.74617672 -25.39374161 44.42751591 -29.0234375 37.546875 C-31.74526595 31.40403281 -32.54971291 24.37049323 -30.328125 17.9453125 C-29.35486857 15.9613667 -28.30359262 14.11840435 -27.125 12.25 C-26.48691406 11.00089844 -26.48691406 11.00089844 -25.8359375 9.7265625 C-23.75488894 6.71426847 -21.81131029 5.64387205 -18.5625 4 C-17.59183594 3.49984375 -16.62117187 2.9996875 -15.62109375 2.484375 C-14.79738281 2.07703125 -13.97367188 1.6696875 -13.125 1.25 C-9.2012827 -0.71185865 -4.31447467 0.02130605 0 0 Z " fill="#FEFEFE" transform="translate(648.125,19.75)"/>
<path d="M0 0 C0.928125 0.8971875 0.928125 0.8971875 1.875 1.8125 C1.875 2.4725 1.875 3.1325 1.875 3.8125 C2.535 3.8125 3.195 3.8125 3.875 3.8125 C9.14623773 13.51857981 11.39211808 22.77937183 8.6875 33.6875 C5.59932725 43.17162164 0.66826551 49.60645688 -7.9609375 54.94921875 C-16.62180998 58.82581014 -27.30692961 58.90441857 -36.125 55.8125 C-45.7313205 51.51555517 -50.09282471 45.34309615 -54.125 35.8125 C-57.1416435 26.76256951 -55.81831665 15.8807052 -51.734375 7.4375 C-46.4578686 -1.16884054 -39.53176742 -5.58580815 -29.875 -8 C-18.08189106 -8.58965545 -9.68336754 -6.77835728 0 0 Z M-38.125 10.8125 C-40.19532881 13.78075898 -40.19532881 13.78075898 -41.125 16.8125 C-41.351875 17.451875 -41.57875 18.09125 -41.8125 18.75 C-42.80240145 25.28334957 -41.91647168 30.87224827 -39.125 36.8125 C-35.53475941 41.27604235 -31.58431394 44.39440411 -25.765625 45.09765625 C-20.2320003 45.29049469 -15.98955653 44.67400384 -11.125 41.8125 C-7.03217731 37.81062893 -5.03671394 34.46512642 -4.125 28.8125 C-4.13625453 20.45038314 -4.83730961 14.10019039 -10.9375 8 C-14.36102089 5.65052488 -16.03076889 5.05333712 -20.125 4.8125 C-20.805625 4.72742188 -21.48625 4.64234375 -22.1875 4.5546875 C-28.86825135 4.02115527 -33.22893135 6.34305974 -38.125 10.8125 Z " fill="#FDFDFD" transform="translate(825.125,160.1875)"/>
<path d="M0 0 C6.51439453 7.23993136 8.61834309 14.56673591 8.6875 24.125 C8.69386475 24.88143799 8.70022949 25.63787598 8.70678711 26.41723633 C8.52170461 34.55997237 5.37041583 41.49549805 -0.30859375 47.44140625 C-7.87372998 54.41251331 -16.53113515 57.19172816 -26.671875 57.09375 C-33.71554306 56.60314625 -39.18367566 54.09661825 -44.8125 49.875 C-45.67875 49.2975 -46.545 48.72 -47.4375 48.125 C-50.60269018 45.12639878 -52.11894518 41.84634908 -53.8125 37.875 C-54.17730469 37.17890625 -54.54210937 36.4828125 -54.91796875 35.765625 C-56.27307786 31.38666981 -56.02115787 27.11541862 -55.9375 22.5625 C-55.92847656 21.63115234 -55.91945313 20.69980469 -55.91015625 19.74023438 C-55.88668263 17.4515564 -55.85384729 15.16341328 -55.8125 12.875 C-55.1525 12.875 -54.4925 12.875 -53.8125 12.875 C-53.77125 12.215 -53.73 11.555 -53.6875 10.875 C-51.45545193 3.22226377 -45.36426461 -1.98919859 -38.8125 -6.125 C-26.19038282 -12.58998685 -10.24560021 -9.16595632 0 0 Z M-38.8125 9.875 C-42.84784798 15.61634875 -43.91059778 21.99802397 -42.8125 28.875 C-41.06578799 34.21788379 -38.19909135 38.32394986 -33.8125 41.875 C-27.92415227 44.62289561 -21.84379618 44.69604181 -15.6875 42.875 C-10.95696451 40.92493705 -8.2483969 37.26635739 -5.8125 32.875 C-3.89066957 27.05127142 -4.19906902 20.84443629 -6 15.0625 C-8.93622099 9.89880102 -12.56341883 6.59082896 -17.8125 3.875 C-26.08182908 2.38513484 -32.87903427 3.79100237 -38.8125 9.875 Z " fill="#FDFDFD" transform="translate(378.8125,161.125)"/>
<path d="M0 0 C34.75757576 0 34.75757576 0 43 8 C47.12777993 13.0123042 47.30621819 19.55504539 46.75 25.8125 C44.68170123 31.84503809 40.85248648 35.1313053 36 39 C37.27015331 41.22955653 38.54110048 43.45865426 39.8125 45.6875 C40.16892578 46.31333984 40.52535156 46.93917969 40.89257812 47.58398438 C41.24384766 48.19951172 41.59511719 48.81503906 41.95703125 49.44921875 C42.3020166 50.05427246 42.64700195 50.65932617 43.00244141 51.28271484 C43.89329691 52.8163119 44.82490581 54.32606811 45.76171875 55.83203125 C47 58 47 58 47 60 C47.66 60 48.32 60 49 60 C49.33 60.99 49.66 61.98 50 63 C46.99686252 64.50156874 44.20932478 64.09281204 40.875 64.0625 C39.59367188 64.05347656 38.31234375 64.04445313 36.9921875 64.03515625 C36.00476563 64.02355469 35.01734375 64.01195312 34 64 C33.67837891 63.3387915 33.35675781 62.67758301 33.02539062 61.99633789 C31.54742147 59.00218532 30.02470391 56.03310702 28.5 53.0625 C27.9946875 52.02158203 27.489375 50.98066406 26.96875 49.90820312 C26.453125 48.91884766 25.9375 47.92949219 25.40625 46.91015625 C24.94541016 45.99371338 24.48457031 45.07727051 24.00976562 44.13305664 C21.56321883 41.08259538 21.56321883 41.08259538 14 41 C14 48.26 14 55.52 14 63 C9.38 63.33 4.76 63.66 0 64 C0 42.88 0 21.76 0 0 Z M14 12 C13.67 17.61 13.34 23.22 13 29 C15.371875 29.103125 17.74375 29.20625 20.1875 29.3125 C21.29387817 29.38078003 21.29387817 29.38078003 22.42260742 29.45043945 C26.31632414 29.53194196 27.87071265 29.10223119 30.94921875 26.66796875 C33.19687057 24.14412651 33.19687057 24.14412651 33.625 21 C32.79456673 17.01392031 31.11743323 15.53744565 28 13 C24.85069107 11.95023036 22.61185544 11.89868405 19.3125 11.9375 C17.559375 11.958125 15.80625 11.97875 14 12 Z " fill="#FEFEFE" transform="translate(957,153)"/>
<path d="M0 0 C34.41891892 0 34.41891892 0 45 9 C52.15348758 16.6845325 54.59727728 24.18395323 55.125 34.5625 C54.94501849 39.51199151 53.63850471 42.86634262 51 47 C50.57460938 47.69738281 50.14921875 48.39476562 49.7109375 49.11328125 C44.71759258 56.51961129 38.36697599 60.211008 30 63 C20.1 63 10.2 63 0 63 C0 42.21 0 21.42 0 0 Z M14 13 C14 25.54 14 38.08 14 51 C26.36444563 51.35910583 26.36444563 51.35910583 35.8125 45.25 C39.32980497 40.02428976 41.80025074 35.4020059 41 29 C38.87527249 22.73764524 35.81451903 18.11088927 30.5 14.125 C25.54999817 12.33698011 25.54999817 12.33698011 14 13 Z " fill="#FEFEFE" transform="translate(482,153)"/>
<path d="M0 0 C33.74170616 0 33.74170616 0 40.33984375 4.6484375 C40.86707031 5.21820313 41.39429688 5.78796875 41.9375 6.375 C42.48277344 6.93960938 43.02804687 7.50421875 43.58984375 8.0859375 C47.81861859 13.82582579 47.72843098 20.14364335 47 27 C45.27106149 32.43240339 41.42070218 35.68447336 37 39 C39.84903661 44.93470417 43.21819864 50.51754932 46.59179688 56.16210938 C47.02943359 56.89880859 47.46707031 57.63550781 47.91796875 58.39453125 C48.31781982 59.06331299 48.7176709 59.73209473 49.12963867 60.42114258 C50 62 50 62 50 63 C45.05 63.33 40.1 63.66 35 64 C35 63.34 35 62.68 35 62 C34.01 61.505 34.01 61.505 33 61 C31.96537384 59.01769106 30.97153348 57.0139818 30 55 C28.17119781 51.85148402 26.30080715 48.73053613 24.42578125 45.609375 C23 43 23 43 23 41 C20.03 41 17.06 41 14 41 C14.33 41.99 14.66 42.98 15 44 C15.01546261 45.48354153 14.96835798 46.96829574 14.87890625 48.44921875 C14.83056641 49.29677734 14.78222656 50.14433594 14.73242188 51.01757812 C14.67634766 51.89865234 14.62027344 52.77972656 14.5625 53.6875 C14.51029297 54.58017578 14.45808594 55.47285156 14.40429688 56.39257812 C14.27472126 58.59536351 14.13804014 60.79772885 14 63 C9.38 63 4.76 63 0 63 C0 42.21 0 21.42 0 0 Z M14 12 C14 17.61 14 23.22 14 29 C16.3925 29.0825 18.785 29.165 21.25 29.25 C22.37003418 29.30462402 22.37003418 29.30462402 23.51269531 29.36035156 C26.91352608 29.41706257 28.68609688 29.23707015 31.42578125 27.16796875 C33.47181098 24.35023551 33.92902182 22.47793072 34 19 C32.70383408 15.64521762 31.68869711 14.36156598 28.5 12.6875 C23.60051611 11.72510138 18.99158467 11.87825403 14 12 Z " fill="#FEFEFE" transform="translate(398,153)"/>
<path d="M0 0 C0 28.38 0 56.76 0 86 C-19 87 -19 87 -22 86 C-22.02312283 74.93465142 -22.04091478 63.86930855 -22.05181217 52.80394077 C-22.05704113 47.66640434 -22.06413901 42.52888437 -22.07543945 37.39135742 C-22.08626787 32.4376859 -22.09227674 27.48403026 -22.09487724 22.53034782 C-22.09673157 20.63602384 -22.10035234 18.74170076 -22.10573006 16.8473835 C-22.11293989 14.20365614 -22.11399097 11.55999529 -22.11352539 8.91625977 C-22.11712067 8.12504227 -22.12071594 7.33382477 -22.12442017 6.51863098 C-22.11405216 1.11405216 -22.11405216 1.11405216 -21 0 C-18.59711126 -0.26665843 -16.22293185 -0.46963567 -13.8125 -0.625 C-12.49894531 -0.72039063 -11.18539063 -0.81578125 -9.83203125 -0.9140625 C-6 -1 -6 -1 0 0 Z " fill="#FEFEFE" transform="translate(372,21)"/>
<path d="M0 0 C3.67446295 3.04436551 6.56276192 5.61729136 7.7265625 10.41796875 C3.43802556 12.30492501 -0.80105097 13.99989497 -5.2734375 15.41796875 C-5.8715625 14.44859375 -6.4696875 13.47921875 -7.0859375 12.48046875 C-8.98471259 9.18744833 -8.98471259 9.18744833 -12.2734375 8.41796875 C-17.88534776 7.8443632 -17.88534776 7.8443632 -22.7734375 10.10546875 C-24.41288794 12.33609233 -24.41288794 12.33609233 -24.8359375 14.98046875 C-24.51305463 17.59553348 -24.51305463 17.59553348 -22.16796875 18.94921875 C-18.9489651 20.58261331 -15.89422452 21.46431079 -12.3984375 22.35546875 C-3.84637918 24.7479026 1.84521484 27.02522786 6.69140625 34.84375 C8.91594858 40.37572507 7.75654061 45.92433752 5.5390625 51.29296875 C0.94720245 56.6765288 -4.46837709 60.92282021 -11.60546875 61.8515625 C-19.12407529 61.86000089 -24.77721191 61.29431735 -31.2734375 57.41796875 C-32.3871875 56.79921875 -33.5009375 56.18046875 -34.6484375 55.54296875 C-37.66479739 53.1011536 -38.86846958 51.00844233 -40.2734375 47.41796875 C-40.2734375 46.75796875 -40.2734375 46.09796875 -40.2734375 45.41796875 C-30.94623162 41.6238511 -30.94623162 41.6238511 -27.2734375 42.41796875 C-24.5859375 44.85546875 -24.5859375 44.85546875 -22.2734375 47.41796875 C-18.47170202 49.31883649 -13.81828815 48.89330741 -9.8359375 47.66796875 C-8.1610793 46.50172668 -8.1610793 46.50172668 -7.3359375 44.60546875 C-7.24513882 41.42751511 -8.41163831 39.95714594 -10.2734375 37.41796875 C-12.75164997 36.00256333 -12.75164997 36.00256333 -15.5859375 35.16796875 C-16.56691406 34.84183594 -17.54789063 34.51570313 -18.55859375 34.1796875 C-21.33392361 33.33301753 -21.33392361 33.33301753 -24.5234375 32.98046875 C-29.7022532 31.92116554 -33.10046711 28.62101531 -36.7109375 24.91796875 C-39.09165622 19.58515881 -39.07237477 14.16887758 -38.2734375 8.41796875 C-36.82421875 5.6484375 -36.82421875 5.6484375 -35.2734375 3.41796875 C-34.8609375 2.71671875 -34.4484375 2.01546875 -34.0234375 1.29296875 C-25.85818706 -7.45551387 -9.15971616 -6.37402929 0 0 Z " fill="#FDFDFD" transform="translate(1054.2734375,156.58203125)"/>
<path d="M0 0 C13.2 0 26.4 0 40 0 C41 2 41 2 41 12 C27.635 12.495 27.635 12.495 14 13 C13.67 17.29 13.34 21.58 13 26 C13.99 25.67 14.98 25.34 16 25 C17.62719482 24.91856145 19.25751719 24.8924698 20.88671875 24.90234375 C21.82451172 24.90556641 22.76230469 24.90878906 23.72851562 24.91210938 C24.70498047 24.92048828 25.68144531 24.92886719 26.6875 24.9375 C27.67556641 24.94201172 28.66363281 24.94652344 29.68164062 24.95117188 C32.12111958 24.9629568 34.56056741 24.98089217 37 25 C37 28.96 37 32.92 37 37 C29.08 37 21.16 37 13 37 C13 41.62 13 46.24 13 51 C22.24 51 31.48 51 41 51 C41.495 56.94 41.495 56.94 42 63 C38.61606992 64.69196504 34.77522209 64.11986549 31.0546875 64.09765625 C30.1696756 64.0962413 29.2846637 64.09482635 28.37283325 64.09336853 C25.54018809 64.0877614 22.70762136 64.07520771 19.875 64.0625 C17.95703239 64.05748592 16.03906354 64.05292285 14.12109375 64.04882812 C9.41403218 64.03778966 4.7070294 64.02052025 0 64 C-1.09622405 27.4193532 -1.09622405 27.4193532 -1.125 14.5625 C-1.13176758 13.35267456 -1.13176758 13.35267456 -1.13867188 12.1184082 C-1.12760536 7.88869385 -0.70406627 4.22439761 0 0 Z " fill="#FEFEFE" transform="translate(902,153)"/>
<path d="M0 0 C13.53 0 27.06 0 41 0 C41 4.29 41 8.58 41 13 C27.14 12.505 27.14 12.505 13 12 C13 16.62 13 21.24 13 26 C13.99 25.67 14.98 25.34 16 25 C17.62719482 24.91856145 19.25751719 24.8924698 20.88671875 24.90234375 C21.82451172 24.90556641 22.76230469 24.90878906 23.72851562 24.91210938 C24.70498047 24.92048828 25.68144531 24.92886719 26.6875 24.9375 C27.67556641 24.94201172 28.66363281 24.94652344 29.68164062 24.95117188 C32.12111958 24.9629568 34.56056741 24.98089217 37 25 C37 28.96 37 32.92 37 37 C29.08 37 21.16 37 13 37 C13 41.62 13 46.24 13 51 C22.24 51 31.48 51 41 51 C41 54.96 41 58.92 41 63 C27.47 63.33 13.94 63.66 0 64 C0 42.88 0 21.76 0 0 Z " fill="#FEFEFE" transform="translate(669,153)"/>
<path d="M0 0 C4.45810752 -0.11734237 8.91581128 -0.18763372 13.375 -0.25 C14.62667969 -0.28351563 15.87835937 -0.31703125 17.16796875 -0.3515625 C25.99907343 -0.4440348 33.30755538 0.3528275 40.4375 5.89453125 C45.13949864 11.66623458 47.29633372 16.35569082 46.9375 23.9375 C46.30023443 29.01231 44.43018141 33.17443943 41 37 C40.34 37 39.68 37 39 37 C39 37.66 39 38.32 39 39 C32.47369815 42.5739272 27.00183215 43.13209276 19.625 43.0625 C16.345625 43.0315625 16.345625 43.0315625 13 43 C13.33 49.6 13.66 56.2 14 63 C9.38 63.33 4.76 63.66 0 64 C-1.01568651 60.95294048 -1.12673083 58.89421444 -1.12939453 55.70581055 C-1.13254669 54.62426193 -1.13569885 53.54271332 -1.13894653 52.4283905 C-1.1369223 51.25963882 -1.13489807 50.09088715 -1.1328125 48.88671875 C-1.13376923 47.68441116 -1.13472595 46.48210358 -1.13571167 45.24336243 C-1.13639277 42.6971532 -1.13454336 40.15094223 -1.13037109 37.60473633 C-1.12503588 33.71366448 -1.13031127 29.8227088 -1.13671875 25.93164062 C-1.13605768 23.45833308 -1.13477593 20.98502561 -1.1328125 18.51171875 C-1.13483673 17.34903976 -1.13686096 16.18636078 -1.13894653 14.9884491 C-1.13421829 13.35194145 -1.13421829 13.35194145 -1.12939453 11.68237305 C-1.12859894 10.72767624 -1.12780334 9.77297943 -1.12698364 8.78935242 C-0.99067302 5.79512147 -0.54764768 2.94451937 0 0 Z M13 12 C13 18.27 13 24.54 13 31 C22.33142021 31.96155624 22.33142021 31.96155624 30.875 29 C33.24079012 25.66006101 33.77871685 23.93610034 33.4609375 19.93359375 C32.72270309 16.83676295 31.31760329 15.12446968 29 13 C25.61009544 11.7893198 22.32039371 11.89869137 18.75 11.9375 C15.90375 11.9684375 15.90375 11.9684375 13 12 Z " fill="#FEFEFE" transform="translate(846,153)"/>
<path d="M0 0 C13.2 0 26.4 0 40 0 C40 3.96 40 7.92 40 12 C31.09 12 22.18 12 13 12 C13 16.62 13 21.24 13 26 C20.59 25.67 28.18 25.34 36 25 C36 28.96 36 32.92 36 37 C28.41 37 20.82 37 13 37 C13 41.62 13 46.24 13 51 C21.91 51 30.82 51 40 51 C40 54.96 40 58.92 40 63 C26.47 63 12.94 63 -1 63 C-0.67 42.21 -0.34 21.42 0 0 Z " fill="#FEFEFE" transform="translate(548,153)"/>
<path d="M0 0 C4.62 0 9.24 0 14 0 C14.74765625 2.06121094 15.4953125 4.12242187 16.265625 6.24609375 C17.00297969 8.2720079 17.74142915 10.29751987 18.47998047 12.32299805 C18.9873077 13.71613727 19.49352038 15.10968295 19.99853516 16.50366211 C23.78351191 27.00091098 23.78351191 27.00091098 28.32714844 37.18774414 C29 39 29 39 29 43 C30.98 42.505 30.98 42.505 33 42 C33 41.34 33 40.68 33 40 C33.66 40 34.32 40 35 40 C35.38671875 38.05867188 35.38671875 38.05867188 35.78125 36.078125 C36.89080382 31.08903969 38.58453618 26.47855085 40.5 21.75 C40.80808594 20.97398437 41.11617187 20.19796875 41.43359375 19.3984375 C42.28267131 17.26298923 43.13949483 15.13086417 44 13 C45.24385162 9.90776748 46.46049785 6.81048304 47.625 3.6875 C48.07875 2.470625 48.5325 1.25375 49 0 C53.95 0 58.9 0 64 0 C56.67578125 19.04296875 56.67578125 19.04296875 55.34033203 22.51342773 C54.43874315 24.85870841 53.53870459 27.20458559 52.64013672 29.55102539 C52.20588379 30.68403076 51.77163086 31.81703613 51.32421875 32.984375 C50.93709717 33.9959668 50.54997559 35.00755859 50.15112305 36.04980469 C48.58691403 40.05869159 46.93698412 44.02862591 45.26171875 47.9921875 C44.37127579 50.11491531 43.50072109 52.246039 42.64453125 54.3828125 C42.20496094 55.47335938 41.76539063 56.56390625 41.3125 57.6875 C40.91675781 58.68136719 40.52101563 59.67523438 40.11328125 60.69921875 C39 63 39 63 37 64 C34.7927077 64.07092842 32.58332548 64.08415025 30.375 64.0625 C29.18648437 64.05347656 27.99796875 64.04445313 26.7734375 64.03515625 C25.40058594 64.01775391 25.40058594 64.01775391 24 64 C23.608125 62.948125 23.21625 61.89625 22.8125 60.8125 C19.51641141 52.03840502 16.16636301 43.29846714 12.52734375 34.66015625 C11.25495533 31.6109799 10.00005283 28.55603581 8.75390625 25.49609375 C8.35268555 24.51116943 7.95146484 23.52624512 7.53808594 22.51147461 C6.73155864 20.52969887 5.92618835 18.5474518 5.12207031 16.56469727 C4.74791992 15.64615967 4.37376953 14.72762207 3.98828125 13.78125 C3.65352783 12.95689453 3.31877441 12.13253906 2.97387695 11.28320312 C2.05453271 9.01013069 2.05453271 9.01013069 0.87573242 7.01367188 C0 5 0 5 0 0 Z M32 43 C31.34 43.66 30.68 44.32 30 45 C30.66 45.66 31.32 46.32 32 47 C32.33 45.68 32.66 44.36 33 43 C32.67 43 32.34 43 32 43 Z " fill="#FDFDFD" transform="translate(597,153)"/>
<path d="M0 0 C13.2 0 26.4 0 40 0 C40.495 5.94 40.495 5.94 41 12 C31.76 12 22.52 12 13 12 C13.33 16.29 13.66 20.58 14 25 C16.25650391 24.98259766 16.25650391 24.98259766 18.55859375 24.96484375 C20.51822793 24.95546751 22.47786345 24.94636713 24.4375 24.9375 C25.92733398 24.92493164 25.92733398 24.92493164 27.44726562 24.91210938 C28.39150391 24.90888672 29.33574219 24.90566406 30.30859375 24.90234375 C31.62041626 24.89448853 31.62041626 24.89448853 32.95874023 24.88647461 C35 25 35 25 36 26 C36.14393457 30.33530918 36.04212061 34.66157731 36 39 C28.41 39 20.82 39 13 39 C13 46.92 13 54.84 13 63 C8.38 63.33 3.76 63.66 -1 64 C-0.67 42.88 -0.34 21.76 0 0 Z " fill="#FEFEFE" transform="translate(275,153)"/>
<path d="M0 0 C4.62 0 9.24 0 14 0 C14.33 16.5 14.66 33 15 50 C27.87 50.495 27.87 50.495 41 51 C41 55.29 41 59.58 41 64 C20.705 63.505 20.705 63.505 0 63 C0 42.21 0 21.42 0 0 Z " fill="#FEFEFE" transform="translate(724,153)"/>
<path d="M0 0 C4.21182966 1.61351995 5.39848511 3.78651974 7.22351074 7.75268555 C8.48757164 11.41112938 8.49677835 14.81960906 8.390625 18.65625 C8.38496521 19.44398804 8.37930542 20.23172607 8.37347412 21.04333496 C8.35129902 23.52954034 8.30114337 26.01423928 8.25 28.5 C8.22991039 30.19789567 8.21166396 31.89581421 8.1953125 33.59375 C8.1514969 37.72973639 8.08260605 41.8646139 8 46 C3.02943092 45.39123827 -0.61151783 44.46183146 -5 42 C-5 41.34 -5 40.68 -5 40 C-5.99 39.67 -6.98 39.34 -8 39 C-8 38.34 -8 37.68 -8 37 C-8.66 37 -9.32 37 -10 37 C-10.12375 36.195625 -10.2475 35.39125 -10.375 34.5625 C-10.58125 33.716875 -10.7875 32.87125 -11 32 C-11.66 31.67 -12.32 31.34 -13 31 C-14.76527504 23.51200328 -16.16057035 12.47404261 -12.73046875 5.37109375 C-8.87110246 0.87319484 -5.97076747 -0.35824605 0 0 Z " fill="#FEFEFE" transform="translate(109,95)"/>
<path d="M0 0 C2.5 2.0625 2.5 2.0625 4 5 C4 8.8137751 3.84985071 11.02424548 1.3125 13.9375 C-1.80517625 15.36994585 -3.59505052 15.54479192 -7 15 C-10.75470793 12.63592464 -12.6794854 11.30876797 -13.75 6.9375 C-13 4 -13 4 -10.4375 1.625 C-6.50303357 -0.23492959 -4.2927824 -0.71546373 0 0 Z M-6 2 C-3.22739701 3.93798263 -3.22739701 3.93798263 -1 5 C-1 6.65 -1 8.3 -1 10 C-0.34 10.33 0.32 10.66 1 11 C1.85974801 8.70705512 1.85974801 8.70705512 2 6 C0.41666667 3.58333333 0.41666667 3.58333333 -2 2 C-3.32 2 -4.64 2 -6 2 Z M-8 3 C-9.35618499 4.12534105 -9.35618499 4.12534105 -9.0625 7.0625 C-9.041875 8.031875 -9.02125 9.00125 -9 10 C-8.01 10.495 -8.01 10.495 -7 11 C-7 8.36 -7 5.72 -7 3 C-7.33 3 -7.66 3 -8 3 Z M-4 5 C-4.33 5.66 -4.66 6.32 -5 7 C-4.34 7 -3.68 7 -3 7 C-3.33 6.34 -3.66 5.68 -4 5 Z M-7 11 C-5.02 11.99 -5.02 11.99 -3 13 C-2.01 12.34 -1.02 11.68 0 11 C-2.31 11 -4.62 11 -7 11 Z " fill="#F6F7F5" transform="translate(694,94)"/>
<path d="M0 0 C1.25541557 3.76624671 0.37061958 5.37188934 -1 9 C-1.99 8.67 -2.98 8.34 -4 8 C-4.25 5.6875 -4.25 5.6875 -4 3 C-2 1.1875 -2 1.1875 0 0 Z " fill="#FBFCFB" transform="translate(685,95)"/>
<path d="M0 0 C1 4 1 4 1 4 Z " fill="#FFFFFF" transform="translate(546,153)"/>
<path d="" fill="#FFFFFF" transform="translate(0,0)"/>
</svg>
