<?xml version="1.0" encoding="UTF-8"?>
<svg version="1.1" xmlns="http://www.w3.org/2000/svg" width="3000" height="640">
<path d="M0 0 C990 0 1980 0 3000 0 C3000 211.2 3000 422.4 3000 640 C2010 640 1020 640 0 640 C0 428.8 0 217.6 0 0 Z " fill="#000000" transform="translate(0,0)"/>
<path d="M0 0 C43.03284948 -0.06880842 86.06569257 -0.1216008 129.09858626 -0.15319599 C134.18991046 -0.15694768 139.28123455 -0.16083069 144.37255859 -0.16479492 C145.38606278 -0.16558185 146.39956697 -0.16636878 147.4437834 -0.16717956 C163.81053154 -0.18019991 180.17724776 -0.20383499 196.54397702 -0.23145839 C213.36319549 -0.25960674 230.18239736 -0.2761961 247.00163841 -0.28226548 C257.36298167 -0.28636246 267.72423468 -0.29925745 278.08555013 -0.3237494 C285.21033182 -0.33972329 292.33506749 -0.34437429 299.45986575 -0.34050413 C303.55798993 -0.33860052 307.65595748 -0.34132021 311.75405312 -0.35761642 C329.71533493 -0.42543843 347.21292269 0.20837253 365 3 C367.11979676 3.31490857 369.23984639 3.62811941 371.36013794 3.93967915 C394.99899457 7.42192254 417.26549798 13.93182922 439.36865234 22.94311523 C441.64552262 23.85762362 443.93112134 24.71678359 446.23828125 25.55078125 C450.30946544 27.05971468 454.13978748 28.95838714 458 30.9375 C458.66 31.27201172 459.32 31.60652344 460 31.95117188 C461.33159288 32.626071 462.66216505 33.30298785 463.99169922 33.98193359 C466.03108307 35.01575692 468.0814734 36.02530367 470.1328125 37.03515625 C493.85280774 48.89226541 515.56156849 65.99266684 535.30957031 83.51513672 C537.06123269 85.05378643 538.83719747 86.56066725 540.6171875 88.06640625 C551.22798889 97.14302692 560.31478574 108.1133849 569 119 C569.74378906 119.88816406 570.48757813 120.77632813 571.25390625 121.69140625 C573 124 573 124 573 126 C573.66 126 574.32 126 575 126 C575.9398379 127.32273483 576.86595307 128.65666287 577.734375 130.02734375 C579.24116419 132.37588863 580.8338449 134.65403459 582.4375 136.9375 C583.34628906 138.236875 583.34628906 138.236875 584.2734375 139.5625 C585.28450631 140.98989126 586.3059139 142.41024291 587.3515625 143.8125 C590.54426002 148.0968941 593.06884178 152.63257179 595.5703125 157.3515625 C596.5410456 159.14980578 597.56585423 160.91968194 598.63671875 162.66015625 C600.08044027 165.13806225 600.59688174 167.17817218 601 170 C601.66 170 602.32 170 603 170 C604.27339482 172.51956743 605.54376642 175.04058649 606.8125 177.5625 C607.34713867 178.61920898 607.34713867 178.61920898 607.89257812 179.69726562 C611.23664173 186.35471335 614.09626979 193.08967243 616.5625 200.125 C618.24860873 204.94468637 618.24860873 204.94468637 620.15234375 209.6796875 C621 212 621 212 621 216 C621.66 216 622.32 216 623 216 C623.17128418 216.64026123 623.34256836 217.28052246 623.51904297 217.94018555 C624.30121128 220.8568125 625.0880588 223.77215737 625.875 226.6875 C626.14441406 227.69490234 626.41382813 228.70230469 626.69140625 229.74023438 C627.08779297 231.20493164 627.08779297 231.20493164 627.4921875 232.69921875 C627.73308105 233.59471436 627.97397461 234.49020996 628.22216797 235.4128418 C628.96808079 238.032678 628.96808079 238.032678 630.04980469 240.62109375 C631.30931154 243.77439149 631.82895319 246.97938896 632.375 250.3125 C632.4972998 251.03526123 632.61959961 251.75802246 632.74560547 252.50268555 C633.01694716 254.11077918 633.28585904 255.71928411 633.55273438 257.328125 C634.0387251 260.23133596 634.54212705 263.13124361 635.046875 266.03125 C635.40666273 268.12492912 635.76604054 270.21867872 636.125 272.3125 C636.38095947 273.77780151 636.38095947 273.77780151 636.64208984 275.27270508 C639.07092028 289.64147259 639.31427566 303.96013058 639.375 318.5 C639.37956207 319.55380859 639.38412415 320.60761719 639.38882446 321.69335938 C639.42790431 347.05737796 635.75163061 371.15357695 631 396 C630.34 396 629.68 396 629 396 C628.95875 397.27875 628.9175 398.5575 628.875 399.875 C627.49965004 413.58975739 620.8835421 427.22345009 616 440 C615.48435609 441.39712844 614.96873127 442.79426392 614.453125 444.19140625 C608.49525531 460.07650201 599.0797333 475.09797534 591 490 C590.34 490 589.68 490 589 490 C588.34 491.98 587.68 493.96 587 496 C586.34 496 585.68 496 585 496 C584.77828125 496.67546875 584.5565625 497.3509375 584.328125 498.046875 C582.61030591 501.86649627 580.2864105 504.93475604 577.75 508.25 C577.22784912 508.9394873 576.70569824 509.62897461 576.16772461 510.33935547 C570.4841556 517.78170545 564.53043002 525.00306822 558.51806641 532.1809082 C557.53955032 533.3534594 556.56734935 534.53132404 555.60302734 535.71557617 C553.39711959 538.41700187 551.21286485 540.86789471 548.5 543.0625 C544.81677055 546.12922323 541.47358368 549.4376844 538.18359375 552.92578125 C532.14364202 559.18819898 525.55043322 564.43601759 518.66308594 569.71289062 C516.30433126 571.53839777 513.99808815 573.42659939 511.6875 575.3125 C499.60309278 585 499.60309278 585 496 585 C496 585.66 496 586.32 496 587 C495.00742187 587.556875 494.01484375 588.11375 492.9921875 588.6875 C491.61971972 589.45820522 490.24732985 590.22904921 488.875 591 C488.15014404 591.40718262 487.42528809 591.81436523 486.6784668 592.23388672 C482.04294383 594.84127353 477.42319568 597.47397994 472.8125 600.125 C450.307 613 450.307 613 444 613 C444 613.66 444 614.32 444 615 C418.06106113 624.08278548 392.90000076 632.28569568 365.625 636.25 C363.95195801 636.49472046 363.95195801 636.49472046 362.24511719 636.74438477 C347.21768882 638.81390528 332.14878159 639.26616169 317 639.3125 C316.13981262 639.31545074 315.27962524 639.31840149 314.39337158 639.32144165 C292.49583064 639.3383453 271.38951399 636.76246918 250 632 C248.6180983 631.71430845 247.23547152 631.4320539 245.8515625 631.15625 C240.45378324 630.05839659 235.3321891 628.91668454 230.2421875 626.80859375 C227.11744077 625.68172516 223.90610604 624.93034852 220.6875 624.125 C214.97707321 622.6749794 209.78420733 620.72776628 204.484375 618.15625 C201.49079042 616.76300938 198.45087682 615.77690294 195.30712891 614.78515625 C188.0455995 612.31393101 181.25274394 608.65918988 174.5 605.0625 C173.31470703 604.43698242 173.31470703 604.43698242 172.10546875 603.79882812 C168.10827697 601.68247536 164.12522605 599.53990206 160.15625 597.37109375 C159.45306641 596.98751709 158.74988281 596.60394043 158.02539062 596.20874023 C155.8960294 594.93795101 153.97055665 593.5025075 152 592 C150.65831024 591.24812237 149.30329338 590.51964909 147.9375 589.8125 C142.25385771 586.69715936 137.16368382 582.90190716 132 579 C130.46666016 577.85337891 130.46666016 577.85337891 128.90234375 576.68359375 C120.64232903 570.45698841 112.78075126 563.81209253 105 557 C103.66001953 555.83017578 103.66001953 555.83017578 102.29296875 554.63671875 C96.57613949 549.60249597 91.24201812 544.33583789 86.125 538.6875 C85.32320313 537.80449219 84.52140625 536.92148437 83.6953125 536.01171875 C82.79552117 535.00902575 81.8972058 534.00500719 81 533 C80.45214844 532.38721191 79.90429688 531.77442383 79.33984375 531.14306641 C75.28617704 526.56479438 71.4517277 521.86639378 67.75 517 C67.19497803 516.27159912 66.63995605 515.54319824 66.06811523 514.79272461 C58.66847241 505.00494332 51.55527964 494.97869059 45.3984375 484.35546875 C43.80834962 481.67719223 42.09260084 479.09814305 40.375 476.5 C37.74202926 472.38705878 35.83866123 468.42017921 34.15625 463.8515625 C32.66826292 460.18186463 30.87060353 456.70784478 29.0625 453.1875 C25.54368851 446.27805366 22.6572124 439.28810988 20 432 C19.50440699 430.73185513 19.00556491 429.4649764 18.50390625 428.19921875 C15.11454556 419.5732958 12.54834477 410.99091641 10.46777344 401.96484375 C10.01475775 400.06198873 9.51205728 398.1711753 9.0078125 396.28125 C6.88309482 388.30944102 5.25328871 380.3225123 3.875 372.1875 C3.71644531 371.26453125 3.55789062 370.3415625 3.39453125 369.390625 C2.88440788 366.26558353 2.43862694 363.13592621 2 360 C1.74244777 358.20864766 1.74244777 358.20864766 1.47969246 356.38110638 C-0.52920812 340.96613973 -0.27298317 325.47760472 -0.23213124 309.9655937 C-0.22339438 305.79479164 -0.22642405 301.62399468 -0.22793579 297.45318604 C-0.22897825 290.24854851 -0.22276904 283.04394756 -0.21146011 275.83931923 C-0.19512061 265.42298152 -0.18998852 255.00666128 -0.18748413 244.59031215 C-0.1831202 227.68544225 -0.16984665 210.78059178 -0.15087891 193.87573242 C-0.13248625 177.46622819 -0.11834637 161.05672927 -0.10986328 144.6472168 C-0.10933783 143.63364305 -0.10881239 142.62006931 -0.10827102 141.5757812 C-0.10566071 136.49035499 -0.10313335 131.40492875 -0.10064721 126.31950247 C-0.0799553 84.21298814 -0.0447655 42.10649519 0 0 Z " fill="#FEFEFE" transform="translate(0,0)"/>
<path d="M0 0 C2.24417438 0.01068077 4.48753977 0.00005972 6.73168945 -0.01269531 C19.56643415 -0.02630781 32.44817492 0.76836246 44.81958008 4.44824219 C45.91967407 4.76426392 45.91967407 4.76426392 47.04199219 5.08666992 C55.54393101 7.61041475 63.75587121 10.87417402 71.94458008 14.26074219 C72.83790039 14.62039062 73.7312207 14.98003906 74.65161133 15.35058594 C81.08050408 18.04956253 86.9685512 21.69333437 92.94458008 25.26074219 C95.27205424 26.60472138 97.60778422 27.93301727 99.94458008 29.26074219 C99.94458008 29.92074219 99.94458008 30.58074219 99.94458008 31.26074219 C100.70770508 31.54949219 101.47083008 31.83824219 102.25708008 32.13574219 C104.94458008 33.26074219 104.94458008 33.26074219 107.94458008 35.26074219 C107.94458008 35.92074219 107.94458008 36.58074219 107.94458008 37.26074219 C108.6810376 37.51041748 109.41749512 37.76009277 110.17626953 38.01733398 C113.18963216 39.37080923 114.90418477 40.83309036 117.23754883 43.15527344 C118.02782471 43.93926514 118.81810059 44.72325684 119.63232422 45.53100586 C120.45724365 46.36994385 121.28216309 47.20888184 122.13208008 48.07324219 C122.98342529 48.93473877 123.83477051 49.79623535 124.71191406 50.68383789 C139.22179202 65.55171035 152.20041826 83.47453863 159.20239258 103.22167969 C160.02325741 105.47689779 160.95240364 107.67325641 161.88208008 109.88574219 C168.94107901 127.587125 171.51482682 145.64923358 171.31958008 164.57324219 C171.31492737 165.38189728 171.31027466 166.19055237 171.30548096 167.02371216 C171.22283944 179.30172975 170.76874584 191.26299237 167.94458008 203.26074219 C167.72995117 204.17903809 167.51532227 205.09733398 167.29418945 206.04345703 C165.01593931 215.51576839 162.62391154 224.37790156 158.0949707 233.04248047 C156.76940992 235.59851724 155.66792023 238.20023069 154.63208008 240.88574219 C154.30594727 241.72363281 153.97981445 242.56152344 153.64379883 243.42480469 C153.41305664 244.03066406 153.18231445 244.63652344 152.94458008 245.26074219 C152.28458008 245.26074219 151.62458008 245.26074219 150.94458008 245.26074219 C150.67645508 246.12699219 150.40833008 246.99324219 150.13208008 247.88574219 C148.9734602 251.17866183 147.56248169 254.17202093 145.94458008 257.26074219 C145.28458008 257.26074219 144.62458008 257.26074219 143.94458008 257.26074219 C143.61458008 258.58074219 143.28458008 259.90074219 142.94458008 261.26074219 C142.28458008 261.26074219 141.62458008 261.26074219 140.94458008 261.26074219 C140.71383789 261.95167969 140.4830957 262.64261719 140.24536133 263.35449219 C138.66681394 266.8813368 136.50633504 269.7465923 134.13208008 272.76074219 C133.70604492 273.31632812 133.28000977 273.87191406 132.84106445 274.44433594 C130.09589457 277.97443337 127.16209686 281.1437728 123.94458008 284.26074219 C123.37352539 284.855 122.8024707 285.44925781 122.21411133 286.06152344 C120.82884081 287.49878803 119.38779408 288.88167103 117.94458008 290.26074219 C117.28458008 290.26074219 116.62458008 290.26074219 115.94458008 290.26074219 C115.94458008 290.92074219 115.94458008 291.58074219 115.94458008 292.26074219 C114.57104492 293.52587891 114.57104492 293.52587891 112.65551758 294.94042969 C111.96071289 295.45734375 111.2659082 295.97425781 110.55004883 296.50683594 C109.81399414 297.044375 109.07793945 297.58191406 108.31958008 298.13574219 C107.60672852 298.66554688 106.89387695 299.19535156 106.15942383 299.74121094 C94.63797338 308.26074219 94.63797338 308.26074219 91.94458008 308.26074219 C91.94458008 308.92074219 91.94458008 309.58074219 91.94458008 310.26074219 C88.48671937 312.0525885 85.02174749 313.82984338 81.55029297 315.59521484 C79.80627565 316.48562532 78.06771942 317.38670697 76.3293457 318.28808594 C68.70229573 322.15593464 61.18173889 324.98902664 52.94458008 327.26074219 C51.59038761 327.67732498 50.23621577 328.09397488 48.88208008 328.51074219 C45.94458008 329.26074219 45.94458008 329.26074219 41.94458008 329.26074219 C41.94981689 329.8235791 41.95505371 330.38641602 41.96044922 330.96630859 C42.00518803 336.52411546 42.00088188 342.07987798 41.95678711 347.63769531 C41.94697346 349.74645312 41.96981122 351.85535047 42.00317383 353.96386719 C41.85864792 361.78753634 39.76345308 368.6654824 37.25708008 376.01074219 C36.93030273 376.96964355 36.60352539 377.92854492 36.2668457 378.91650391 C27.80877003 402.33793431 9.96784929 420.6647749 -11.05541992 433.26074219 C-12.09569336 433.91171875 -13.1359668 434.56269531 -14.20776367 435.23339844 C-18.8538444 437.86792377 -23.85088054 439.36648603 -28.93041992 440.94824219 C-30.34387695 441.4094043 -30.34387695 441.4094043 -31.78588867 441.87988281 C-57.87669379 450.12573201 -86.77823554 446.00348956 -110.72729492 433.56542969 C-135.31447329 419.78670892 -152.32472846 397.08334391 -161.23120117 370.56542969 C-164.15025477 358.86154654 -164.35325132 347.53440609 -164.34594727 335.55273438 C-164.35194177 333.58007556 -164.35874942 331.60741908 -164.36630249 329.63476562 C-164.38388422 324.3034436 -164.38865479 318.97218589 -164.38993406 313.64083767 C-164.39136163 310.29775524 -164.39564284 306.95468884 -164.4009285 303.61161041 C-164.41940889 291.91293818 -164.42760235 280.21431135 -164.42602539 268.515625 C-164.42482728 257.67080179 -164.44586987 246.82617865 -164.47751272 235.98140597 C-164.50382261 226.62544292 -164.51438644 217.26954457 -164.51311457 207.91354489 C-164.51260888 202.34610781 -164.51807077 196.77884837 -164.53947067 191.21144867 C-164.63835307 163.56222283 -164.41042647 137.61448015 -155.05541992 111.26074219 C-154.65323242 110.02839844 -154.25104492 108.79605469 -153.83666992 107.52636719 C-151.68319875 101.09356228 -149.24890803 95.39172749 -145.58276367 89.68261719 C-143.96952148 87.12453493 -142.57792494 84.50463394 -141.18041992 81.82324219 C-137.97763601 75.90142818 -134.15040699 70.59339325 -130.05541992 65.26074219 C-129.32323242 64.29910156 -128.59104492 63.33746094 -127.83666992 62.34667969 C-123.77094255 57.11721151 -123.77094255 57.11721151 -122.05541992 55.26074219 C-121.39541992 55.26074219 -120.73541992 55.26074219 -120.05541992 55.26074219 C-119.80791992 54.68839844 -119.56041992 54.11605469 -119.30541992 53.52636719 C-117.86225793 50.91063607 -116.1732577 49.11300763 -114.05541992 47.01074219 C-113.00354492 45.95113281 -113.00354492 45.95113281 -111.93041992 44.87011719 C-110.05541992 43.26074219 -110.05541992 43.26074219 -108.05541992 43.26074219 C-108.05541992 42.60074219 -108.05541992 41.94074219 -108.05541992 41.26074219 C-106.28034941 39.68324474 -104.51089383 38.24868263 -102.61791992 36.82324219 C-102.04243408 36.38657227 -101.46694824 35.94990234 -100.87402344 35.5 C-88.30140881 26.1084485 -74.90411103 17.1528978 -60.00073242 11.96386719 C-58.66456642 11.48091562 -57.3463381 10.94620784 -56.04760742 10.37011719 C-50.26401112 7.83097735 -44.35122225 6.18054122 -38.24291992 4.63574219 C-37.43757813 4.42965332 -36.63223633 4.22356445 -35.80249023 4.01123047 C-23.84751095 1.07838338 -12.26633024 -0.06912855 0 0 Z " fill="#030303" transform="translate(316.055419921875,96.7392578125)"/>
<path d="M0 0 C0.63631348 0.32436035 1.27262695 0.6487207 1.92822266 0.98291016 C3.95772981 2.01988818 5.98031139 3.06903566 8 4.125 C8.62350342 4.44960205 9.24700684 4.7742041 9.8894043 5.10864258 C13.59591737 7.09098542 16.7927867 9.29227074 20 12 C20.82757813 12.65097656 21.65515625 13.30195313 22.5078125 13.97265625 C35.0757326 24.00823424 47.23099353 35.70702014 55 50 C55 50.66 55 51.32 55 52 C55.66 52 56.32 52 57 52 C57.33 54.31 57.66 56.62 58 59 C58.66 59 59.32 59 60 59 C60.67528223 60.57967807 61.33989694 62.16391903 62 63.75 C62.556875 65.07257813 62.556875 65.07257813 63.125 66.421875 C64 69 64 69 64 73 C64.66 73 65.32 73 66 73 C66.73560171 75.94240683 67.47077487 78.88490654 68.203125 81.828125 C68.66174597 83.65361632 69.12670851 85.47759361 69.609375 87.296875 C76.37835531 112.93695194 72.42771608 140.73927079 63 165 C62.62101563 166.00675781 62.24203125 167.01351562 61.8515625 168.05078125 C55.57503269 183.22299428 45.53940146 196.49448811 34 208 C33.40058594 208.65871094 32.80117188 209.31742188 32.18359375 209.99609375 C26.65529558 215.99547497 19.69922319 220.41781348 13 225 C11.47632813 226.05380859 11.47632813 226.05380859 9.921875 227.12890625 C7.11479876 228.92648582 4.34736243 230.37859773 1.3125 231.75 C0.38050781 232.17796875 -0.55148437 232.6059375 -1.51171875 233.046875 C-4 234 -4 234 -7 234 C-7 234.66 -7 235.32 -7 236 C-10.63 236.99 -14.26 237.98 -18 239 C-18.00808685 237.79667526 -18.01617371 236.59335052 -18.02450562 235.3535614 C-18.10218479 223.9813159 -18.18997818 212.60918684 -18.28752708 201.23709393 C-18.33734986 195.39140354 -18.38368068 189.54573001 -18.421875 183.69995117 C-18.45890543 178.05237232 -18.50531253 172.40493946 -18.55806351 166.75748634 C-18.57651346 164.60909412 -18.59165561 162.46067071 -18.60334396 160.31223106 C-18.62036826 157.28962818 -18.64944051 154.26735285 -18.68115234 151.24487305 C-18.68331253 150.36804871 -18.68547272 149.49122437 -18.68769836 148.58782959 C-18.81059384 139.34372845 -20.33278541 130.58851259 -23.9375 122.0625 C-24.18951172 121.43021484 -24.44152344 120.79792969 -24.70117188 120.14648438 C-26.11033472 116.7118752 -27.73079227 113.91948816 -30 111 C-30 110.34 -30 109.68 -30 109 C-30.66 109 -31.32 109 -32 109 C-32.94014268 107.5529795 -33.87828582 106.10460403 -34.80419922 104.6484375 C-36.78209121 101.92187018 -39.38184736 99.98547747 -42.0625 98 C-42.92294922 97.35599243 -42.92294922 97.35599243 -43.80078125 96.69897461 C-60.11397206 84.71897511 -77.02177324 81.86458435 -97 84 C-106.1682289 85.84973039 -114.72914851 90.15785669 -122 96 C-122.74507813 96.58394531 -123.49015625 97.16789062 -124.2578125 97.76953125 C-133.87427015 105.77237991 -139.82118049 115.28958718 -144 127 C-144.35320312 127.94230469 -144.70640625 128.88460937 -145.0703125 129.85546875 C-147.24504704 137.21118851 -147.17145314 144.73135502 -147.203125 152.33984375 C-147.21167511 153.96038414 -147.21167511 153.96038414 -147.22039795 155.61366272 C-147.2298108 157.89550815 -147.23636709 160.17736695 -147.24023438 162.45922852 C-147.24988235 165.89559674 -147.28091839 169.33135137 -147.3125 172.76757812 C-147.44390302 199.90518957 -142.25003195 221.80393364 -126 244 C-125.4946875 244.72316406 -124.989375 245.44632812 -124.46875 246.19140625 C-121.48893437 250.36790316 -118.38123914 253.62665885 -114.3203125 256.7734375 C-113.88460937 257.17820312 -113.44890625 257.58296875 -113 258 C-113 258.66 -113 259.32 -113 260 C-112.47535156 260.24105469 -111.95070313 260.48210937 -111.41015625 260.73046875 C-108.90821864 262.04834512 -106.58191987 263.55680679 -104.22924805 265.12255859 C-97.73526581 269.43536271 -91.27674611 273.1282024 -84 276 C-83.32453125 276.27199219 -82.6490625 276.54398437 -81.953125 276.82421875 C-73.92152248 279.76602665 -65.34781063 281.22597768 -57 283 C-55.91097529 303.47366449 -59.80050753 319.45250702 -73.375 335.25 C-83.79919542 346.37972473 -97.96416419 355.36084271 -113.56933594 356.12597656 C-116.6302487 356.20698564 -119.68807736 356.2349537 -122.75 356.25 C-123.78382813 356.270625 -124.81765625 356.29125 -125.8828125 356.3125 C-136.01823574 356.36356007 -144.17541497 353.83029917 -153 349 C-154.11375 348.443125 -155.2275 347.88625 -156.375 347.3125 C-170.61245052 338.94516006 -181.03691281 323.67775708 -185.55651855 307.9956665 C-187.68236555 299.28228681 -187.4360323 290.57185472 -187.41992188 281.65917969 C-187.42727415 279.72592685 -187.43586372 277.7926784 -187.44558716 275.85943604 C-187.46770322 270.63552202 -187.47073838 265.41176625 -187.46883965 260.18781185 C-187.46871935 255.80533893 -187.47730842 251.4228988 -187.48561716 247.04043508 C-187.50482009 236.68155657 -187.50774827 226.32275861 -187.50097656 215.96386719 C-187.49435616 205.33711395 -187.51712667 194.71070961 -187.55429029 184.08402705 C-187.5851734 174.91488826 -187.59632678 165.74586052 -187.59245348 156.57667089 C-187.59040306 151.12098121 -187.59559556 145.66556245 -187.62034607 140.20992279 C-187.80603432 95.82379993 -187.80603432 95.82379993 -182 77 C-181.69221115 75.99856083 -181.69221115 75.99856083 -181.37820435 74.97689056 C-178.25043006 65.09434205 -172.97523915 56.05081632 -168 47 C-167.34 47 -166.68 47 -166 47 C-165.74992187 46.11570313 -165.49984375 45.23140625 -165.2421875 44.3203125 C-157.85073698 24.56329067 -130.9131412 6.88880579 -113.0625 -1.4375 C-109.75052858 -2.82461718 -106.59117081 -3.63167479 -103 -4 C-103 -4.66 -103 -5.32 -103 -6 C-68.99014792 -16.42173245 -32.1707191 -16.64805609 0 0 Z " fill="#FEFEFE" transform="translate(377,147)"/>
<path d="M0 0 C131.62383613 0 131.62383613 0 156 22 C156.81855469 22.70253906 157.63710938 23.40507813 158.48046875 24.12890625 C172.64764382 37.10999224 180.41724228 54.91943545 181.3984375 73.9765625 C182.0454483 97.69904521 176.76943914 118.73399634 161 137 C158.45330872 139.47579838 155.73190289 141.73145873 153 144 C152.24976563 144.62648437 151.49953125 145.25296875 150.7265625 145.8984375 C149.97117187 146.50945312 149.21578125 147.12046875 148.4375 147.75 C147.75558594 148.30171875 147.07367187 148.8534375 146.37109375 149.421875 C143.38609248 151.40859743 140.32509263 152.66150932 137 154 C135.80503906 154.495 134.61007812 154.99 133.37890625 155.5 C132.10747148 156.00177898 130.83532865 156.50176738 129.5625 157 C128.6662793 157.37125 128.6662793 157.37125 127.75195312 157.75 C111.78865861 163.93557527 95.3275996 163.37010423 78.5 163.1875 C70.415 163.125625 62.33 163.06375 54 163 C54 187.75 54 212.5 54 238 C36.18 238 18.36 238 0 238 C0 159.46 0 80.92 0 0 Z " fill="#FDFDFD" transform="translate(767,60)"/>
<path d="M0 0 C51.15 0 102.3 0 155 0 C155 16.83 155 33.66 155 51 C122 51 89 51 55 51 C55 65.19 55 79.38 55 94 C82.72 94 110.44 94 139 94 C139 109.84 139 125.68 139 142 C111.28 142 83.56 142 55 142 C55 156.85 55 171.7 55 187 C88.66 187 122.32 187 157 187 C157 203.5 157 220 157 237 C156 238 156 238 153.44064236 238.12304783 C152.29116651 238.12212604 151.14169065 238.12120424 149.9573822 238.12025452 C148.646146 238.12163201 147.3349098 238.12300951 145.98393917 238.12442875 C144.5113466 238.12088147 143.03875425 238.11724357 141.56616211 238.11352539 C140.00412022 238.11321929 138.44207818 238.11335215 136.88003635 238.11389065 C132.68247646 238.11411717 128.48494486 238.10830531 124.28739166 238.10128021 C120.35406908 238.09560135 116.42075351 238.09531797 112.48742676 238.09460449 C100.97078073 238.08934919 89.45414001 238.07538814 77.9375 238.0625 C52.218125 238.041875 26.49875 238.02125 0 238 C0 159.46 0 80.92 0 0 Z " fill="#FBFBFB" transform="translate(1520,60)"/>
<path d="M0 0 C51.15 0 102.3 0 155 0 C155 16.83 155 33.66 155 51 C122 51 89 51 55 51 C55 65.19 55 79.38 55 94 C82.39 94 109.78 94 138 94 C138 109.84 138 125.68 138 142 C110.61 142 83.22 142 55 142 C55 156.85 55 171.7 55 187 C88.66 187 122.32 187 157 187 C157 203.83 157 220.66 157 238 C136.6773962 238.0225456 116.35480248 238.04097834 96.03218937 238.05181217 C86.59673173 238.05697549 77.16128239 238.06401887 67.72583008 238.07543945 C59.50496317 238.0853852 51.28410226 238.09185317 43.0632295 238.09408849 C38.70757678 238.09539579 34.35194125 238.09848281 29.99629402 238.10573006 C25.90143386 238.11248855 21.80659808 238.11461731 17.71173286 238.11310768 C16.20441048 238.11338409 14.69708733 238.11539022 13.18976974 238.11920547 C11.14072501 238.12413999 9.09166736 238.12239819 7.0426178 238.12025452 C5.89314195 238.12117631 4.7436661 238.1220981 3.55935764 238.12304783 C1 238 1 238 0 237 C-0.09802498 233.95335309 -0.12990985 230.92936239 -0.12025452 227.88230896 C-0.12110894 226.91365263 -0.12196337 225.94499629 -0.12284368 224.94698673 C-0.12450143 221.67484456 -0.11897231 218.40275275 -0.11352539 215.13061523 C-0.11324356 212.79552207 -0.11340118 210.46042881 -0.1139679 208.12533569 C-0.11425602 201.76401984 -0.10835694 195.40272266 -0.10139394 189.04141116 C-0.09579343 183.07360839 -0.09477212 177.10580638 -0.09374207 171.13800133 C-0.09155124 159.31440946 -0.08489032 147.49082446 -0.07543945 135.66723633 C-0.06626613 124.17895542 -0.05919637 112.6906764 -0.05493164 101.20239258 C-0.05466364 100.48751236 -0.05439565 99.77263214 -0.05411953 99.03608888 C-0.05180681 92.81805579 -0.04965395 86.60002264 -0.04751682 80.38198948 C-0.0381003 53.58798651 -0.01818186 26.79400177 0 0 Z " fill="#FBFBFB" transform="translate(1075,60)"/>
<path d="M0 0 C0 0.66 0 1.32 0 2 C0.94875 2.103125 1.8975 2.20625 2.875 2.3125 C14.26931391 4.05675879 23.24549588 9.14927162 33 15 C33.59184082 15.35239746 34.18368164 15.70479492 34.79345703 16.06787109 C41.49512351 20.08419404 41.49512351 20.08419404 44 22 C44 22.66 44 23.32 44 24 C44.556875 24.2475 45.11375 24.495 45.6875 24.75 C50.58798807 27.39891247 54.00244737 30.98347645 57.4375 35.3125 C60.04830271 38.58581024 62.67889063 41.78197647 65.5 44.875 C67.76342204 47.46980703 68.78592405 49.46774687 69 53 C69.66 53 70.32 53 71 53 C72.01241247 54.88923398 73.00947425 56.78669944 74 58.6875 C74.556875 59.74324219 75.11375 60.79898438 75.6875 61.88671875 C76.9672274 64.92226262 77.28851043 66.76026826 77 70 C75.9378125 70.32613281 74.875625 70.65226562 73.78125 70.98828125 C72.35412798 71.4295624 70.92704683 71.87097576 69.5 72.3125 C68.80390625 72.52583984 68.1078125 72.73917969 67.390625 72.95898438 C63.28853562 74.23139173 59.26670664 75.62876631 55.25439453 77.15893555 C50.43422752 78.95723264 45.55914413 80.59759497 40.6875 82.25 C39.60404297 82.62640625 38.52058594 83.0028125 37.40429688 83.390625 C36.36724609 83.74125 35.33019531 84.091875 34.26171875 84.453125 C33.32287842 84.77442383 32.38403809 85.09572266 31.41674805 85.42675781 C29 86 29 86 26 85 C24.8125 81.9375 24.8125 81.9375 24 79 C23.34 79 22.68 79 22 79 C20.7109375 77.3203125 20.7109375 77.3203125 19.375 75.125 C18.92898438 74.40570313 18.48296875 73.68640625 18.0234375 72.9453125 C17 71 17 71 17 69 C16.4225 68.773125 15.845 68.54625 15.25 68.3125 C13 67 13 67 11.0625 64.5625 C8.91620036 61.8958853 6.9198927 60.70327074 4 59 C4 58.34 4 57.68 4 57 C3.14535156 56.72285156 2.29070312 56.44570312 1.41015625 56.16015625 C-3.08151455 54.63206206 -7.46991424 52.87118834 -11.87890625 51.12109375 C-18.46672143 48.75475713 -24.75773171 48.78378315 -31.6875 48.75 C-32.72583984 48.729375 -33.76417969 48.70875 -34.83398438 48.6875 C-50.72129166 48.60781445 -64.18759021 55.37780828 -75.56640625 66.34375 C-90.9064905 83.08734116 -94.94362604 105.00531971 -94.42578125 126.9453125 C-93.48212373 145.76453959 -85.44811151 163.72930421 -72 177 C-71.34 177.33 -70.68 177.66 -70 178 C-70 178.66 -70 179.32 -70 180 C-69.20916016 180.38865234 -69.20916016 180.38865234 -68.40234375 180.78515625 C-66.58841784 181.70244236 -64.79166249 182.65379409 -63.00390625 183.62109375 C-47.60009228 191.75137013 -30.56410607 195.1782068 -13.42358398 190.50854492 C-7.2369389 188.59526355 -1.77223739 186.0995719 3.3984375 182.13671875 C5 181 5 181 7 181 C7 180.34 7 179.68 7 179 C11.30232558 174.23255814 11.30232558 174.23255814 15 173 C15.69658363 171.34561387 16.36096883 169.67745682 17 168 C18 167 19 166 20 165 C21.04622875 163.02379014 22.05439935 161.0262871 23 159 C23.66 159 24.32 159 25 159 C25.33 157.35 25.66 155.7 26 154 C30.10980586 152.28231191 33.63289821 153.85304036 37.625 155.1875 C38.28628906 155.39697266 38.94757813 155.60644531 39.62890625 155.82226562 C43.41886405 157.04800054 47.11092418 158.43194958 50.796875 159.94140625 C56.31539875 162.18075337 61.94093782 163.98179374 67.625 165.75 C68.62917969 166.06582031 69.63335938 166.38164062 70.66796875 166.70703125 C73.11091792 167.47481527 75.55490713 168.23907632 78 169 C76.01858318 187.70690589 58.60205876 206.29713682 44.64355469 217.72216797 C34.75128302 225.41321816 24.25353965 231.83934026 12.3125 235.75 C11.67505859 235.97042969 11.03761719 236.19085938 10.38085938 236.41796875 C6.81461373 237.60303696 3.75876517 238.25872953 0 238 C0 238.66 0 239.32 0 240 C-20.120835 243.73927022 -39.9902529 244.88373488 -60 240 C-61.02738281 239.7834375 -62.05476563 239.566875 -63.11328125 239.34375 C-76.69991258 236.32049958 -88.47194235 230.71527594 -100 223 C-101.41345703 222.06414062 -101.41345703 222.06414062 -102.85546875 221.109375 C-109.27467718 216.74772673 -114.15439068 212.05701165 -119 206 C-120.15048828 204.87851562 -120.15048828 204.87851562 -121.32421875 203.734375 C-143.0722623 181.51009692 -151.58361617 148.00568019 -151.28125 117.74780273 C-151.01048215 105.26958603 -149.36704786 93.69195876 -146.1875 81.625 C-145.83341064 80.26930908 -145.83341064 80.26930908 -145.47216797 78.88623047 C-143.68925934 72.49287741 -141.11244012 66.84816969 -138 61 C-137.28650391 59.53820312 -137.28650391 59.53820312 -136.55859375 58.046875 C-134.32243793 53.4654826 -132.09929276 49.06114224 -129 45 C-128.34 45 -127.68 45 -127 45 C-126.731875 44.195625 -126.46375 43.39125 -126.1875 42.5625 C-125.795625 41.716875 -125.40375 40.87125 -125 40 C-123.515 39.505 -123.515 39.505 -122 39 C-121.690625 38.195625 -121.38125 37.39125 -121.0625 36.5625 C-119.79203135 33.49842855 -118.90652784 33.31262548 -116 32 C-115.67 31.01 -115.34 30.02 -115 29 C-114.34 29 -113.68 29 -113 29 C-112.505 27.515 -112.505 27.515 -112 26 C-110.09702087 24.3123968 -108.21547495 22.77278958 -106.1875 21.25 C-105.60798584 20.81115479 -105.02847168 20.37230957 -104.43139648 19.92016602 C-89.82445448 9.05269634 -89.82445448 9.05269634 -81 8 C-81 7.34 -81 6.68 -81 6 C-54.09753284 -4.51955447 -28.07918413 -4.03276288 0 0 Z " fill="#FDFDFD" transform="translate(1412,59)"/>
<path d="M0 0 C2.01171875 1.90625 2.01171875 1.90625 3.3125 3.5 C3.3125 4.16 3.3125 4.82 3.3125 5.5 C3.91191406 5.76554687 4.51132813 6.03109375 5.12890625 6.3046875 C13.25047254 10.75048228 17.93712892 21.30267024 21.3125 29.5 C21.9725 30.49 22.6325 31.48 23.3125 32.5 C23.3125 33.49 23.3125 34.48 23.3125 35.5 C22.52230469 35.71914062 21.73210937 35.93828125 20.91796875 36.1640625 C13.90444911 38.13586345 6.94125747 40.22434545 0 42.4375 C-6.36218479 44.45989929 -12.73008394 46.45826199 -19.125 48.375 C-20.18037964 48.69778931 -20.18037964 48.69778931 -21.25708008 49.02709961 C-24.59194867 50.01646715 -27.16848354 50.5 -30.6875 50.5 C-30.96722656 49.84773438 -31.24695312 49.19546875 -31.53515625 48.5234375 C-34.35857723 42.36819819 -37.16408772 38.40321134 -42.6875 34.5 C-43.698125 33.7575 -44.70875 33.015 -45.75 32.25 C-52.2345567 28.38685984 -58.13289054 28.13490869 -65.5 28.125 C-66.92022461 28.08826172 -66.92022461 28.08826172 -68.36914062 28.05078125 C-75.09147868 28.02302211 -79.75481937 29.45342547 -85.6875 32.5 C-87.1725 32.995 -87.1725 32.995 -88.6875 33.5 C-88.6875 34.16 -88.6875 34.82 -88.6875 35.5 C-89.3475 35.5 -90.0075 35.5 -90.6875 35.5 C-92.92581466 41.02117615 -93.93348408 45.74634048 -94.25 51.6875 C-94.31477539 52.81188477 -94.31477539 52.81188477 -94.38085938 53.95898438 C-94.48672685 55.80578375 -94.5875976 57.65286834 -94.6875 59.5 C-94.0275 59.5 -93.3675 59.5 -92.6875 59.5 C-91.32386792 61.47946592 -89.99331356 63.4819245 -88.6875 65.5 C-86.08566209 68.80472168 -82.6062104 69.96739493 -78.76953125 71.37109375 C-78.06963577 71.62990829 -77.3697403 71.88872284 -76.64863586 72.15538025 C-66.89900894 75.63768026 -56.7959353 77.83133633 -46.72827148 80.17993164 C-36.90075727 82.48688122 -27.69808919 84.80054583 -18.6875 89.5 C-16.95973175 90.31546949 -15.23071327 91.12829967 -13.5 91.9375 C-6.1837337 95.65369876 -0.74105446 100.08062 4.3125 106.5 C5.5190625 107.6446875 5.5190625 107.6446875 6.75 108.8125 C10.16327294 112.39227405 12.73338874 116.29197637 15.3125 120.5 C15.68503906 121.10457031 16.05757812 121.70914063 16.44140625 122.33203125 C24.37592359 136.61416247 25.94724538 155.61935371 21.9296875 171.359375 C21.72601562 172.06578125 21.52234375 172.7721875 21.3125 173.5 C21.03792969 174.68335938 21.03792969 174.68335938 20.7578125 175.890625 C18.93454294 183.04864623 15.59861447 189.48911176 11.3125 195.5 C10.6525 195.5 9.9925 195.5 9.3125 195.5 C9.09207031 196.22832031 8.87164063 196.95664062 8.64453125 197.70703125 C6.98756879 201.18130738 5.00031776 202.79617772 2 205.1875 C0.58267578 206.33798828 0.58267578 206.33798828 -0.86328125 207.51171875 C-3.44648718 209.33032431 -5.7122359 210.4865676 -8.6875 211.5 C-8.6875 212.16 -8.6875 212.82 -8.6875 213.5 C-10.6675 213.83 -12.6475 214.16 -14.6875 214.5 C-14.6875 215.16 -14.6875 215.82 -14.6875 216.5 C-45.86271532 226.94809277 -81.61645663 230.82302852 -112.15991211 215.9230957 C-115.0226408 214.48698356 -117.85483825 212.99434175 -120.6875 211.5 C-122.31011032 210.68273812 -123.93463914 209.86925291 -125.5625 209.0625 C-126.59375 208.546875 -127.625 208.03125 -128.6875 207.5 C-128.6875 206.84 -128.6875 206.18 -128.6875 205.5 C-129.739375 205.1596875 -129.739375 205.1596875 -130.8125 204.8125 C-142.83101545 199.32578643 -151.33890636 185.58730344 -156.0234375 173.76171875 C-156.6875 171.5 -156.6875 171.5 -156.6875 167.5 C-155.89690186 167.30889648 -155.10630371 167.11779297 -154.29174805 166.92089844 C-151.30287896 166.19523918 -148.3154614 165.46392543 -145.32885742 164.72900391 C-143.42274787 164.26170577 -141.51510085 163.8006931 -139.60742188 163.33984375 C-132.94336841 161.69569408 -126.55173887 159.80812699 -120.13745117 157.37011719 C-116.62203207 156.12159166 -113.17006388 155.42340622 -109.5 154.75 C-108.20707031 154.50765625 -106.91414063 154.2653125 -105.58203125 154.015625 C-104.62683594 153.84546875 -103.67164063 153.6753125 -102.6875 153.5 C-101.99914063 154.60408203 -101.99914063 154.60408203 -101.296875 155.73046875 C-100.68328125 156.70628906 -100.0696875 157.68210938 -99.4375 158.6875 C-98.83421875 159.65042969 -98.2309375 160.61335937 -97.609375 161.60546875 C-94.29526899 166.59683573 -91.60573727 169.92728133 -86.25 172.75 C-84.85974609 173.50023437 -84.85974609 173.50023437 -83.44140625 174.265625 C-77.87589221 176.76023839 -72.44045186 176.71242284 -66.4375 176.75 C-65.62925781 176.770625 -64.82101562 176.79125 -63.98828125 176.8125 C-56.42507087 176.86090455 -49.34909001 175.36375408 -43.3125 170.5625 C-42.68601562 170.07910156 -42.05953125 169.59570312 -41.4140625 169.09765625 C-36.93576852 164.95371454 -34.91838295 160.80882954 -34.3125 154.75 C-34.39393848 150.4663358 -35.91253031 147.16955765 -37.8125 143.3828125 C-38.6875 141.5 -38.6875 141.5 -38.6875 139.5 C-39.22375 139.2525 -39.76 139.005 -40.3125 138.75 C-42.6875 137.5 -42.6875 137.5 -45.40625 135.5703125 C-48.79309533 133.43337438 -51.73791179 132.28471385 -55.5625 131.125 C-56.23522949 130.92076416 -56.90795898 130.71652832 -57.60107422 130.50610352 C-65.99767895 128.0181169 -74.52266451 126.0013586 -83.0234375 123.90625 C-107.81146354 117.78089702 -128.57311367 108.9816699 -142.859375 86.79296875 C-152.07713075 70.18919077 -153.65033127 47.8183039 -148.6875 29.5 C-144.41464809 15.22832864 -135.77251889 2.10756912 -122.6875 -5.5 C-122.0275 -5.5 -121.3675 -5.5 -120.6875 -5.5 C-120.6875 -6.16 -120.6875 -6.82 -120.6875 -7.5 C-84.04354572 -25.00074478 -32.80262208 -28.26389449 0 0 Z " fill="#FCFCFC" transform="translate(1864.6875,76.5)"/>
<path d="M0 0 C0.90234375 0.33386719 1.8046875 0.66773438 2.734375 1.01171875 C4.90551331 1.89889078 6.93663118 2.8870806 9 4 C9.75796875 4.39445312 10.5159375 4.78890625 11.296875 5.1953125 C33.60273967 17.62692498 45.87418227 36.36431077 52.80078125 60.4609375 C60.12693576 87.48813671 52.39510884 113.02208314 40 137 C39.34 137 38.68 137 38 137 C37.73316406 137.58265625 37.46632813 138.1653125 37.19140625 138.765625 C29.15992137 153.82795074 13.00546805 161.86301189 -2 168 C-3.04800781 168.48339844 -3.04800781 168.48339844 -4.1171875 168.9765625 C-25.13832853 178.22586455 -51.10882327 172.43056534 -72 166 C-72 165.34 -72 164.68 -72 164 C-72.556875 163.85304688 -73.11375 163.70609375 -73.6875 163.5546875 C-79.84057542 161.74618222 -84.14560666 159.14024609 -89 155 C-89.80566406 154.32710937 -90.61132812 153.65421875 -91.44140625 152.9609375 C-99.38321867 146.09824158 -106.28095858 138.43808284 -111 129 C-111 128.34 -111 127.68 -111 127 C-111.66 127 -112.32 127 -113 127 C-122.48815203 102.18955714 -127.18265336 74.58996338 -116.046875 49.3203125 C-115.70140625 48.55460937 -115.3559375 47.78890625 -115 47 C-114.26366519 45.16953389 -113.53442379 43.33619748 -112.8125 41.5 C-111.93318191 39.2859401 -111.06525189 37.13050378 -110 35 C-109.34 35 -108.68 35 -108 35 C-107.78214844 34.13761719 -107.56429687 33.27523437 -107.33984375 32.38671875 C-105.77194249 28.42353976 -103.482684 25.81644417 -100.5625 22.8125 C-100.07201172 22.29236328 -99.58152344 21.77222656 -99.07617188 21.23632812 C-97.72919737 19.81300688 -96.36523941 18.40581116 -95 17 C-94.43152344 16.38511719 -93.86304688 15.77023437 -93.27734375 15.13671875 C-92 14 -92 14 -90 14 C-90 13.34 -90 12.68 -90 12 C-65.09826478 -7.00297335 -29.14280876 -11.13717472 0 0 Z " fill="#FCFCFC" transform="translate(1018,431)"/>
<path d="M0 0 C1.05624069 -0.00259827 1.05624069 -0.00259827 2.13381958 -0.00524902 C13.55918231 0.00707835 23.75137785 1.22855064 34.4375 5.4375 C35.33597656 5.77136719 36.23445313 6.10523438 37.16015625 6.44921875 C44.01225937 9.23472208 50.30167725 13.3469515 56.4375 17.4375 C56.4375 18.0975 56.4375 18.7575 56.4375 19.4375 C57.03175781 19.71851563 57.62601563 19.99953125 58.23828125 20.2890625 C72.58788769 27.78246267 80.25225801 45.04065987 85.578125 59.4765625 C88.25690712 68.70618453 88.79156396 77.46423704 88.75 87.0625 C88.74817719 87.72602478 88.74635437 88.38954956 88.74447632 89.07318115 C88.6309228 113.60443995 81.79123721 135.05849585 64.8125 153.25 C62.4375 155.4375 62.4375 155.4375 59.4375 156.4375 C59.4375 157.0975 59.4375 157.7575 59.4375 158.4375 C43.24164775 172.62844984 22.09236188 177.6780991 1.125 177.75 C0.04094879 177.75392761 0.04094879 177.75392761 -1.06500244 177.75793457 C-11.75937514 177.76210102 -21.4357808 177.16361334 -31.5625 173.4375 C-32.44421875 173.16035156 -33.3259375 172.88320313 -34.234375 172.59765625 C-54.2255171 165.689889 -68.79201291 149.88168653 -78.5 131.6875 C-79.04805298 130.66100342 -79.04805298 130.66100342 -79.60717773 129.61376953 C-86.25875343 116.65865667 -87.91625305 103.44681835 -87.875 89 C-87.89111328 87.87529297 -87.90722656 86.75058594 -87.92382812 85.59179688 C-87.92847541 77.50087214 -86.69053122 70.23009387 -84.5625 62.4375 C-84.37341064 61.72005615 -84.18432129 61.0026123 -83.98950195 60.26342773 C-83.54372987 58.62552102 -83.05535277 56.99936058 -82.5625 55.375 C-82.253125 54.33214844 -81.94375 53.28929687 -81.625 52.21484375 C-80.58215701 49.48888286 -79.36360298 47.70340375 -77.5625 45.4375 C-77.15 44.385625 -76.7375 43.33375 -76.3125 42.25 C-74.30242186 37.33530633 -70.92485607 33.49084874 -67.5625 29.4375 C-66.9953125 28.73496094 -66.428125 28.03242188 -65.84375 27.30859375 C-64.46883085 25.64049331 -63.02167892 24.0324165 -61.5625 22.4375 C-60.9025 22.4375 -60.2425 22.4375 -59.5625 22.4375 C-59.5625 21.7775 -59.5625 21.1175 -59.5625 20.4375 C-55.43208227 16.5796479 -51.07885966 13.81658991 -45.5625 12.4375 C-45.5625 11.7775 -45.5625 11.1175 -45.5625 10.4375 C-42.63337438 9.12625042 -39.69293393 7.8424216 -36.75 6.5625 C-35.52893555 6.01529297 -35.52893555 6.01529297 -34.28320312 5.45703125 C-23.07438379 0.62185428 -12.109743 -0.00070974 0 0 Z " fill="#FCFCFC" transform="translate(2223.5625,425.5625)"/>
<path d="M0 0 C0.33 0 0.66 0 1 0 C1.05945801 0.66080566 1.11891602 1.32161133 1.18017578 2.00244141 C2.46180394 15.77463345 4.22750935 29.31822485 6.9375 42.875 C7.17807129 44.09010254 7.41864258 45.30520508 7.66650391 46.55712891 C9.31638801 54.53941488 11.49379268 62.24753725 14 70 C14.66666667 72.1875 15.33333333 74.375 16 76.5625 C20.81426594 92.14798351 26.68403217 106.68013671 34.08935547 121.19775391 C35.27976711 123.55368386 36.41697223 125.93449021 37.5625 128.3125 C39.83684433 132.87650411 42.54548698 137.10121994 45.33203125 141.3671875 C46.74930019 143.6042818 47.98345914 145.83313015 49.1875 148.1875 C52.43460553 154.16004492 56.70555729 159.42660618 60.82421875 164.8125 C62.85379948 167.46869153 64.83732796 170.14718359 66.76953125 172.875 C73.93013211 182.96564978 81.92955877 191.97335705 90.70703125 200.6875 C92.53186488 202.52787735 94.18822012 204.36305211 95.8125 206.375 C99.19891443 210.35851522 103.01535562 213.62983973 107 217 C108.08062628 217.94133345 109.15995341 218.88415949 110.23828125 219.828125 C117.2491967 225.9426233 124.3927949 231.63350333 132 237 C133.87531922 238.39540443 135.75031832 239.79123917 137.625 241.1875 C141.54574976 244.04603245 145.49663024 246.47137161 149.78125 248.734375 C152.1848601 250.10544837 154.33861825 251.66682751 156.5625 253.3125 C162.64716601 257.67365341 169.28612246 260.80836016 176.01318359 264.03833008 C178.76385926 265.3697274 181.49284477 266.74315895 184.22167969 268.11865234 C190.48059637 271.22061407 197.00129938 273.44464686 203.59765625 275.71875 C207 277 207 277 209.7890625 278.46875 C214.15558656 280.55108264 218.65405428 281.73401051 223.3125 283 C228.47794262 284.42188528 233.61629414 285.83784777 238.6796875 287.59375 C242.68050473 288.95196754 246.63897151 289.80094438 250.8125 290.5 C251.53042725 290.62109131 252.24835449 290.74218262 252.98803711 290.86694336 C255.32370675 291.25576263 257.66122375 291.63034395 260 292 C260.81533203 292.12906738 261.63066406 292.25813477 262.47070312 292.39111328 C265.0004075 292.7876695 267.5310623 293.17716903 270.0625 293.5625 C270.81571533 293.67722656 271.56893066 293.79195312 272.3449707 293.91015625 C274.89463897 294.28872136 277.44710903 294.64381322 280 295 C281.15419434 295.17354004 282.30838867 295.34708008 283.49755859 295.52587891 C294.19791624 297.0285051 304.70479424 297.31369459 315.5 297.25 C316.80662598 297.24734131 316.80662598 297.24734131 318.13964844 297.24462891 C330.6258261 297.21488902 342.95068318 296.75893566 355.375 295.4375 C359.60891062 294.98887371 363.74415974 294.92118814 368 295 C368 295.99 368 296.98 368 298 C365.263916 299.368042 363.10235993 299.12409513 360.0379467 299.12304783 C358.75904182 299.12503888 357.48013695 299.12702993 356.16247737 299.12908131 C354.72988993 299.12622789 353.29730266 299.12328228 351.86471558 299.12025452 C350.35331235 299.12069021 348.84190919 299.12156508 347.33050644 299.12284368 C343.16203955 299.12508903 338.99359816 299.1210668 334.82513452 299.11606562 C330.3356935 299.11176189 325.84625402 299.11320749 321.35681152 299.1139679 C313.57348157 299.11449318 305.79015997 299.11134592 298.00683212 299.10573006 C286.75333675 299.09761566 275.49984543 299.0949999 264.24634744 299.09374207 C245.98991293 299.09155145 227.73348287 299.08489111 209.47705078 299.07543945 C191.73876976 299.06626558 174.00048994 299.05919609 156.26220703 299.05493164 C155.15833692 299.05466364 154.05446681 299.05439565 152.91714609 299.05411953 C144.28462762 299.0520402 135.65210912 299.05008324 127.01959062 299.04816496 C84.67972299 299.03872503 42.33986651 299.0186082 0 299 C0 200.33 0 101.66 0 0 Z " fill="#010101" transform="translate(0,341)"/>
<path d="M0 0 C99.33 0 198.66 0 301 0 C301 0.33 301 0.66 301 1 C300.20529297 1.07516846 299.41058594 1.15033691 298.59179688 1.2277832 C277.16778878 3.22856354 277.16778878 3.22856354 256 7 C254.69893311 7.28278809 254.69893311 7.28278809 253.37158203 7.57128906 C244.26125433 9.55375097 235.20242721 11.54070646 226.29003906 14.29736328 C223.91128833 15.02721878 221.52096854 15.7041085 219.125 16.375 C214.36521484 17.8036758 209.8502905 19.65373039 205.28515625 21.609375 C202.27845968 22.88212646 199.25608496 24.09387526 196.21801758 25.28857422 C190.97042417 27.35219798 185.84558498 29.49208191 180.8515625 32.12109375 C177.36852199 33.77443577 173.68137203 34.87513632 170 36 C170 36.66 170 37.32 170 38 C169.09378906 38.43570313 168.18757812 38.87140625 167.25390625 39.3203125 C160.14039409 42.7826847 153.487946 46.44463366 147 51 C142.3 54 142.3 54 140 54 C140 54.66 140 55.32 140 56 C138.34765625 57.26171875 138.34765625 57.26171875 136.0625 58.6875 C131.76601801 61.44078356 127.80173162 64.45784831 123.84765625 67.6796875 C122 69 122 69 120 69 C119.505 70.485 119.505 70.485 119 72 C117.60707821 72.93705648 116.2092792 73.86772362 114.78710938 74.75976562 C110.52287581 77.71909711 106.93594763 81.6190641 103.21484375 85.21875 C102.57160156 85.83234375 101.92835937 86.4459375 101.265625 87.078125 C100.68586914 87.63918945 100.10611328 88.20025391 99.50878906 88.77832031 C98 90 98 90 96 90 C96 90.66 96 91.32 96 92 C94.54434328 93.22407497 93.0843712 94.44375301 91.59375 95.625 C89.76463911 97.11818763 89.76463911 97.11818763 87.75 99.8125 C86.88375 100.8953125 86.88375 100.8953125 86 102 C85.34 102 84.68 102 84 102 C83.76410156 102.54527344 83.52820313 103.09054688 83.28515625 103.65234375 C81.65988289 106.62130816 79.63111495 108.98440168 77.4375 111.5625 C76.53229666 112.63650352 75.62735411 113.7107269 74.72265625 114.78515625 C73.81545612 115.8570688 72.90791525 116.92869309 72 118 C65.77032951 125.35489833 60.19632221 132.88007967 55 141 C54.40316406 141.92941406 53.80632813 142.85882813 53.19140625 143.81640625 C52.03003816 145.63476208 50.87370874 147.45634674 49.72265625 149.28125 C48.55581919 151.12278876 47.3756771 152.95595249 46.18359375 154.78125 C42.34513367 160.6840223 39.03580201 166.65144563 36 173 C35.33555069 174.31362392 34.66898607 175.62618069 34 176.9375 C27.5278976 189.90759321 21.7440959 203.30437474 17 217 C16.74605469 217.69867188 16.49210937 218.39734375 16.23046875 219.1171875 C13.86366619 225.82523753 12.21822004 232.72650422 10.56787109 239.63818359 C10.17859568 241.25720782 9.78274909 242.87466211 9.38134766 244.49072266 C4.51599616 264.09620513 1.86057057 283.82110395 1 304 C0.67 304 0.34 304 0 304 C0 203.68 0 103.36 0 0 Z " fill="#000000" transform="translate(0,0)"/>
<path d="M0 0 C83.25632469 0 83.25632469 0 97.375 7.75 C98.02509033 8.09071533 98.67518066 8.43143066 99.3449707 8.7824707 C107.41348458 13.12475836 114.69193758 18.33147687 121 25 C121.93199219 25.721875 122.86398437 26.44375 123.82421875 27.1875 C127.34105196 30.10062177 129.63227255 33.43842434 132 37.3125 C132.64291992 38.35821167 132.64291992 38.35821167 133.29882812 39.42504883 C146.0099716 60.79002697 148.44331706 86.50390685 142.39453125 110.484375 C139.17700309 121.68204581 133.08675171 131.83305749 126 141 C124.8553125 142.546875 124.8553125 142.546875 123.6875 144.125 C108.67124759 160.18889792 90.97882787 166.06380521 70 171 C46.9 171 23.8 171 0 171 C0 114.57 0 58.14 0 0 Z " fill="#FCFCFC" transform="translate(1340,429)"/>
<path d="M0 0 C93.50813743 0 93.50813743 0 113.22265625 19.16015625 C125.14341309 31.79393033 126.68674125 45.43241677 126.37109375 62.1171875 C125.7389331 76.3486761 118.18582732 87.3462371 108 96.9375 C103.90802319 100.47205582 99.96437233 102.88554512 95 105 C95 106.65 95 108.3 95 110 C95.66 110 96.32 110 97 110 C97.87011719 111.57587891 97.87011719 111.57587891 98.7578125 113.18359375 C102.49449004 119.91185901 106.23196767 126.53347379 110.609375 132.87109375 C112.1994239 135.30529783 113.56710799 137.81092442 114.9375 140.375 C118.00579189 146.11310432 121.47590607 151.53435744 125 157 C126.49149235 159.32573953 127.96841361 161.66005332 129.4375 164 C130.11683594 165.0725 130.79617187 166.145 131.49609375 167.25 C133 170 133 170 133 173 C120.46 173 107.92 173 95 173 C93.02 169.37 91.04 165.74 89 162 C84.80547098 154.4448936 80.4387555 147.04769465 75.8125 139.75 C72.15277098 133.97440441 68.99436427 128.15508211 66 122 C64.02 118.7 62.04 115.4 60 112 C47.13 111.505 47.13 111.505 34 111 C34 131.13 34 151.26 34 172 C22.78 172 11.56 172 0 172 C0 115.24 0 58.48 0 0 Z " fill="#FBFBFB" transform="translate(2655,428)"/>
<path d="M0 0 C1.3975118 -0.00669066 2.79500224 -0.02072928 4.19238281 -0.04101562 C17.30271844 -0.22916709 30.39405286 0.59060763 42.16479492 6.99023438 C42.83309326 7.34021484 43.5013916 7.69019531 44.18994141 8.05078125 C49.32910669 10.82850479 53.72339342 13.95568557 57.72729492 18.24023438 C58.36151367 18.913125 58.99573242 19.58601563 59.64916992 20.27929688 C64.5936368 25.73455579 67.7540011 30.673492 69.85229492 37.80273438 C70.18487305 38.91777344 70.51745117 40.0328125 70.86010742 41.18164062 C71.1462793 42.19097656 71.43245117 43.2003125 71.72729492 44.24023438 C71.92452148 44.88089844 72.12174805 45.5215625 72.32495117 46.18164062 C74.90498347 59.38238838 71.87218391 72.51388462 65.72729492 84.24023438 C65.06729492 84.24023438 64.40729492 84.24023438 63.72729492 84.24023438 C63.50041992 84.96210937 63.27354492 85.68398438 63.03979492 86.42773438 C61.45963416 89.81379314 59.45538167 91.70701096 56.72729492 94.24023438 C56.00541992 95.00335937 55.28354492 95.76648438 54.53979492 96.55273438 C52.72729492 98.24023438 52.72729492 98.24023438 50.72729492 98.24023438 C50.72729492 98.90023437 50.72729492 99.56023437 50.72729492 100.24023438 C49.08276367 101.52929688 49.08276367 101.52929688 46.91479492 102.86523438 C46.20709961 103.31125 45.4994043 103.75726562 44.77026367 104.21679688 C42.72729492 105.24023438 42.72729492 105.24023438 39.72729492 105.24023438 C39.72729492 106.23023438 39.72729492 107.22023438 39.72729492 108.24023438 C40.38729492 108.24023438 41.04729492 108.24023438 41.72729492 108.24023438 C42.00959961 108.79066406 42.2919043 109.34109375 42.58276367 109.90820312 C46.7388786 117.76947622 51.41057065 125.2772775 56.14404297 132.80151367 C63.72729492 144.90634523 63.72729492 144.90634523 63.72729492 148.24023438 C64.38729492 148.24023438 65.04729492 148.24023438 65.72729492 148.24023438 C66.25516602 149.23990234 66.25516602 149.23990234 66.79370117 150.25976562 C70.05932454 156.35616435 73.55095157 162.18542004 77.40698242 167.92773438 C78.72729492 170.24023438 78.72729492 170.24023438 78.72729492 173.24023438 C66.18729492 173.24023438 53.64729492 173.24023438 40.72729492 173.24023438 C31.77884341 157.58044424 31.77884341 157.58044424 27.66479492 150.11523438 C23.02926898 141.74403549 18.30928586 133.43250843 13.29760742 125.27929688 C12.88196533 124.59891357 12.46632324 123.91853027 12.03808594 123.2175293 C11.22158843 121.88331521 10.39937516 120.55257795 9.57080078 119.22583008 C6.72729492 114.57501642 6.72729492 114.57501642 6.72729492 111.24023438 C-2.18270508 111.24023438 -11.09270508 111.24023438 -20.27270508 111.24023438 C-20.27270508 131.37023437 -20.27270508 151.50023437 -20.27270508 172.24023438 C-31.16270508 172.24023438 -42.05270508 172.24023438 -53.27270508 172.24023438 C-53.27270508 115.81023437 -53.27270508 59.38023437 -53.27270508 1.24023438 C-9.61659241 0.02756458 -9.61659241 0.02756458 0 0 Z " fill="#FDFDFD" transform="translate(1161.272705078125,427.759765625)"/>
<path d="M0 0 C92.37712519 0 92.37712519 0 108.6484375 15.52734375 C109.42445313 16.34332031 110.20046875 17.15929687 111 18 C111.59683594 18.59941406 112.19367187 19.19882812 112.80859375 19.81640625 C123.07869363 30.82536223 126.35825529 43.21500577 126.3125 57.875 C126.32861328 58.89980469 126.34472656 59.92460937 126.36132812 60.98046875 C126.37117297 76.47625781 119.82822598 88.69321398 109.234375 99.8203125 C97.18562335 111.57416463 83.26383995 115.19248741 66.8125 115.09765625 C65.97525391 115.09664917 65.13800781 115.09564209 64.27539062 115.09460449 C61.18357958 115.08941971 58.09178824 115.0754589 55 115.0625 C48.07 115.041875 41.14 115.02125 34 115 C34 134.14 34 153.28 34 173 C22.78 173 11.56 173 0 173 C0 115.91 0 58.82 0 0 Z " fill="#FCFCFC" transform="translate(2347,428)"/>
<path d="M0 0 C17.82 0 35.64 0 54 0 C54 78.54 54 157.08 54 238 C36.18 238 18.36 238 0 238 C0 159.46 0 80.92 0 0 Z " fill="#FDFDFD" transform="translate(975,60)"/>
<path d="M0 0 C36.3 0 72.6 0 110 0 C110 10.23 110 20.46 110 31 C84.92 31 59.84 31 34 31 C34 43.87 34 56.74 34 70 C55.45 70 76.9 70 99 70 C99 79.9 99 89.8 99 100 C77.55 100 56.1 100 34 100 C34 113.86 34 127.72 34 142 C59.41 142 84.82 142 111 142 C111 152.23 111 162.46 111 173 C74.37 173 37.74 173 0 173 C0 115.91 0 58.82 0 0 Z " fill="#FBFBFB" transform="translate(1857,428)"/>
<path d="M0 0 C35.97 0 71.94 0 109 0 C109 10.23 109 20.46 109 31 C84.25 31 59.5 31 34 31 C34 43.87 34 56.74 34 70 C55.45 70 76.9 70 99 70 C99 79.9 99 89.8 99 100 C77.55 100 56.1 100 34 100 C34 113.86 34 127.72 34 142 C59.08 142 84.16 142 110 142 C110 152.23 110 162.46 110 173 C73.7 173 37.4 173 0 173 C0 115.91 0 58.82 0 0 Z " fill="#FCFCFC" transform="translate(2503,428)"/>
<path d="M0 0 C35.97 0 71.94 0 109 0 C109 10.23 109 20.46 109 31 C83.92 31 58.84 31 33 31 C33 43.87 33 56.74 33 70 C54.45 70 75.9 70 98 70 C98 79.9 98 89.8 98 100 C76.55 100 55.1 100 33 100 C33 113.86 33 127.72 33 142 C58.41 142 83.82 142 110 142 C110 152.23 110 162.46 110 173 C73.7 173 37.4 173 0 173 C0 115.91 0 58.82 0 0 Z " fill="#FCFCFC" transform="translate(1520,428)"/>
<path d="M0 0 C6.47270147 5.72006177 12.24863836 12.74591508 15 21 C15 22.32 15 23.64 15 25 C-9.58252427 34 -9.58252427 34 -17 34 C-18.359375 32.2421875 -18.359375 32.2421875 -19.75 29.875 C-24.41733224 22.56361255 -29.48898292 18.30097588 -38 16 C-41.15898784 15.58231611 -44.25396927 15.52290146 -47.4375 15.5625 C-48.2735376 15.56862305 -49.1095752 15.57474609 -49.97094727 15.58105469 C-57.37884925 15.76931141 -62.53535266 17.2647521 -68.375 21.875 C-72.8573298 27.7365082 -73.96409855 32.7580504 -73 40 C-71.44007112 45.88613165 -68.14452405 49.51216496 -62.9921875 52.62890625 C-54.25261386 56.63359339 -44.56162563 58.42799115 -35.23144531 60.56469727 C-20.68624054 63.9030215 -7.21037973 68.38723077 3 80 C3 80.66 3 81.32 3 82 C3.556875 82.185625 4.11375 82.37125 4.6875 82.5625 C10.91371056 86.4328471 13.35284572 93.30324981 15.26953125 100.0625 C17.6281277 111.07119867 17.78010127 124.11674041 12 134 C11.31164063 135.28777344 11.31164063 135.28777344 10.609375 136.6015625 C7.66954971 141.84682973 4.55622888 146.06507506 0 150 C-0.66 150 -1.32 150 -2 150 C-2 150.66 -2 151.32 -2 152 C-17.22219461 165.04213157 -39.58175204 164.19847525 -58.35400391 163.28662109 C-75.39345343 161.94710631 -91.31438143 154.57840777 -103 142 C-111 132.26427406 -111 132.26427406 -111 128 C-111.66 128 -112.32 128 -113 128 C-113 126.35 -113 124.7 -113 123 C-112.47156494 122.83395264 -111.94312988 122.66790527 -111.39868164 122.49682617 C-108.95303738 121.72784456 -106.50776792 120.95767746 -104.0625 120.1875 C-103.23169922 119.92646484 -102.40089844 119.66542969 -101.54492188 119.39648438 C-96.6573477 117.85604271 -91.79704919 116.26398203 -86.96289062 114.5625 C-84.2734255 113.79178761 -81.77400402 113.78661508 -79 114 C-78.76925781 114.53109375 -78.53851562 115.0621875 -78.30078125 115.609375 C-76.15191516 120.26383594 -74.2357044 122.94088015 -70 126 C-70 126.66 -70 127.32 -70 128 C-62.62439622 131.81507451 -55.80320529 133.54268908 -47.5 133.4375 C-46.66702393 133.43065186 -45.83404785 133.42380371 -44.97583008 133.41674805 C-38.93960865 133.25857049 -34.05227705 132.51711804 -29 129 C-28.13181641 128.42185547 -28.13181641 128.42185547 -27.24609375 127.83203125 C-22.73080644 124.47004624 -20.44602989 120.97803792 -19.61328125 115.41796875 C-19.30983601 110.48866946 -19.41629548 106.97021364 -22.625 103.0625 C-32.71090764 93.21114835 -46.19553909 90.79097827 -59.48046875 87.73242188 C-77.23009386 83.49385019 -90.93128229 76.78025202 -102 62 C-109.54871463 49.37841064 -109.96024357 35.41811409 -106.75 21.25 C-106.21133225 19.48573958 -105.63260833 17.73279672 -105 16 C-104.61714844 14.93652344 -104.61714844 14.93652344 -104.2265625 13.8515625 C-99.08521601 1.91797843 -88.33677464 -5.95977384 -76.6875 -10.75 C-51.68578669 -19.70798714 -21.00273986 -16.72440396 0 0 Z " fill="#FBFBFB" transform="translate(2926,440)"/>
<path d="M0 0 C11.88 0 23.76 0 36 0 C37.98 5.28 39.96 10.56 42 16 C43.36241665 19.42301123 44.73234048 22.83963745 46.125 26.25 C48.66873346 32.53472946 51.01387367 38.81884605 53.07421875 45.28125 C54.43320523 49.27219764 56.1191937 53.11028741 57.77734375 56.984375 C59.01612567 60.03977322 60.05685767 63.11081846 61.0625 66.25 C62.17203911 69.69941394 63.34706344 72.87204791 65.0625 76.0625 C67.15589495 79.98863372 68.13477143 84.01155441 69.234375 88.3046875 C70.13072599 91.46020885 71.38290745 94.27768145 72.76953125 97.2421875 C77.81382217 108.54780461 81.92421142 120.31732489 86 132 C89.84181381 124.5185731 92.57426504 116.51620884 95.51123047 108.64819336 C97.61011775 103.02769614 99.73705572 97.41825007 101.875 91.8125 C102.21096191 90.93142578 102.54692383 90.05035156 102.89306641 89.14257812 C104.27519286 85.51900597 105.65812388 81.89574108 107.04101562 78.27246094 C110.5000657 69.20792576 113.95795126 60.14297088 117.375 51.0625 C117.83648438 49.83660156 118.29796875 48.61070312 118.7734375 47.34765625 C119.52455446 45.29763322 120.24775986 43.23677366 120.921875 41.16015625 C122.40029408 36.82667424 124.14722317 32.61405718 125.875 28.375 C128.52956924 21.81819608 131.0420044 15.27735149 133.11328125 8.5078125 C134.1526441 5.56829289 135.60565064 2.78869872 137 0 C148.88 0 160.76 0 173 0 C168.91429694 12.25710918 164.80999275 24.54535455 159.25610352 36.22875977 C157.94686856 39.11721963 156.79480517 42.03184729 155.66796875 44.99609375 C155.23194336 46.13916992 154.79591797 47.28224609 154.34667969 48.45996094 C153.68007324 50.21228027 153.68007324 50.21228027 153 52 C152.15571511 54.20211721 151.31067506 56.40394506 150.46484375 58.60546875 C150.04783203 59.69150391 149.63082031 60.77753906 149.20117188 61.89648438 C148.78416016 62.98251953 148.36714844 64.06855469 147.9375 65.1875 C147.51662109 66.28513672 147.09574219 67.38277344 146.66210938 68.51367188 C143.43855207 76.90491639 140.16750342 85.27376459 136.6875 93.5625 C136.26984375 94.56410156 135.8521875 95.56570313 135.421875 96.59765625 C134.66907108 98.39900849 133.915739 100.20014432 133.15820312 101.99951172 C128.72438799 112.50225609 128.72438799 112.50225609 124.9375 123.25 C123.64050669 127.33480488 122.06354342 131.1191077 120.20703125 134.98046875 C116.98537407 141.875431 114.32513861 148.90536321 111.75 156.0625 C110.89265744 158.42912269 110.03336725 160.79504097 109.171875 163.16015625 C108.8015918 164.18761963 108.43130859 165.21508301 108.04980469 166.27368164 C107 169 107 169 105 173 C92.79 173 80.58 173 68 173 C64.31772843 164.16254823 60.75084619 155.30962027 57.30664062 146.38085938 C55.61343026 142.01973841 53.89344898 137.69259921 51.96484375 133.4296875 C49.79938485 128.63638461 47.96037067 123.73976434 46.125 118.8125 C43.82975205 112.71157942 41.48422683 106.66125617 38.875 100.6875 C36.56017726 95.38761093 34.46955924 90.03012375 32.46484375 84.60791016 C30.16524973 78.40108069 27.78111826 72.22876296 25.375 66.0625 C25.00270264 65.10351807 24.63040527 64.14453613 24.24682617 63.15649414 C22.61647512 58.98730347 20.95872379 54.85102416 19.1015625 50.77734375 C15.80419596 43.46929284 13.06897385 35.91636918 10.20898438 28.42919922 C9.43291835 26.3999695 8.65465722 24.37160248 7.875 22.34375 C7.62613037 21.6950293 7.37726074 21.04630859 7.12084961 20.37792969 C5.49397023 16.17303893 3.73944427 12.06118226 1.76171875 8.00976562 C1 6 1 6 0 0 Z " fill="#FBFBFB" transform="translate(1656,428)"/>
<path d="M0 0 C36.63 0 73.26 0 111 0 C111 10.23 111 20.46 111 31 C85.59 31 60.18 31 34 31 C34 44.86 34 58.72 34 73 C55.12 73 76.24 73 98 73 C98 83.23 98 93.46 98 104 C77.21 104 56.42 104 35 104 C35 126.77 35 149.54 35 173 C23.45 173 11.9 173 0 173 C0 115.91 0 58.82 0 0 Z " fill="#F9F9F9" transform="translate(762,428)"/>
<path d="M0 0 C7.90519304 5.95810116 12.73617607 11.83645073 17.25 20.5625 C17.58813721 21.21033447 17.92627441 21.85816895 18.2746582 22.52563477 C25.38066084 37.02749725 24.99482063 56.15644862 20.2578125 71.328125 C14.5514239 85.84733859 5.11614614 97.21269577 -9.19140625 103.64453125 C-11.12999694 104.41465632 -13.07100438 105.06874313 -15.0625 105.6875 C-16.795 106.2753125 -16.795 106.2753125 -18.5625 106.875 C-32.05681706 109.97075509 -46.55919343 107.6564012 -58.5 100.8125 C-70.56053758 92.95037616 -78.23442838 82.24870118 -83.0625 68.6875 C-86.83368255 49.30790792 -85.81970873 29.43857663 -74.875 12.8125 C-57.33632547 -11.05635839 -24.37589205 -16.71185612 0 0 Z " fill="#020202" transform="translate(2255.0625,465.3125)"/>
<path d="M0 0 C16.35228067 10.37778192 16.35228067 10.37778192 18.64453125 18.19921875 C18.76183594 18.79347656 18.87914062 19.38773437 19 20 C19.66 20 20.32 20 21 20 C21.80864115 21.59567738 22.59577549 23.20225282 23.375 24.8125 C23.81585937 25.70582031 24.25671875 26.59914063 24.7109375 27.51953125 C27.90480869 36.14298347 28.34166534 44.94541352 28.3125 54.0625 C28.32861328 55.07376953 28.34472656 56.08503906 28.36132812 57.12695312 C28.36747957 66.68014868 26.22745624 74.39671533 21.5625 82.75 C20.98628906 83.79671875 20.41007812 84.8434375 19.81640625 85.921875 C16.68776414 91.22374593 13.8782284 95.48279325 9 99.3125 C8.154375 99.98925781 7.30875 100.66601562 6.4375 101.36328125 C4.18558619 102.87538363 2.64711772 103.57719647 0 104 C0 104.66 0 105.32 0 106 C-15.71090788 112.40074025 -32.08405468 113.33547338 -48 107 C-51.51901113 105.25826722 -54.93566128 103.47124091 -58 101 C-58 100.34 -58 99.68 -58 99 C-58.556875 98.79375 -59.11375 98.5875 -59.6875 98.375 C-61.94696811 97.03153247 -62.9998656 95.94842298 -64.625 93.9375 C-66.67119397 90.99175287 -66.67119397 90.99175287 -69 90 C-70.22685814 87.68227282 -71.35210371 85.38280204 -72.4375 83 C-72.73720703 82.36449219 -73.03691406 81.72898437 -73.34570312 81.07421875 C-74.27365971 79.06532358 -75.14806068 77.04226464 -76 75 C-76.29044189 74.31019043 -76.58088379 73.62038086 -76.88012695 72.90966797 C-79.26265073 66.63495837 -79.41774704 60.78503298 -79.3125 54.125 C-79.31572266 53.11308594 -79.31894531 52.10117187 -79.32226562 51.05859375 C-79.25708265 41.80261165 -78.51480358 32.89518222 -74.0625 24.625 C-73.55847656 23.66851562 -73.05445313 22.71203125 -72.53515625 21.7265625 C-72.02855469 20.82679688 -71.52195312 19.92703125 -71 19 C-70.22462891 17.58847656 -70.22462891 17.58847656 -69.43359375 16.1484375 C-68.72396484 15.08496094 -68.72396484 15.08496094 -68 14 C-67.34 14 -66.68 14 -66 14 C-65.92652344 13.42121094 -65.85304688 12.84242188 -65.77734375 12.24609375 C-63.64388666 6.08158206 -55.28342921 1.9546899 -49.75 -0.875 C-48.18617692 -1.62542517 -46.60143307 -2.33359721 -45 -3 C-44.15953125 -3.36480469 -43.3190625 -3.72960937 -42.453125 -4.10546875 C-29.22342122 -7.53262052 -12.01332426 -6.71561966 0 0 Z " fill="#010101" transform="translate(1010,462)"/>
<path d="M0 0 C10.89 0 21.78 0 33 0 C33 46.53 33 93.06 33 141 C58.08 141 83.16 141 109 141 C109 150.9 109 160.8 109 171 C73.03 171 37.06 171 0 171 C0 114.57 0 58.14 0 0 Z " fill="#FEFEFE" transform="translate(2010,429)"/>
<path d="M0 0 C27.60456081 0 44.67581461 0.2192799 64 18 C74.56519923 29.32346712 76.52537465 44.32529379 76.2421875 59.078125 C75.82226362 70.02940723 72.53473441 79.11905974 66 88 C65.34 88 64.68 88 64 88 C63.74734375 88.58136719 63.4946875 89.16273438 63.234375 89.76171875 C58.43492631 98.46451654 47.91974578 103.53692976 39 107 C29 109 29 109 0 109 C0 73.03 0 37.06 0 0 Z " fill="#010101" transform="translate(1374,460)"/>
<path d="M0 0 C7.5381713 -0.3759446 13.0439238 0.81573472 19.2421875 5.22265625 C21.57141276 7.35156814 23.64779822 9.4875657 25.2421875 12.22265625 C25.2421875 13.21265625 25.2421875 14.20265625 25.2421875 15.22265625 C25.9021875 15.22265625 26.5621875 15.22265625 27.2421875 15.22265625 C28.17419089 18.01866641 28.36589117 19.68268134 28.36244202 22.56962585 C28.36381668 23.45723602 28.36519135 24.34484619 28.36660767 25.25935364 C28.36121475 26.71591621 28.36121475 26.71591621 28.35571289 28.2019043 C28.35585892 29.22646729 28.35600494 30.25103027 28.3561554 31.30664062 C28.35545773 34.69924015 28.34767212 38.09178504 28.33984375 41.484375 C28.33797905 43.83421295 28.33655539 46.18405129 28.33555603 48.53388977 C28.33173493 54.72349111 28.3219081 60.91306905 28.31085205 67.10266113 C28.30062919 73.41674483 28.29605653 79.73083229 28.29101562 86.04492188 C28.28028549 98.43751029 28.26321393 110.83008133 28.2421875 123.22265625 C17.26304999 123.42966579 6.7438785 117.95106554 -1.7578125 111.22265625 C-7.10294934 106.03606161 -11.84614863 100.57576864 -15.7578125 94.22265625 C-15.7578125 93.56265625 -15.7578125 92.90265625 -15.7578125 92.22265625 C-16.4178125 92.22265625 -17.0778125 92.22265625 -17.7578125 92.22265625 C-24.30684197 77.42890441 -25.81543403 64.18386816 -25.56054688 48.08203125 C-25.50726083 44.43489733 -25.51956811 40.79193229 -25.5390625 37.14453125 C-25.52726546 34.80075886 -25.51177683 32.45700147 -25.4921875 30.11328125 C-25.49603455 29.03612854 -25.49988159 27.95897583 -25.50384521 26.84918213 C-25.36053212 20.29536896 -24.4104364 15.12840159 -19.7578125 10.22265625 C-19.0978125 10.22265625 -18.4378125 10.22265625 -17.7578125 10.22265625 C-17.65726562 9.61808594 -17.55671875 9.01351563 -17.453125 8.390625 C-16.23957595 4.60680633 -13.1422584 3.03404983 -9.7578125 1.22265625 C-6.47001725 0.38459079 -3.36759048 0.27188762 0 0 Z " fill="#FCFCFC" transform="translate(291.7578125,267.77734375)"/>
<path d="M0 0 C6.93 -0.04125 13.86 -0.0825 21 -0.125 C23.17207031 -0.14320801 25.34414063 -0.16141602 27.58203125 -0.18017578 C29.32551833 -0.18602323 31.06900816 -0.19111819 32.8125 -0.1953125 C33.70001953 -0.20554443 34.58753906 -0.21577637 35.50195312 -0.22631836 C47.385938 -0.22961215 57.44419436 3.64316658 66 12 C70.66936991 18.62990663 71.22186262 24.40684512 71.3125 32.25 C71.35600586 33.48169922 71.35600586 33.48169922 71.40039062 34.73828125 C71.46372883 40.88695938 70.1006481 44.69159261 67 50 C66.34 50 65.68 50 65 50 C64.814375 50.556875 64.62875 51.11375 64.4375 51.6875 C62.36470117 55.02200247 59.4368032 57.13233857 56 59 C55.01 59 54.02 59 53 59 C53 59.66 53 60.32 53 61 C46.65510165 62.87876601 40.97095301 63.26782687 34.375 63.1953125 C33.4984375 63.19329834 32.621875 63.19128418 31.71875 63.18920898 C28.47911258 63.17883272 25.23955041 63.1509109 22 63.125 C14.74 63.08375 7.48 63.0425 0 63 C0 42.21 0 21.42 0 0 Z " fill="#050505" transform="translate(821,110)"/>
<path d="M0 0 C5.960625 -0.061875 11.92125 -0.12375 18.0625 -0.1875 C19.93043213 -0.21481201 21.79836426 -0.24212402 23.72290039 -0.27026367 C25.22281246 -0.27903509 26.72273173 -0.28667747 28.22265625 -0.29296875 C28.98574097 -0.30831665 29.74882568 -0.32366455 30.53503418 -0.33947754 C38.22548429 -0.34319333 43.84805423 2.3191717 50 7 C56.9699411 14.45621606 58.53937988 20.235665 58.37109375 30.2734375 C57.88930991 35.11156157 56.50944602 38.8661358 54 43 C53.34 43 52.68 43 52 43 C51.73823975 43.59345215 51.47647949 44.1869043 51.20678711 44.79833984 C48.80122919 49.18703524 45.6557621 51.25225555 41 53 C34.05064224 53.99402578 26.92803057 53.56049488 19.9375 53.375 C13.358125 53.25125 6.77875 53.1275 0 53 C0 35.51 0 18.02 0 0 Z " fill="#020202" transform="translate(2381,459)"/>
<path d="M0 0 C8.3840625 -0.0928125 8.3840625 -0.0928125 16.9375 -0.1875 C18.68281006 -0.21481201 20.42812012 -0.24212402 22.22631836 -0.27026367 C33.45492602 -0.37280767 43.01702296 0.28495493 51.62890625 8.56640625 C56.66792958 13.99398078 58.50247591 19.45986113 58.2421875 26.96484375 C57.35100893 34.45361853 53.54942749 40.02427078 48 45 C41.25165912 49.44340472 34.82792674 50.15351844 26.85546875 50.09765625 C25.83096619 50.09614563 25.83096619 50.09614563 24.7857666 50.09460449 C22.2529938 50.08940257 19.72024508 50.07544145 17.1875 50.0625 C11.515625 50.041875 5.84375 50.02125 0 50 C0 33.5 0 17 0 0 Z " fill="#050505" transform="translate(1141,459)"/>
<path d="M0 0 C5.424375 -0.04125 10.84875 -0.0825 16.4375 -0.125 C18.13060303 -0.14320801 19.82370605 -0.16141602 21.56811523 -0.18017578 C32.99449204 -0.25403821 42.22003881 -0.08313887 51 8 C56.69589732 14.44535749 57.44566163 18.88103564 57.25390625 27.3203125 C56.80253561 33.86171463 54.53091545 38.17676742 50 43 C49.34 43 48.68 43 48 43 C48 43.66 48 44.32 48 45 C40.89321549 49.40620639 35.13609934 50.15677629 26.7578125 50.09765625 C25.73482056 50.09614563 25.73482056 50.09614563 24.69116211 50.09460449 C22.16909071 50.08941389 19.64704348 50.07545295 17.125 50.0625 C11.47375 50.041875 5.8225 50.02125 0 50 C0 33.5 0 17 0 0 Z " fill="#040404" transform="translate(2689,459)"/>
<path d="M0 0 C4.92362984 2.91572874 7.33442591 6.54061824 9 12 C9.68988699 19.24381343 7.99920782 24.48139424 4.4375 30.75 C-0.50348391 35.31090823 -6.5847683 37.21599683 -13.25 37.4375 C-17.5265749 37.21698911 -20.46596377 36.57020817 -24 34 C-29.40638899 27.99578915 -32.51192838 22.53629815 -32.3203125 14.3515625 C-31.7947551 10.49320207 -30.39253213 7.07927747 -28 4 C-25.859375 2.77734375 -25.859375 2.77734375 -24 2 C-24 1.34 -24 0.68 -24 0 C-15.34413881 -3.64457313 -8.65368577 -3.92489573 0 0 Z " fill="#0E0E0E" transform="translate(1925,265)"/>
<path d="M0 0 C4.92362984 2.91572874 7.33442591 6.54061824 9 12 C9.68988699 19.24381343 7.99920782 24.48139424 4.4375 30.75 C-0.50348391 35.31090823 -6.5847683 37.21599683 -13.25 37.4375 C-17.5265749 37.21698911 -20.46596377 36.57020817 -24 34 C-29.40638899 27.99578915 -32.51192838 22.53629815 -32.3203125 14.3515625 C-31.7947551 10.49320207 -30.39253213 7.07927747 -28 4 C-25.859375 2.77734375 -25.859375 2.77734375 -24 2 C-24 1.34 -24 0.68 -24 0 C-15.34413881 -3.64457313 -8.65368577 -3.92489573 0 0 Z M-25.8125 6.9375 C-29.17017903 11.8061346 -28.41839768 17.33768469 -28 23 C-27.34 23 -26.68 23 -26 23 C-25.773125 23.7425 -25.54625 24.485 -25.3125 25.25 C-23.733845 28.55765809 -22.00385901 29.94858409 -19 32 C-14.30690889 33.5643637 -9.88529371 33.81865276 -5 33 C-0.88167318 30.64950801 1.98123554 27.61304373 4.5 23.625 C5.53368247 18.19816704 5.89030437 13.78060874 3.375 8.75 C2.59125 7.8425 1.8075 6.935 1 6 C0.195625 5.05125 -0.60875 4.1025 -1.4375 3.125 C-5.39787508 -0.02299045 -10.03941202 0.48564817 -14.87890625 0.53125 C-19.51790243 1.22797033 -22.88380881 3.28360909 -25.8125 6.9375 Z " fill="#EAEAEA" transform="translate(1925,265)"/>
<path d="M0 0 C11.625 -0.25 11.625 -0.25 15 2 C15.27028374 5.71640139 15.180933 8.457201 14 12 C14.88319294 15.15020361 14.88319294 15.15020361 16 18 C14.68 18 13.36 18 12 18 C11.525625 17.195625 11.05125 16.39125 10.5625 15.5625 C9.23520082 12.74523291 9.23520082 12.74523291 6.3125 12.1875 C5.549375 12.125625 4.78625 12.06375 4 12 C4 13.98 4 15.96 4 18 C2.68 18 1.36 18 0 18 C0 12.06 0 6.12 0 0 Z " fill="#C7C7C7" transform="translate(1906,273)"/>
<path d="M0 0 C0.6084375 0.09087891 1.216875 0.18175781 1.84375 0.27539062 C29.75822891 4.27783429 58.3401435 4.42501668 86.375 1.4375 C90.60891062 0.98887371 94.74415974 0.92118814 99 1 C99 1.99 99 2.98 99 4 C95.67716805 5.66141597 91.95406727 5.17468601 88.29931641 5.19287109 C87.39836746 5.20104858 86.49741852 5.20922607 85.56916809 5.21765137 C82.57997305 5.24251753 79.59082547 5.25902293 76.6015625 5.2734375 C75.58236095 5.27876118 74.56315941 5.28408485 73.51307297 5.28956985 C68.1203766 5.31630448 62.72770343 5.33567994 57.33496094 5.35009766 C51.75703133 5.36676245 46.17969062 5.41155483 40.60198402 5.4624691 C36.31950172 5.49607318 32.0371605 5.50766749 27.75455856 5.51332474 C25.69799667 5.52005425 23.64144461 5.53532014 21.58501053 5.55921555 C18.70933801 5.59072845 15.8352715 5.59092499 12.95947266 5.58349609 C11.68132942 5.6081041 11.68132942 5.6081041 10.37736511 5.63320923 C4.57705116 5.57175427 4.57705116 5.57175427 1.44003296 2.46353149 C0.96482208 1.6505661 0.48961121 0.83760071 0 0 Z " fill="#141414" transform="translate(269,635)"/>
<path d="M0 0 C2.71281615 2.64278835 2.99826033 3.89968581 3.06518555 7.75878906 C2.93934367 9.26258531 2.79544507 10.76494339 2.63671875 12.265625 C2.56588577 13.05902283 2.4950528 13.85242065 2.42207336 14.66986084 C2.19274355 17.19829478 1.94045321 19.72383097 1.6875 22.25 C1.52777753 23.96600509 1.36955664 25.68215066 1.21289062 27.3984375 C0.82598499 31.60078565 0.41847667 35.80068306 0 40 C-0.33 40 -0.66 40 -1 40 C-1.02474322 34.94629268 -1.04288053 29.89262074 -1.05493164 24.83886719 C-1.0599563 23.12011094 -1.0667771 21.40135895 -1.07543945 19.68261719 C-1.0875868 17.21027574 -1.09324703 14.73799088 -1.09765625 12.265625 C-1.10281754 11.49881409 -1.10797882 10.73200317 -1.11329651 9.94195557 C-1.11366245 6.45150385 -0.93752738 3.35725527 0 0 Z " fill="#1A1A1A" transform="translate(1,264)"/>
<path d="M0 0 C1.79158489 -0.02696365 3.58328473 -0.04637917 5.375 -0.0625 C6.37273438 -0.07410156 7.37046875 -0.08570313 8.3984375 -0.09765625 C11 0 11 0 13 1 C16.30975448 1.23798501 19.61835735 1.38267886 22.93359375 1.5234375 C26.28130307 2.04371844 26.84869395 2.58254058 29 5 C8.27659574 5.76595745 8.27659574 5.76595745 0 1 C0 0.67 0 0.34 0 0 Z " fill="#151515" transform="translate(2859,569)"/>
<path d="M0 0 C0 0.99 0 1.98 0 3 C-3.24923116 4.62461558 -6.80788934 4.14527179 -10.375 4.125 C-11.18050293 4.12306641 -11.98600586 4.12113281 -12.81591797 4.11914062 C-19.24464462 4.07301064 -25.60757281 3.70191357 -32 3 C-32 2.67 -32 2.34 -32 2 C-28.16714075 1.66106419 -24.33364909 1.32987213 -20.5 1 C-18.88351562 0.85691406 -18.88351562 0.85691406 -17.234375 0.7109375 C-11.46437756 0.21837674 -5.79076447 -0.11244203 0 0 Z " fill="#0D0D0D" transform="translate(368,636)"/>
<path d="M0 0 C3.63 0 7.26 0 11 0 C11 0.66 11 1.32 11 2 C8.36 2 5.72 2 3 2 C3 4.31 3 6.62 3 9 C4.32 9.33 5.64 9.66 7 10 C5.35 10.33 3.7 10.66 2 11 C2 12.98 2 14.96 2 17 C1.34 17 0.68 17 0 17 C0 11.39 0 5.78 0 0 Z " fill="#F7F7F7" transform="translate(1907,273)"/>
<path d="M0 0 C-0.99 0.495 -0.99 0.495 -2 1 C-2.33 1.66 -2.66 2.32 -3 3 C-3.88042969 2.98839844 -4.76085938 2.97679687 -5.66796875 2.96484375 C-6.82941406 2.95582031 -7.99085937 2.94679688 -9.1875 2.9375 C-10.33605469 2.92589844 -11.48460937 2.91429687 -12.66796875 2.90234375 C-15.59300586 2.98807168 -18.16316291 3.32150977 -21 4 C-18.57211538 -0.734375 -18.57211538 -0.734375 -16.25 -1.8125 C-10.30418185 -2.30798485 -5.62137995 -1.83555264 0 0 Z " fill="#EFEFEF" transform="translate(1923,264)"/>
<path d="M0 0 C1.32 0.66 2.64 1.32 4 2 C2.98486328 2.5259375 2.98486328 2.5259375 1.94921875 3.0625 C-1.92117148 5.60516696 -4.95531685 8.70364603 -8.1875 12 C-8.81591797 12.6290625 -9.44433594 13.258125 -10.09179688 13.90625 C-12.69220154 16.5316853 -14.94059278 18.91088917 -17 22 C-17.67578125 20.203125 -17.67578125 20.203125 -18 18 C-16.85546875 16.296875 -16.85546875 16.296875 -15.1875 14.75 C-14.64480469 14.22921875 -14.10210938 13.7084375 -13.54296875 13.171875 C-12 12 -12 12 -10 12 C-9.7525 11.4225 -9.505 10.845 -9.25 10.25 C-7.81700012 7.67060021 -6.21575324 5.93878408 -4 4 C-3.34 4 -2.68 4 -2 4 C-1.34 2.68 -0.68 1.36 0 0 Z " fill="#2A2A2A" transform="translate(554,536)"/>
<path d="M0 0 C0.33 0 0.66 0 1 0 C1.99 9.9 2.98 19.8 4 30 C3.01 29.67 2.02 29.34 1 29 C-0.38308781 26.23382437 -0.11210196 23.98982 -0.09765625 20.8984375 C-0.09443359 19.68671875 -0.09121094 18.475 -0.08789062 17.2265625 C-0.07951172 15.95554687 -0.07113281 14.68453125 -0.0625 13.375 C-0.05798828 12.09625 -0.05347656 10.8175 -0.04882812 9.5 C-0.03701203 6.33328708 -0.02053815 3.16666644 0 0 Z " fill="#101010" transform="translate(0,341)"/>
<path d="M0 0 C1.23922223 3.71766668 0.57018942 5.43889537 -0.4375 9.1875 C-0.72496094 10.27417969 -1.01242188 11.36085938 -1.30859375 12.48046875 C-1.65083984 13.72763672 -1.65083984 13.72763672 -2 15 C-3.33333333 15 -4.66666667 15 -6 15 C-6.08121924 13.39667209 -6.13929134 11.79215974 -6.1875 10.1875 C-6.22230469 9.29417969 -6.25710937 8.40085937 -6.29296875 7.48046875 C-6 5 -6 5 -4.61328125 3.17578125 C-3 2 -3 2 -1 2 C-0.67 1.34 -0.34 0.68 0 0 Z " fill="#0D0D0D" transform="translate(6,253)"/>
<path d="M0 0 C5.75 -0.125 5.75 -0.125 8 1 C7.125 5.875 7.125 5.875 6 7 C4.00041636 7.04080783 1.99954746 7.04254356 0 7 C0 4.69 0 2.38 0 0 Z " fill="#171717" transform="translate(1910,275)"/>
<path d="M0 0 C0.33 0.66 0.66 1.32 1 2 C-3.09003859 3.14982602 -7.03177051 3.11094256 -11.25 3.0625 C-11.99507812 3.05798828 -12.74015625 3.05347656 -13.5078125 3.04882812 C-15.3385764 3.03709246 -17.16929873 3.0191585 -19 3 C-19 2.67 -19 2.34 -19 2 C-17.35 1.67 -15.7 1.34 -14 1 C-14 0.67 -14 0.34 -14 0 C-12.2300132 -0.19532961 -10.45895721 -0.38098882 -8.6875 -0.5625 C-7.70136719 -0.66691406 -6.71523438 -0.77132812 -5.69921875 -0.87890625 C-3 -1 -3 -1 0 0 Z " fill="#323232" transform="translate(995,570)"/>
<path d="M0 0 C0.3449145 1.33038449 0.67516582 2.66457061 1 4 C1.268125 4.804375 1.53625 5.60875 1.8125 6.4375 C2 9 2 9 0.0625 11.8125 C-0.618125 12.534375 -1.29875 13.25625 -2 14 C-2.66 13.67 -3.32 13.34 -4 13 C-3.52140759 11.39566191 -3.04210442 9.79153584 -2.5625 8.1875 C-2.29566406 7.29417969 -2.02882813 6.40085937 -1.75390625 5.48046875 C-1.19612127 3.64526945 -0.60655425 1.81966274 0 0 Z " fill="#222222" transform="translate(1885,250)"/>
<path d="M0 0 C0.99 0 1.98 0 3 0 C2.67 1.32 2.34 2.64 2 4 C1.34 4 0.68 4 0 4 C-1.94875383 6.24401957 -3.66818267 8.33636533 -5 11 C-5.66 11 -6.32 11 -7 11 C-6.67 9.35 -6.34 7.7 -6 6 C-5.34 6 -4.68 6 -4 6 C-3.67 5.01 -3.34 4.02 -3 3 C-2.34 3 -1.68 3 -1 3 C-0.67 2.01 -0.34 1.02 0 0 Z " fill="#1B1B1B" transform="translate(929,194)"/>
<path d="M0 0 C0 0.33 0 0.66 0 1 C-5.58441823 2.94305123 -10.07944538 3.12697555 -15.9375 2.625 C-16.71673828 2.56828125 -17.49597656 2.5115625 -18.29882812 2.453125 C-20.20006639 2.31315654 -22.10018686 2.15813968 -24 2 C-24 1.67 -24 1.34 -24 1 C-21.50018262 0.8301095 -19.00020399 0.66402047 -16.5 0.5 C-15.80390625 0.45230469 -15.1078125 0.40460937 -14.390625 0.35546875 C-9.58304475 0.04386633 -4.81771254 -0.04340282 0 0 Z " fill="#383838" transform="translate(360,637)"/>
<path d="M0 0 C0.33 1.32 0.66 2.64 1 4 C0.01 4.495 0.01 4.495 -1 5 C-1.33 5.99 -1.66 6.98 -2 8 C-2.99 8 -3.98 8 -5 8 C-5.99 8.66 -6.98 9.32 -8 10 C-6.52307692 5.32307692 -6.52307692 5.32307692 -3.875 3.6875 C-3.25625 3.460625 -2.6375 3.23375 -2 3 C-2 2.34 -2 1.68 -2 1 C-1.34 0.67 -0.68 0.34 0 0 Z " fill="#D2D2D2" transform="translate(1903,264)"/>
<path d="M0 0 C0.66 0.33 1.32 0.66 2 1 C-0.42627519 3.5233262 -2.95372207 5.91757567 -5.5625 8.25 C-6.14128906 8.77078125 -6.72007812 9.2915625 -7.31640625 9.828125 C-9 11 -9 11 -12 11 C-11.67 10.34 -11.34 9.68 -11 9 C-10.34 9 -9.68 9 -9 9 C-9 8.34 -9 7.68 -9 7 C-7.03125 5.2734375 -7.03125 5.2734375 -4.5 3.375 C-3.24703125 2.42753906 -3.24703125 2.42753906 -1.96875 1.4609375 C-0.99421875 0.73777344 -0.99421875 0.73777344 0 0 Z " fill="#2B2B2B" transform="translate(217,131)"/>
<path d="M0 0 C2.02350324 3.03525486 2.32124018 4.19426202 2.625 7.6875 C2.69976563 8.49574219 2.77453125 9.30398438 2.8515625 10.13671875 C2.90054687 10.75160156 2.94953125 11.36648438 3 12 C1.68 11.67 0.36 11.34 -1 11 C-0.835 9.9275 -0.67 8.855 -0.5 7.75 C0.08810915 3.96971248 0.08810915 3.96971248 0 0 Z " fill="#353535" transform="translate(1034,490)"/>
<path d="M0 0 C3.3 0 6.6 0 10 0 C10 1.32 10 2.64 10 4 C8.51882199 3.71872579 7.04006751 3.42466268 5.5625 3.125 C4.73878906 2.96257813 3.91507813 2.80015625 3.06640625 2.6328125 C2.38449219 2.42398438 1.70257812 2.21515625 1 2 C0.67 1.34 0.34 0.68 0 0 Z " fill="#1D1D1D" transform="translate(2859,569)"/>
<path d="M0 0 C0.66 0.33 1.32 0.66 2 1 C-1.3 4.3 -4.6 7.6 -8 11 C-8.66 10.67 -9.32 10.34 -10 10 C-6.66666667 6.66666667 -3.33333333 3.33333333 0 0 Z " fill="#2A2A2A" transform="translate(2192,466)"/>
<path d="M0 0 C0.33 0.99 0.66 1.98 1 3 C1.66 3.33 2.32 3.66 3 4 C2.34 5.98 1.68 7.96 1 10 C-2 10 -2 10 -4 9 C-3.2884375 7.88625 -3.2884375 7.88625 -2.5625 6.75 C-1.22130673 4.38949985 -0.487688 2.63351523 0 0 Z " fill="#2C2C2C" transform="translate(1933,285)"/>
<path d="M0 0 C0.33 1.98 0.66 3.96 1 6 C0.34 6 -0.32 6 -1 6 C-1.33 6.66 -1.66 7.32 -2 8 C-2.66 5.69 -3.32 3.38 -4 1 C-2 0 -2 0 0 0 Z " fill="#181818" transform="translate(1734,528)"/>
<path d="M0 0 C0.33 0.66 0.66 1.32 1 2 C1.66 2 2.32 2 3 2 C2.67 3.32 2.34 4.64 2 6 C-0.49064888 6.68707555 -2.37886292 7 -5 7 C-3.35 4.69 -1.7 2.38 0 0 Z " fill="#272727" transform="translate(2466,514)"/>
<path d="M0 0 C3 3.625 3 3.625 3 7 C2.34 7 1.68 7 1 7 C0.67 7.66 0.34 8.32 0 9 C-0.66 6.69 -1.32 4.38 -2 2 C-1.34 2 -0.68 2 0 2 C0 1.34 0 0.68 0 0 Z " fill="#1F1F1F" transform="translate(1701,446)"/>
<path d="M0 0 C0 0.99 0 1.98 0 3 C-1.051875 2.979375 -2.10375 2.95875 -3.1875 2.9375 C-6.32704904 2.98896802 -8.96883396 3.26517187 -12 4 C-11 2 -11 2 -9.00390625 1.11328125 C-7.79541016 0.71689453 -7.79541016 0.71689453 -6.5625 0.3125 C-5.75941406 0.04050781 -4.95632813 -0.23148437 -4.12890625 -0.51171875 C-2 -1 -2 -1 0 0 Z " fill="#404040" transform="translate(270,105)"/>
<path d="M0 0 C1.485 0.99 1.485 0.99 3 2 C2.67 4.64 2.34 7.28 2 10 C1.01 9.67 0.02 9.34 -1 9 C-0.67 6.03 -0.34 3.06 0 0 Z " fill="#1A1A1A" transform="translate(1483,531)"/>
<path d="M0 0 C0.3449145 1.33038449 0.67516582 2.66457061 1 4 C1.226875 4.86625 1.45375 5.7325 1.6875 6.625 C1.8421875 7.800625 1.8421875 7.800625 2 9 C1.34 9.66 0.68 10.32 0 11 C-0.66 10.67 -1.32 10.34 -2 10 C-1.54177532 6.53058454 -1.10868317 3.32604951 0 0 Z " fill="#414141" transform="translate(318,453)"/>
<path d="M0 0 C3 3.75 3 3.75 3 6 C1.68 6 0.36 6 -1 6 C-1.66 4.35 -2.32 2.7 -3 1 C-2.01 0.67 -1.02 0.34 0 0 Z " fill="#D1D1D1" transform="translate(1919,285)"/>
<path d="M0 0 C2 3 2 3 1.875 5.5625 C1 8 1 8 -3 10 C-2.01 6.7 -1.02 3.4 0 0 Z " fill="#212121" transform="translate(235,266)"/>
<path d="M0 0 C2.64 0.33 5.28 0.66 8 1 C8 1.99 8 2.98 8 4 C4.7 3.67 1.4 3.34 -2 3 C-1.34 2.01 -0.68 1.02 0 0 Z " fill="#1F1F1F" transform="translate(380,3)"/>
<path d="M0 0 C1.98 1.32 3.96 2.64 6 4 C5.01 4.495 5.01 4.495 4 5 C3.67 5.66 3.34 6.32 3 7 C1.02 5.35 -0.96 3.7 -3 2 C-2.01 1.34 -1.02 0.68 0 0 Z " fill="#262626" transform="translate(2190,557)"/>
<path d="M0 0 C0.99 0.66 1.98 1.32 3 2 C0.36 4.31 -2.28 6.62 -5 9 C-5.66 8.67 -6.32 8.34 -7 8 C-4.69 5.36 -2.38 2.72 0 0 Z " fill="#2D2D2D" transform="translate(2933,581)"/>
<path d="M0 0 C0.66 0.33 1.32 0.66 2 1 C1.67 2.98 1.34 4.96 1 7 C0.34 6.34 -0.32 5.68 -1 5 C-1.66 5.66 -2.32 6.32 -3 7 C-2.625 4.0625 -2.625 4.0625 -2 1 C-1.34 0.67 -0.68 0.34 0 0 Z " fill="#181818" transform="translate(1780,455)"/>
<path d="M0 0 C0.99 0.33 1.98 0.66 3 1 C1 4 1 4 -1.625 4.6875 C-2.800625 4.8421875 -2.800625 4.8421875 -4 5 C-4.33 4.34 -4.66 3.68 -5 3 C-2.6875 1.4375 -2.6875 1.4375 0 0 Z " fill="#191919" transform="translate(1437,288)"/>
<path d="M0 0 C0.66 0.33 1.32 0.66 2 1 C0 3 -2 5 -4 7 C-4.66 6.67 -5.32 6.34 -6 6 C-5 3 -5 3 -2.5625 1.25 C-1.716875 0.8375 -0.87125 0.425 0 0 Z " fill="#363636" transform="translate(960,461)"/>
<path d="M0 0 C0.66 0.33 1.32 0.66 2 1 C-0.31 3.31 -2.62 5.62 -5 8 C-5.33 7.34 -5.66 6.68 -6 6 C-4 4 -2 2 0 0 Z " fill="#3C3C3C" transform="translate(2861,458)"/>
<path d="M0 0 C-1.98 0.99 -1.98 0.99 -4 2 C-3.67 2.66 -3.34 3.32 -3 4 C-4.65 4 -6.3 4 -8 4 C-8 3.01 -8 2.02 -8 1 C-4.93251126 -0.86240388 -3.40254489 -1.2151946 0 0 Z " fill="#3B3B3B" transform="translate(1880,115)"/>
<path d="M0 0 C0.33 0.99 0.66 1.98 1 3 C-1.97 2.67 -4.94 2.34 -8 2 C-4.77208445 -0.1519437 -3.71599191 -0.20086443 0 0 Z " fill="#0D0D0D" transform="translate(2869,603)"/>
<path d="M0 0 C0.66 0 1.32 0 2 0 C2.33 1.98 2.66 3.96 3 6 C2.01 6 1.02 6 0 6 C-1.125 2.25 -1.125 2.25 0 0 Z " fill="#0A0A0A" transform="translate(1221,562)"/>
<path d="M0 0 C0.66 1.32 1.32 2.64 2 4 C1.34 4 0.68 4 0 4 C0 4.99 0 5.98 0 7 C-0.99 7.33 -1.98 7.66 -3 8 C-1.125 1.125 -1.125 1.125 0 0 Z " fill="#272727" transform="translate(1478,549)"/>
<path d="M0 0 C2.97 0.495 2.97 0.495 6 1 C5.01 1.495 5.01 1.495 4 2 C4 2.66 4 3.32 4 4 C4.66 4.33 5.32 4.66 6 5 C4.68 5 3.36 5 2 5 C2 4.34 2 3.68 2 3 C1.34 2.67 0.68 2.34 0 2 C0 1.34 0 0.68 0 0 Z " fill="#1A1A1A" transform="translate(1760,194)"/>
</svg>
