<?xml version="1.0" encoding="UTF-8"?>
<svg version="1.1" xmlns="http://www.w3.org/2000/svg" width="301" height="176">
<path d="M0 0 C1.2103084 -0.00657338 1.2103084 -0.00657338 2.44506747 -0.01327956 C5.15239132 -0.02664799 7.85968263 -0.03284212 10.56703186 -0.03897095 C12.50709683 -0.04687368 14.44716033 -0.05514274 16.38722229 -0.06375122 C22.76363219 -0.08995942 29.1400486 -0.1052813 35.51649475 -0.11953735 C37.71405606 -0.12489821 39.91161732 -0.13027572 42.10917854 -0.13566971 C51.25469742 -0.1572999 60.40021454 -0.1760341 69.54575253 -0.1872921 C82.63641569 -0.20351387 95.72678123 -0.23664723 108.81733221 -0.29369295 C118.0294294 -0.33246236 127.24144723 -0.35193329 136.45362383 -0.35721266 C141.95102883 -0.36085753 147.44811629 -0.37278641 152.94543266 -0.4053154 C158.12394698 -0.43551784 163.30195367 -0.4416645 168.48053741 -0.42993164 C170.37307953 -0.4297119 172.26564604 -0.43793389 174.15810585 -0.45558548 C187.27013653 -0.57114911 199.46489357 0.38201542 210.051651 9.15390015 C210.051651 9.81390015 210.051651 10.47390015 210.051651 11.15390015 C210.711651 11.15390015 211.371651 11.15390015 212.051651 11.15390015 C212.051651 11.81390015 212.051651 12.47390015 212.051651 13.15390015 C212.711651 13.15390015 213.371651 13.15390015 214.051651 13.15390015 C222.77282188 21.38914069 225.4036333 33.6371725 225.75868225 45.1265564 C225.83671418 48.82348959 225.85513994 52.5187429 225.864151 56.21640015 C225.88483959 58.17271852 225.90731749 60.12901874 225.93153381 62.08529663 C225.97533294 65.9688799 226.00457876 69.85213785 226.02088928 73.7359314 C226.0393378 77.82952182 226.0893835 81.92114115 226.16595459 86.01402283 C226.22517351 89.24797473 226.26264779 92.48215063 226.301651 95.71640015 C226.32332336 96.83603149 226.34499573 97.95566284 226.36732483 99.10922241 C226.39526552 106.23081082 225.27600529 112.38941396 223.051651 119.15390015 C222.391651 119.15390015 221.731651 119.15390015 221.051651 119.15390015 C220.948526 119.89897827 220.845401 120.6440564 220.739151 121.41171265 C218.83975205 128.98772437 210.3921533 135.14993136 204.051651 139.15390015 C195.32120049 143.09342575 186.47030788 143.31246291 177.03993225 143.3218689 C175.87592392 143.3251973 174.71191559 143.3285257 173.51263428 143.33195496 C171.05241795 143.33700965 168.59219478 143.33936373 166.13197327 143.33920288 C162.39479566 143.34138228 158.65791679 143.35953434 154.92079163 143.37850952 C152.52300617 143.38144527 150.12521932 143.38342885 147.72743225 143.3843689 C146.06905083 143.39514717 146.06905083 143.39514717 144.37716675 143.40614319 C128.46384126 143.35999528 128.46384126 143.35999528 122.051651 140.15390015 C121.80672913 140.86804077 121.56180725 141.5821814 121.3094635 142.31796265 C115.65061539 155.076732 101.80478801 165.98898697 89.176651 171.40390015 C75.20571363 176.54657648 57.97529166 177.60246907 44.114151 171.59140015 C33.17984381 165.67683478 25.78119748 156.30596676 22.176651 144.52890015 C21.78727615 143.07433893 21.40659007 141.61724541 21.051651 140.15390015 C20.50637756 140.34725952 19.96110413 140.5406189 19.39930725 140.73983765 C18.64520569 141.00022827 17.89110413 141.2606189 17.114151 141.52890015 C16.38325256 141.78413452 15.65235413 142.0393689 14.89930725 142.30233765 C5.51094624 145.10983106 -3.04769225 145.49553212 -12.77622986 145.46957397 C-15.24486257 145.46642057 -17.71228618 145.4899067 -20.18077087 145.51522827 C-35.80454593 145.57842353 -49.65547987 143.06403241 -61.7686615 132.4859314 C-62.948349 131.15390015 -62.948349 131.15390015 -62.948349 129.15390015 C-63.608349 129.15390015 -64.268349 129.15390015 -64.948349 129.15390015 C-70.22889301 120.52712906 -73.272155 113.39698703 -73.948349 103.15390015 C-74.01795837 102.12007202 -74.08756775 101.0862439 -74.1592865 100.02108765 C-74.59523128 86.90920999 -69.85538209 75.72687964 -60.948349 66.15390015 C-55.37263448 61.50896301 -48.48536516 56.15390015 -40.948349 56.15390015 C-41.19971619 54.95507202 -41.19971619 54.95507202 -41.4561615 53.73202515 C-43.62277771 42.04875294 -42.37642094 32.69808588 -36.948349 22.15390015 C-36.082099 20.39046265 -36.082099 20.39046265 -35.198349 18.59140015 C-34.579599 17.38483765 -34.579599 17.38483765 -33.948349 16.15390015 C-33.288349 16.15390015 -32.628349 16.15390015 -31.948349 16.15390015 C-31.618349 15.16390015 -31.288349 14.17390015 -30.948349 13.15390015 C-30.288349 13.15390015 -29.628349 13.15390015 -28.948349 13.15390015 C-28.618349 12.16390015 -28.288349 11.17390015 -27.948349 10.15390015 C-27.288349 10.15390015 -26.628349 10.15390015 -25.948349 10.15390015 C-25.948349 9.49390015 -25.948349 8.83390015 -25.948349 8.15390015 C-23.70078116 7.0030733 -21.45053152 5.85813156 -19.198349 4.71640015 C-18.56413025 4.39091187 -17.9299115 4.06542358 -17.276474 3.73007202 C-11.23255507 0.67663381 -6.72603371 0.00444152 0 0 Z M-5.948349 39.15390015 C-7.03727239 42.02027297 -7.03727239 42.02027297 -6.948349 45.15390015 C-4.9730987 48.95390549 -2.4383845 52.1273542 0.301651 55.40390015 C1.08797913 56.36038452 1.87430725 57.3168689 2.6844635 58.30233765 C4.18594242 60.11104988 5.70015554 61.90932658 7.2313385 63.69296265 C7.87329163 64.46382202 8.51524475 65.2346814 9.176651 66.02890015 C9.75672913 66.70694702 10.33680725 67.3849939 10.9344635 68.08358765 C12.051651 70.15390015 12.051651 70.15390015 12.01649475 72.5249939 C10.75826638 75.95328415 8.76187739 78.53716932 6.489151 81.34140015 C6.04458557 81.90874878 5.60002014 82.47609741 5.14198303 83.06063843 C3.02136093 85.75513827 0.85319976 88.38346854 -1.38975525 90.9781189 C-5.67722654 95.91978862 -5.67722654 95.91978862 -7.698349 102.02890015 C-6.82015426 105.68804491 -6.01626331 106.99806847 -2.948349 109.15390015 C-0.60739369 110.40543274 -0.60739369 110.40543274 2.051651 110.15390015 C7.0872288 106.97929675 9.95599568 102.68994425 13.239151 97.79452515 C15.58279098 94.38008415 18.15611007 91.17918129 20.76649475 87.96640015 C22.2444535 86.25229869 22.2444535 86.25229869 22.051651 84.15390015 C25.14555854 87.09519341 27.6778918 90.19554141 30.176651 93.65390015 C31.20145569 95.0615564 31.20145569 95.0615564 32.2469635 96.49765015 C33.72895908 98.67894234 34.95754681 100.76266213 36.051651 103.15390015 C36.711651 103.15390015 37.371651 103.15390015 38.051651 103.15390015 C38.340401 103.77265015 38.629151 104.39140015 38.926651 105.02890015 C39.98885142 107.2871578 39.98885142 107.2871578 42.051651 109.15390015 C46.70359814 109.4960625 46.70359814 109.4960625 51.051651 108.15390015 C51.051651 107.49390015 51.051651 106.83390015 51.051651 106.15390015 C51.711651 106.15390015 52.371651 106.15390015 53.051651 106.15390015 C54.21103613 102.19167157 54.29783376 100.62641222 52.3563385 96.8999939 C51.56415646 95.78433752 50.75357608 94.68155448 49.926651 93.59140015 C49.534776 93.04032593 49.142901 92.48925171 48.739151 91.92147827 C46.1299218 88.32739295 43.20711995 85.26378448 40.051651 82.15390015 C38.7521425 80.57287336 37.47871649 78.96984893 36.239151 77.34140015 C35.63458069 76.55120483 35.03001038 75.76100952 34.40711975 74.9468689 C33.95981506 74.35518921 33.51251038 73.76350952 33.051651 73.15390015 C34.80801544 69.02490305 37.58661912 65.75358146 40.364151 62.27890015 C40.83788147 61.67948608 41.31161194 61.08007202 41.79969788 60.4624939 C44.11821102 57.53818593 46.47170237 54.66131583 48.90711975 51.83358765 C51.25992895 49.46567464 51.25992895 49.46567464 51.051651 47.15390015 C51.711651 47.15390015 52.371651 47.15390015 53.051651 47.15390015 C53.51872889 43.13703028 53.37315934 41.58888202 50.926651 38.27890015 C48.22425317 35.97184928 48.22425317 35.97184928 45.051651 35.52890015 C38.95903672 36.79819479 35.77468291 42.6598304 32.18836975 47.3843689 C30.87149235 49.08382313 30.87149235 49.08382313 31.051651 51.15390015 C30.391651 51.15390015 29.731651 51.15390015 29.051651 51.15390015 C27.76031261 52.91349417 27.76031261 52.91349417 26.551651 55.09140015 C24.26256912 59.04844109 24.26256912 59.04844109 22.051651 60.15390015 C21.79770569 59.60089233 21.54376038 59.04788452 21.28211975 58.4781189 C19.30047544 54.73501298 16.725315 51.45142905 14.2000885 48.06015015 C12.83420154 46.2124776 11.50160426 44.33936284 10.2157135 42.43515015 C6.84846407 37.4228032 6.84846407 37.4228032 1.364151 35.40390015 C-2.85274583 36.35362228 -2.85274583 36.35362228 -5.948349 39.15390015 Z M63.864151 36.15390015 C60.91850774 37.95691032 60.91850774 37.95691032 59.489151 40.84140015 C58.90633697 45.25413498 60.22500349 48.23867076 62.051651 52.15390015 C62.38294006 52.88608765 62.71422913 53.61827515 63.05555725 54.37265015 C63.85611228 56.13554484 64.66278499 57.89566664 65.473526 59.65390015 C67.9277417 65.09691319 70.25676256 70.59292007 72.59510803 76.08651733 C74.41578258 80.35836351 76.24924289 84.62155103 78.1532135 88.85702515 C78.47499573 89.57608032 78.79677795 90.2951355 79.12831116 91.03598022 C79.72370701 92.36137359 80.32454758 93.68434099 80.93202209 95.00424194 C83.15256418 99.9618406 84.82462981 103.89598837 83.0125885 109.1890564 C78.95764765 116.92939916 75.53592984 122.86407774 67.051651 126.15390015 C66.020401 126.13327515 64.989151 126.11265015 63.926651 126.09140015 C60.97834629 125.90077791 60.97834629 125.90077791 58.676651 127.71640015 C56.4520368 131.05332145 56.55134865 133.22295308 57.051651 137.15390015 C58.61749481 139.76363983 59.82680471 140.08592336 62.739151 140.96640015 C71.19558547 141.44506625 78.78611719 137.79855286 85.11805725 132.38827515 C95.36937204 121.8761637 100.28477289 106.47417722 105.89930725 93.1812439 C107.6921125 88.95687232 109.58522183 84.80020461 111.551651 80.65390015 C114.87422702 73.64388579 117.92779939 66.53098703 120.94422913 59.3843689 C122.47412964 55.77172367 124.00462015 52.24401665 125.82118225 48.76327515 C127.52349494 45.15329141 127.12464625 42.94515001 126.051651 39.15390015 C123.78663701 36.55332853 122.47315809 36.20658853 119.051651 35.77890015 C115.56760751 36.21440558 114.56439078 36.74422196 112.051651 39.15390015 C110.9035489 41.52186073 109.94633544 43.75837238 109.051651 46.21640015 C108.52953598 47.58619959 108.00740057 48.95599126 107.48524475 50.32577515 C107.23758362 50.9889978 106.98992249 51.65222046 106.73475647 52.33554077 C105.89854865 54.56144351 105.01113525 56.76436155 104.114151 58.96640015 C103.42659012 60.69554261 102.73910218 62.42471407 102.051651 64.15390015 C101.77111877 64.85015503 101.49058655 65.54640991 101.20155334 66.26376343 C100.22821945 68.6828506 99.26447774 71.10561398 98.301651 73.52890015 C97.98333313 74.31498657 97.66501526 75.101073 97.33705139 75.91098022 C97.04177551 76.65887817 96.74649963 77.40677612 96.442276 78.17733765 C96.17447327 78.84684448 95.90667053 79.51635132 95.63075256 80.20614624 C94.86165889 82.45425089 94.86165889 82.45425089 95.051651 86.15390015 C92.00145038 83.60618923 91.01174737 80.91255619 89.676651 77.21640015 C88.07380314 72.88153398 86.42560853 68.5933744 84.614151 64.34140015 C83.16736692 60.92917353 81.8005372 57.50694948 80.5438385 54.02108765 C80.2853009 53.30799438 80.02676331 52.59490112 79.76039124 51.86019897 C79.25925997 50.46721586 78.76611355 49.07132498 78.28236389 47.67221069 C76.44467268 42.57247405 74.32938581 38.5924695 69.676651 35.65390015 C66.92964842 34.91640397 66.92964842 34.91640397 63.864151 36.15390015 Z M136.051651 39.15390015 C134.96272761 42.02027297 134.96272761 42.02027297 135.051651 45.15390015 C136.76380578 48.32138648 137.58900709 48.99968551 141.051651 50.15390015 C143.008205 50.24837661 144.96781845 50.28461732 146.926651 50.28671265 C148.07649475 50.28800171 149.2263385 50.28929077 150.411026 50.2906189 C151.61243225 50.28675171 152.8138385 50.28288452 154.051651 50.27890015 C155.85376038 50.28470093 155.85376038 50.28470093 157.692276 50.2906189 C158.84211975 50.28932983 159.9919635 50.28804077 161.176651 50.28671265 C162.23110413 50.28558472 163.28555725 50.28445679 164.3719635 50.28329468 C167.15389444 50.26987668 167.15389444 50.26987668 170.051651 49.15390015 C169.556651 49.93765015 169.061651 50.72140015 168.551651 51.52890015 C166.88627135 53.93942342 166.88627135 53.93942342 167.051651 56.15390015 C166.391651 56.15390015 165.731651 56.15390015 165.051651 56.15390015 C163.54776341 58.05861728 162.16883414 59.96582966 160.801651 61.96640015 C159.90464238 63.24995198 159.00611873 64.53244595 158.1063385 65.8140564 C157.37495667 66.85843872 157.37495667 66.85843872 156.62879944 67.92391968 C153.77846102 71.95410407 150.85300822 75.92874529 147.926651 79.90390015 C147.33005676 80.71850708 146.73346252 81.53311401 146.11878967 82.37240601 C142.34917831 87.49147051 138.46286764 92.41492803 134.21180725 97.14608765 C132.7992705 99.14795168 132.7992705 99.14795168 133.2782135 101.77108765 C134.15428134 104.47008454 135.0810629 106.1103273 137.051651 108.15390015 C139.85746413 109.07161362 142.43421814 109.28402096 145.37367249 109.29916382 C146.21812424 109.30554367 147.06257599 109.31192352 147.93261719 109.3184967 C149.28898033 109.32016594 149.28898033 109.32016594 150.67274475 109.3218689 C151.60965652 109.3251973 152.5465683 109.3285257 153.51187134 109.33195496 C155.49135345 109.33701246 157.47084407 109.33936364 159.45033264 109.33920288 C162.4744829 109.34138954 165.49826837 109.35955822 168.52235413 109.37850952 C170.44748309 109.38144367 172.37261378 109.38342832 174.29774475 109.3843689 C175.19996262 109.39155441 176.10218048 109.39873993 177.03173828 109.40614319 C181.44227265 109.39013385 185.09431279 109.35426819 189.051651 107.15390015 C190.86345619 104.76561149 191.08328357 103.58621194 190.864151 100.59140015 C189.93107843 97.79218242 189.4495885 96.86104613 187.051651 95.15390015 C184.46390329 94.89236946 182.12265447 94.80431577 179.53993225 94.8609314 C178.81170761 94.86517624 178.08348297 94.86942108 177.33319092 94.87379456 C175.00979973 94.89057281 172.6872795 94.9282216 170.364151 94.96640015 C168.78799166 94.98144817 167.21181871 94.99513637 165.63563538 95.00741577 C161.77397223 95.04047329 157.91295923 95.09224821 154.051651 95.15390015 C155.21994399 93.55504613 156.38825476 91.95620509 157.5566864 90.35745239 C158.505294 89.05942143 159.45369121 87.76123671 160.4019928 86.46298218 C163.03129368 82.87447086 165.68492111 79.30772274 168.38368225 75.77108765 C168.92347717 75.06145874 169.46327209 74.35182983 170.01942444 73.62069702 C171.06350562 72.25117963 172.11217053 70.88514174 173.16590881 69.52304077 C175.70777155 66.18289296 177.7416933 63.20004169 179.051651 59.15390015 C179.711651 59.15390015 180.371651 59.15390015 181.051651 59.15390015 C182.64513961 57.20775487 182.64513961 57.20775487 184.176651 54.77890015 C184.71547913 53.96679077 185.25430725 53.1546814 185.8094635 52.31796265 C187.2175923 50.28067989 187.2175923 50.28067989 187.051651 48.15390015 C187.711651 48.15390015 188.371651 48.15390015 189.051651 48.15390015 C189.98546061 43.62249361 189.98546061 43.62249361 189.051651 39.15390015 C186.196694 37.27510309 183.90610847 36.90201146 180.53016663 36.89511108 C179.64244568 36.88880676 178.75472473 36.88250244 177.84010315 36.87600708 C176.88897644 36.88005554 175.93784973 36.884104 174.957901 36.88827515 C173.97422546 36.88636169 172.99054993 36.88444824 171.97706604 36.88247681 C169.89922327 36.88111702 167.82137194 36.88479907 165.74354553 36.89315796 C162.56350111 36.90386027 159.38402161 36.89325558 156.20399475 36.88046265 C154.18446225 36.88178428 152.16493011 36.88434675 150.145401 36.88827515 C148.71871094 36.88220245 148.71871094 36.88220245 147.26319885 36.87600708 C146.37547791 36.8823114 145.48775696 36.88861572 144.57313538 36.89511108 C143.40542603 36.89749786 143.40542603 36.89749786 142.21412659 36.89993286 C139.72921534 37.19176791 138.14292023 37.78384498 136.051651 39.15390015 Z M-36.948349 93.15390015 C-39.13461947 97.43138586 -39.17545241 100.55226237 -37.948349 105.15390015 C-35.67084808 108.57015153 -34.83027361 109.11872025 -30.948349 110.15390015 C-26.68841122 110.07782983 -24.51186284 109.5495588 -21.010849 107.09140015 C-18.21606067 103.11094405 -18.54373184 100.92838266 -18.948349 96.15390015 C-19.608349 96.15390015 -20.268349 96.15390015 -20.948349 96.15390015 C-21.030849 95.53515015 -21.113349 94.91640015 -21.198349 94.27890015 C-21.76202119 92.03420434 -21.76202119 92.03420434 -23.698349 90.90390015 C-28.84531439 89.18824502 -32.45782152 90.16021516 -36.948349 93.15390015 Z " fill="#FEFEFE" transform="translate(74.94834899902344,0.846099853515625)"/>
<path d="M0 0 C0 3 0 3 -1.0625 5.8125 C-2.40159784 10.36543266 -1.47094534 13.58716397 0 18 C2.01508358 18.73323796 2.01508358 18.73323796 4 19 C3.01 19.33 2.02 19.66 1 20 C-2.02350897 17.73236827 -3.72392828 16.39176655 -4.47265625 12.6171875 C-4.62549857 8.16482416 -4.44245035 5.69132867 -2 1.875 C-1.34 1.25625 -0.68 0.6375 0 0 Z " fill="#EFEFEF" transform="translate(39,91)"/>
<path d="M0 0 C0.66 0 1.32 0 2 0 C1.67 0.99 1.34 1.98 1 3 C0.5 6.5 0.5 6.5 1 10 C3.40858714 11.8624438 3.40858714 11.8624438 6 13 C6 13.66 6 14.32 6 15 C3.02545866 14.67842796 1.40664722 14.37860258 -0.8125 12.3125 C-2.35100818 9.31645776 -2.34709669 7.33212821 -2 4 C-1 1.625 -1 1.625 0 0 Z " fill="#EEEEEE" transform="translate(132,128)"/>
<path d="M0 0 C0.66 0 1.32 0 2 0 C1.40895235 4.84659077 0.02055843 8.60748167 -2 13 C-2.66 13 -3.32 13 -4 13 C-3.27991594 8.39146203 -1.68704061 4.32762591 0 0 Z " fill="#F5F5F5" transform="translate(182,47)"/>
<path d="M0 0 C4.42066456 1.85667911 8.72934283 3.81259023 13 6 C10 7 10 7 7.51953125 6.00390625 C6.62621094 5.52824219 5.73289062 5.05257812 4.8125 4.5625 C3.91144531 4.08941406 3.01039062 3.61632812 2.08203125 3.12890625 C1.39496094 2.75636719 0.70789063 2.38382813 0 2 C0 1.34 0 0.68 0 0 Z " fill="#EEEEEE" transform="translate(19,136)"/>
<path d="M0 0 C3.32368224 1.10789408 3.61563093 1.48436217 5.25 4.375 C5.60578125 4.98085938 5.9615625 5.58671875 6.328125 6.2109375 C7 8 7 8 6 11 C4.02 7.37 2.04 3.74 0 0 Z " fill="#F4F4F4" transform="translate(289,17)"/>
<path d="M0 0 C0 3.39593478 -0.52165948 4.06619881 -2.5 6.6875 C-2.9640625 7.31011719 -3.428125 7.93273437 -3.90625 8.57421875 C-4.2671875 9.04472656 -4.628125 9.51523438 -5 10 C-5.66 9.34 -6.32 8.68 -7 8 C-4.69 5.36 -2.38 2.72 0 0 Z " fill="#F4F4F4" transform="translate(87,73)"/>
</svg>
